/* XPM */
static char * system_hibernate_xpm[] = {
"48 48 909 2",
"  	c None",
". 	c #7B93A2",
"+ 	c #5F7988",
"@ 	c #415C6C",
"# 	c #445E6E",
"$ 	c #435E6E",
"% 	c #445E6D",
"& 	c #455E6D",
"* 	c #455E6E",
"= 	c #455E6C",
"- 	c #455D6C",
"; 	c #455E6B",
"> 	c #445E6C",
", 	c #455C6C",
"' 	c #445D6C",
") 	c #435B6A",
"! 	c #6F8795",
"~ 	c #8BA0AD",
"{ 	c #A6BCC9",
"] 	c #B0BFC8",
"^ 	c #9CAAB2",
"/ 	c #81919B",
"( 	c #84949E",
"_ 	c #85949E",
": 	c #86949E",
"< 	c #86949D",
"[ 	c #83919A",
"} 	c #ABB8C0",
"| 	c #BDCAD4",
"1 	c #9FB4C2",
"2 	c #7B93A1",
"3 	c #BDC4C8",
"4 	c #CED4D9",
"5 	c #A2AFBC",
"6 	c #A8B3C0",
"7 	c #A8B4C1",
"8 	c #A8B4C0",
"9 	c #A4B0BD",
"0 	c #CDD3DA",
"a 	c #B0B8BB",
"b 	c #667D8B",
"c 	c #566670",
"d 	c #909497",
"e 	c #9FADBA",
"f 	c #A0AEBB",
"g 	c #A3B1BE",
"h 	c #979B9E",
"i 	c #47565F",
"j 	c #1D282D",
"k 	c #565F67",
"l 	c #9DABB8",
"m 	c #9AA9B7",
"n 	c #A2B0BD",
"o 	c #80888F",
"p 	c #262D32",
"q 	c #1C2529",
"r 	c #586269",
"s 	c #98A7B6",
"t 	c #96A6B5",
"u 	c #97A7B6",
"v 	c #98A8B7",
"w 	c #99AABA",
"x 	c #98AABA",
"y 	c #9FADBB",
"z 	c #848C92",
"A 	c #242A2C",
"B 	c #1E262B",
"C 	c #566168",
"D 	c #94A4B3",
"E 	c #93A3B2",
"F 	c #93A3B3",
"G 	c #909FAD",
"H 	c #92A0AD",
"I 	c #8A919A",
"J 	c #8A8D91",
"K 	c #8F9091",
"L 	c #979594",
"M 	c #969594",
"N 	c #909090",
"O 	c #898C91",
"P 	c #8A929A",
"Q 	c #909EAD",
"R 	c #9BAAB8",
"S 	c #838C92",
"T 	c #252A2E",
"U 	c #1E272B",
"V 	c #555F67",
"W 	c #90A0B0",
"X 	c #8F9FB0",
"Y 	c #8E9FAF",
"Z 	c #8797A6",
"` 	c #ABAEB1",
" .	c #C7C6C5",
"..	c #E6E5E5",
"+.	c #FAF9F9",
"@.	c #FEFEFE",
"#.	c #FFFFFF",
"$.	c #FFFEFE",
"%.	c #F9F9F8",
"&.	c #E5E4E4",
"*.	c #C6C5C4",
"=.	c #AAADB0",
"-.	c #889199",
";.	c #8897A6",
">.	c #262B2E",
",.	c #20272C",
"'.	c #535E65",
").	c #8B9DAD",
"!.	c #8A9CAC",
"~.	c #8C9FAF",
"{.	c #828E99",
"].	c #AAABAC",
"^.	c #EAEAEA",
"/.	c #F7F7F7",
"(.	c #FAFAFA",
"_.	c #F8F8F8",
":.	c #F9FAFA",
"<.	c #EAE9E9",
"[.	c #A7A8A9",
"}.	c #828E9A",
"|.	c #8C9EAF",
"1.	c #858C92",
"2.	c #262C2F",
"3.	c #21292C",
"4.	c #515C64",
"5.	c #8898AA",
"6.	c #8797A9",
"7.	c #8697A9",
"8.	c #858D95",
"9.	c #CECCCB",
"0.	c #F9F9F9",
"a.	c #F6F6F6",
"b.	c #F5F5F5",
"c.	c #CAC8C6",
"d.	c #858D94",
"e.	c #838B92",
"f.	c #292C2E",
"g.	c #22292E",
"h.	c #505A63",
"i.	c #8495A7",
"j.	c #8295A7",
"k.	c #8395A6",
"l.	c #8193A6",
"m.	c #949AA0",
"n.	c #E6E6E6",
"o.	c #F4F4F4",
"p.	c #F3F3F3",
"q.	c #FDFDFD",
"r.	c #E3E3E3",
"s.	c #92999F",
"t.	c #8B9CAD",
"u.	c #292D30",
"v.	c #222A2D",
"w.	c #4E5861",
"x.	c #8091A3",
"y.	c #7F90A3",
"z.	c #7E92A5",
"A.	c #899198",
"B.	c #ECEBEA",
"C.	c #F2F2F2",
"D.	c #F8F7F7",
"E.	c #FFFFFE",
"F.	c #F7F6F6",
"G.	c #F1F1F1",
"H.	c #E8E8E7",
"I.	c #868F98",
"J.	c #7E92A4",
"K.	c #8798AA",
"L.	c #292E2F",
"M.	c #242A2F",
"N.	c #4D5760",
"O.	c #7A8FA0",
"P.	c #798EA0",
"Q.	c #788EA1",
"R.	c #7C8A96",
"S.	c #E2E0DF",
"T.	c #FCFCFC",
"U.	c #EEF0F2",
"V.	c #B5C1CA",
"W.	c #8E9EAE",
"X.	c #778C9F",
"Y.	c #788C9F",
"Z.	c #8E9FAE",
"`.	c #B7C2CB",
" +	c #EFF1F3",
".+	c #F1F2F2",
"++	c #DEDCDA",
"@+	c #7B8997",
"#+	c #8396A8",
"$+	c #848C93",
"%+	c #2A2E31",
"&+	c #4B555E",
"*+	c #778A9D",
"=+	c #768A9D",
"-+	c #748698",
";+	c #C7C8CA",
">+	c #F7F7F6",
",+	c #E9EBED",
"'+	c #A1B0BC",
")+	c #71869A",
"!+	c #74899D",
"~+	c #788CA0",
"{+	c #798EA2",
"]+	c #71869B",
"^+	c #EAECEE",
"/+	c #F4F3F3",
"(+	c #C3C5C6",
"_+	c #738698",
":+	c #8093A5",
"<+	c #858C93",
"[+	c #2C2F31",
"}+	c #252A30",
"|+	c #49535D",
"1+	c #74869B",
"2+	c #73869B",
"3+	c #72859A",
"4+	c #959FAA",
"5+	c #F5F4F4",
"6+	c #F6F6F5",
"7+	c #E1E5E9",
"8+	c #778CA0",
"9+	c #758BA0",
"0+	c #778EA1",
"a+	c #7A8FA2",
"b+	c #798FA3",
"c+	c #7A8FA3",
"d+	c #788EA2",
"e+	c #778DA0",
"f+	c #E3E6E9",
"g+	c #F3F2F2",
"h+	c #F0F0F0",
"i+	c #939DA8",
"j+	c #7C8FA3",
"k+	c #868D93",
"l+	c #2C2F32",
"m+	c #272C30",
"n+	c #4A545D",
"o+	c #6E8498",
"p+	c #6D8498",
"q+	c #708597",
"r+	c #C8CCD0",
"s+	c #FBFBFA",
"t+	c #E6E9EC",
"u+	c #758CA0",
"v+	c #768EA2",
"w+	c #778EA2",
"x+	c #7790A4",
"y+	c #7991A5",
"z+	c #7A91A5",
"A+	c #7992A6",
"B+	c #7A92A6",
"C+	c #7890A4",
"D+	c #768EA3",
"E+	c #768DA1",
"F+	c #E6E8EA",
"G+	c #F0F0EF",
"H+	c #F9F8F8",
"I+	c #C4C9CD",
"J+	c #6F8497",
"K+	c #788DA0",
"L+	c #878E95",
"M+	c #2E3132",
"N+	c #272D30",
"O+	c #4A555E",
"P+	c #6B8095",
"Q+	c #6B7F95",
"R+	c #778A9C",
"S+	c #F1F0EF",
"T+	c #F1F1F2",
"U+	c #9DADBB",
"V+	c #728BA0",
"W+	c #758EA3",
"X+	c #7790A5",
"Y+	c #7791A6",
"Z+	c #7992A7",
"`+	c #7993A8",
" @	c #7993A7",
".@	c #7892A6",
"+@	c #758FA3",
"@@	c #738BA1",
"#@	c #9FAFBC",
"$@	c #ECEDED",
"%@	c #EFEFEF",
"&@	c #EEECEB",
"*@	c #76899B",
"=@	c #72869B",
"-@	c #868E94",
";@	c #2E3234",
">@	c #272E31",
",@	c #4A555F",
"'@	c #667C91",
")@	c #657C92",
"!@	c #637A91",
"~@	c #97A2AD",
"{@	c #DADEE2",
"]@	c #6988A2",
"^@	c #7390A9",
"/@	c #7593AA",
"(@	c #7795AD",
"_@	c #7897AF",
":@	c #7998B0",
"<@	c #7A99B1",
"[@	c #7997AF",
"}@	c #7796AE",
"|@	c #7593AC",
"1@	c #7392A9",
"2@	c #6B8AA3",
"3@	c #D7DBDF",
"4@	c #EDEDED",
"5@	c #FEFCFB",
"6@	c #93A0AB",
"7@	c #637B91",
"8@	c #60788E",
"9@	c #597189",
"0@	c #99A9B7",
"a@	c #9CA1A4",
"b@	c #2E3133",
"c@	c #292E32",
"d@	c #4B5760",
"e@	c #63798E",
"f@	c #62788F",
"g@	c #5B738A",
"h@	c #C3C9CE",
"i@	c #FEFDFD",
"j@	c #D7D6D6",
"k@	c #93908D",
"l@	c #94918E",
"m@	c #94908E",
"n@	c #918E8C",
"o@	c #908D8A",
"p@	c #908C8A",
"q@	c #8F8C89",
"r@	c #908D8B",
"s@	c #D4D3D2",
"t@	c #ECECEC",
"u@	c #EEEEEE",
"v@	c #FCFBFB",
"w@	c #BFC5CB",
"x@	c #687D93",
"y@	c #A1ADBB",
"z@	c #BAC4CD",
"A@	c #70859A",
"B@	c #3B4E5F",
"C@	c #303335",
"D@	c #2A3032",
"E@	c #4A575F",
"F@	c #5F768D",
"G@	c #5E768C",
"H@	c #516B83",
"I@	c #E6E8E9",
"J@	c #EBECEC",
"K@	c #EBEBEB",
"L@	c #E9EAEA",
"M@	c #E9E9E9",
"N@	c #EBEBEC",
"O@	c #E8E9EA",
"P@	c #6E8397",
"Q@	c #49637D",
"R@	c #34526E",
"S@	c #3E5A75",
"T@	c #465868",
"U@	c #313435",
"V@	c #2B3134",
"W@	c #414E59",
"X@	c #45607A",
"Y@	c #4D677F",
"Z@	c #566E86",
"`@	c #49647D",
" #	c #E8E8E8",
".#	c #E4E4E4",
"+#	c #E2E2E2",
"@#	c #E1E1E1",
"##	c #E5E5E5",
"$#	c #2B4A69",
"%#	c #405C76",
"&#	c #405C77",
"*#	c #405D78",
"=#	c #495A6A",
"-#	c #333536",
";#	c #2C3234",
">#	c #42515B",
",#	c #3D5A75",
"'#	c #2F4F6C",
")#	c #E7E7E7",
"!#	c #E0E0E0",
"~#	c #DFDFDF",
"{#	c #FEFCFD",
"]#	c #415D78",
"^#	c #4B5D6C",
"/#	c #333537",
"(#	c #2D3235",
"_#	c #45535D",
":#	c #335370",
"<#	c #F3F4F6",
"[#	c #FAFAF9",
"}#	c #DEDEDE",
"|#	c #DDDDDD",
"1#	c #DCDCDD",
"2#	c #DBDBDB",
"3#	c #DADADB",
"4#	c #DCDCDC",
"5#	c #ECEFF1",
"6#	c #345573",
"7#	c #405C78",
"8#	c #405B76",
"9#	c #4D5F6D",
"0#	c #343638",
"a#	c #2F3436",
"b#	c #475660",
"c#	c #415C77",
"d#	c #415E79",
"e#	c #3B5B77",
"f#	c #D5DBE1",
"g#	c #FCFCFB",
"h#	c #EFEFF0",
"i#	c #F4F4F3",
"j#	c #FFFFFC",
"k#	c #FFFFFB",
"l#	c #FFFEFB",
"m#	c #FFFDFA",
"n#	c #FFFDF9",
"o#	c #FFFCF9",
"p#	c #FFFEFA",
"q#	c #EAE9E8",
"r#	c #CED7DD",
"s#	c #3D5D7A",
"t#	c #425F7A",
"u#	c #3F5B76",
"v#	c #4F6270",
"w#	c #353838",
"x#	c #2F3337",
"y#	c #4A5963",
"z#	c #415D77",
"A#	c #3F5B77",
"B#	c #43617C",
"C#	c #44647F",
"D#	c #A4B4C1",
"E#	c #C7CFD4",
"F#	c #50809E",
"G#	c #5E8CA9",
"H#	c #6290AE",
"I#	c #6596B2",
"J#	c #6899B6",
"K#	c #6A9CB9",
"L#	c #6C9EBB",
"M#	c #6D9FBC",
"N#	c #6C9EBC",
"O#	c #6B9DB9",
"P#	c #6899B7",
"Q#	c #6596B4",
"R#	c #6391AF",
"S#	c #5F8DAB",
"T#	c #5281A1",
"U#	c #BFC6CC",
"V#	c #FEFDFC",
"W#	c #9FAFBE",
"X#	c #466581",
"Y#	c #44627D",
"Z#	c #516372",
"`#	c #363738",
" $	c #303537",
".$	c #4C5B65",
"+$	c #45637E",
"@$	c #4A6A84",
"#$	c #69839B",
"$$	c #F0F1F1",
"%$	c #DFE0E0",
"&$	c #7A96A8",
"*$	c #729DB7",
"=$	c #77A2BC",
"-$	c #79A7C0",
";$	c #7DA9C4",
">$	c #7FADC7",
",$	c #81AFC9",
"'$	c #83B0CA",
")$	c #81B0CA",
"!$	c #80ADC8",
"~$	c #7DAAC5",
"{$	c #7BA7C1",
"]$	c #77A3BD",
"^$	c #739EB9",
"/$	c #D3D3D4",
"($	c #66839A",
"_$	c #4A6B86",
":$	c #47647F",
"<$	c #526674",
"[$	c #36393A",
"}$	c #313638",
"|$	c #4D5F69",
"1$	c #435F7A",
"2$	c #476580",
"3$	c #4C6C87",
"4$	c #597992",
"5$	c #E0E5E9",
"6$	c #AEB3B7",
"7$	c #76A1BB",
"8$	c #7AA6C0",
"9$	c #7DABC5",
"0$	c #83B2CD",
"a$	c #85B5CF",
"b$	c #87B6D0",
"c$	c #88B7D2",
"d$	c #85B5D0",
"e$	c #84B3CD",
"f$	c #7EABC6",
"g$	c #7AA7C0",
"h$	c #A6ABAE",
"i$	c #DBE2E6",
"j$	c #5B7A94",
"k$	c #4D6D88",
"l$	c #486782",
"m$	c #42607B",
"n$	c #546876",
"o$	c #383A39",
"p$	c #323639",
"q$	c #50616B",
"r$	c #415D79",
"s$	c #42617B",
"t$	c #4E6E88",
"u$	c #51728D",
"v$	c #A6B9C7",
"w$	c #EAE8E8",
"x$	c #8F989D",
"y$	c #7BA8C3",
"z$	c #82B0CB",
"A$	c #85B4CF",
"B$	c #87B9D2",
"C$	c #8ABBD5",
"D$	c #8BBDD6",
"E$	c #8CBCD6",
"F$	c #8ABBD6",
"G$	c #88B9D3",
"H$	c #86B6CF",
"I$	c #82B1CC",
"J$	c #7CA9C4",
"K$	c #889095",
"L$	c #D9D7D7",
"M$	c #A6B8C6",
"N$	c #50748E",
"O$	c #4E6F8A",
"P$	c #496883",
"Q$	c #45627D",
"R$	c #556A78",
"S$	c #393A3B",
"T$	c #333739",
"U$	c #52636E",
"V$	c #425E79",
"W$	c #45627C",
"X$	c #4A6883",
"Y$	c #4F6F8A",
"Z$	c #527590",
"`$	c #66869F",
" %	c #F3F5F6",
".%	c #E6E4E4",
"+%	c #9EA4A8",
"@%	c #7A9AAC",
"#%	c #89BCD9",
"$%	c #8DC1DB",
"%%	c #90C2DD",
"&%	c #90C4DE",
"*%	c #90C3DE",
"=%	c #8EC1DD",
"-%	c #8ABDD9",
";%	c #7999AB",
">%	c #94999C",
",%	c #D2D1D0",
"'%	c #F0F2F4",
")%	c #65869F",
"!%	c #547692",
"~%	c #50708B",
"{%	c #4A6985",
"]%	c #44617C",
"^%	c #576D7A",
"/%	c #3A3B3B",
"(%	c #34373B",
"_%	c #536570",
":%	c #43607A",
"<%	c #45627E",
"[%	c #4B6A84",
"}%	c #50708C",
"|%	c #557791",
"1%	c #557995",
"2%	c #91A9BB",
"3%	c #C7C8C9",
"4%	c #82878A",
"5%	c #7692A0",
"6%	c #8BB7CE",
"7%	c #97CDE8",
"8%	c #8BB7CD",
"9%	c #74919F",
"0%	c #7C8083",
"a%	c #B5B6B6",
"b%	c #D1D0D0",
"c%	c #D8D8D8",
"d%	c #8CA7BA",
"e%	c #557B96",
"f%	c #557793",
"g%	c #50718C",
"h%	c #4C6A85",
"i%	c #47647E",
"j%	c #45617D",
"k%	c #586F7C",
"l%	c #3A3C3D",
"m%	c #34383A",
"n%	c #556874",
"o%	c #43617A",
"p%	c #4B6A85",
"q%	c #50718B",
"r%	c #557692",
"s%	c #5B7E98",
"t%	c #557D99",
"u%	c #BECED9",
"v%	c #D3D1D0",
"w%	c #A8A4A2",
"x%	c #928C8A",
"y%	c #908B88",
"z%	c #A4A09E",
"A%	c #C8C7C6",
"B%	c #D7D7D7",
"C%	c #FAF9F8",
"D%	c #B9CBD6",
"E%	c #567E9A",
"F%	c #5C7F9A",
"G%	c #577992",
"H%	c #52728D",
"I%	c #4D6C86",
"J%	c #45637D",
"K%	c #59717E",
"L%	c #3C3C3C",
"M%	c #35393B",
"N%	c #566B76",
"O%	c #45617B",
"P%	c #4B6B85",
"Q%	c #50728B",
"R%	c #5A7E99",
"S%	c #6185A0",
"T%	c #6188A4",
"U%	c #C9D7E0",
"V%	c #FDFCFB",
"W%	c #E9E9EA",
"X%	c #EDEEEE",
"Y%	c #F9F8F7",
"Z%	c #C6D5DE",
"`%	c #618BA5",
" &	c #6285A1",
".&	c #5C809A",
"+&	c #52728E",
"@&	c #4D6C87",
"#&	c #47657F",
"$&	c #5B7480",
"%&	c #3C3D3D",
"&&	c #35393C",
"*&	c #576E79",
"=&	c #43627B",
"-&	c #45647E",
";&	c #6085A0",
">&	c #658AA5",
",&	c #678FAA",
"'&	c #C1D3DE",
")&	c #F3F4F4",
"!&	c #BED0DC",
"~&	c #6790AC",
"{&	c #658CA7",
"]&	c #5F85A0",
"^&	c #5B7F9A",
"/&	c #5C7682",
"(&	c #373B3D",
"_&	c #59707B",
":&	c #43617B",
"<&	c #5A7D97",
"[&	c #60839E",
"}&	c #648AA5",
"|&	c #6A91AB",
"1&	c #6490AD",
"2&	c #9DBACD",
"3&	c #F5F7F9",
"4&	c #F5F5F4",
"5&	c #F3F6F7",
"6&	c #9AB9CC",
"7&	c #6792AF",
"8&	c #6B92AD",
"9&	c #658BA6",
"0&	c #60859F",
"a&	c #5D7884",
"b&	c #3C3D3E",
"c&	c #59737D",
"d&	c #43607B",
"e&	c #537690",
"f&	c #587C97",
"g&	c #5E829C",
"h&	c #6389A3",
"i&	c #688FAA",
"j&	c #6D96B0",
"k&	c #6D99B4",
"l&	c #81A9C1",
"m&	c #BAD1DF",
"n&	c #E7EFF3",
"o&	c #FFFFFD",
"p&	c #FDFAF9",
"q&	c #F7F6F5",
"r&	c #F4F3F2",
"s&	c #F9F7F6",
"t&	c #FFFCFA",
"u&	c #E5EDF1",
"v&	c #BAD2DF",
"w&	c #81A9C2",
"x&	c #6E9AB6",
"y&	c #6E97B1",
"z&	c #6890AB",
"A&	c #648AA4",
"B&	c #5F839E",
"C&	c #5A7E98",
"D&	c #4A6A85",
"E&	c #5D7987",
"F&	c #3C3E3E",
"G&	c #383B3D",
"H&	c #5B7580",
"I&	c #42607C",
"J&	c #53748F",
"K&	c #587A95",
"L&	c #5C819B",
"M&	c #6187A2",
"N&	c #668DA7",
"O&	c #6B93AE",
"P&	c #6F9AB4",
"Q&	c #749FBA",
"R&	c #77A3BF",
"S&	c #84AFC8",
"T&	c #93BBD1",
"U&	c #C0D8E5",
"V&	c #E5EFF4",
"W&	c #FAFBFC",
"X&	c #F9FBFB",
"Y&	c #E5EEF4",
"Z&	c #BFD8E5",
"`&	c #85AFC9",
" *	c #78A5C0",
".*	c #759FBB",
"+*	c #719BB5",
"@*	c #6B94AF",
"#*	c #678EA9",
"$*	c #6288A3",
"%*	c #5D829C",
"&*	c #587B96",
"**	c #43617D",
"=*	c #5F7C89",
"-*	c #393D3E",
";*	c #5C7883",
">*	c #476680",
",*	c #4C6C86",
"'*	c #50728C",
")*	c #567893",
"!*	c #5B7E99",
"~*	c #60849F",
"{*	c #648BA5",
"]*	c #6990AA",
"^*	c #6D96B1",
"/*	c #729CB6",
"(*	c #7EAEC8",
"_*	c #7CAECA",
":*	c #7AAECB",
"<*	c #7AAFCC",
"[*	c #7BAFCC",
"}*	c #7CAFCA",
"|*	c #7FAFC9",
"1*	c #7EACC6",
"2*	c #7BA8C2",
"3*	c #77A1BC",
"4*	c #739DB7",
"5*	c #6E98B2",
"6*	c #6A91AC",
"7*	c #658CA6",
"8*	c #6186A0",
"9*	c #577994",
"0*	c #52738E",
"a*	c #4E6D88",
"b*	c #5F7D89",
"c*	c #3B3F41",
"d*	c #537691",
"e*	c #597C97",
"f*	c #5D819C",
"g*	c #6287A2",
"h*	c #668DA8",
"i*	c #6E97B2",
"j*	c #76A2BC",
"k*	c #7AA5C0",
"l*	c #7DAAC4",
"m*	c #7FACC7",
"n*	c #81AFCA",
"o*	c #83B0CB",
"p*	c #82B0CA",
"q*	c #7AA7C1",
"r*	c #749EB8",
"s*	c #6F99B4",
"t*	c #6388A3",
"u*	c #5E839D",
"v*	c #597D97",
"w*	c #547792",
"x*	c #4B6B86",
"y*	c #3C3F3F",
"z*	c #4F5556",
"A*	c #799499",
"B*	c #51738E",
"C*	c #567993",
"D*	c #638AA4",
"E*	c #678FA9",
"F*	c #6C94AE",
"G*	c #6F99B3",
"H*	c #739DB8",
"I*	c #75A0BB",
"J*	c #78A4BE",
"K*	c #7BA9C3",
"L*	c #7DAAC3",
"M*	c #7CA8C3",
"N*	c #7AA7C2",
"O*	c #79A4BF",
"P*	c #76A1BC",
"Q*	c #739EB8",
"R*	c #709AB4",
"S*	c #6C94AF",
"T*	c #5B809A",
"U*	c #577A94",
"V*	c #52748F",
"W*	c #4E6E89",
"X*	c #44617B",
"Y*	c #748F95",
"Z*	c #3B4041",
"`*	c #4D565C",
" =	c #777C7D",
".=	c #86B0BB",
"+=	c #496880",
"@=	c #4C6C85",
"#=	c #50718A",
"$=	c #557690",
"%=	c #587C96",
"&=	c #5C819A",
"*=	c #60869F",
"==	c #658AA4",
"-=	c #688FA8",
";=	c #6B94AD",
">=	c #6F98B1",
",=	c #719CB5",
"'=	c #749FB8",
")=	c #76A2BB",
"!=	c #78A4BD",
"~=	c #79A6BE",
"{=	c #7AA7BF",
"]=	c #7AA6BF",
"^=	c #759FB8",
"/=	c #729DB6",
"(=	c #7098B1",
"_=	c #6C95AD",
":=	c #658CA5",
"<=	c #6187A0",
"[=	c #5D819B",
"}=	c #5A7C96",
"|=	c #557890",
"1=	c #52728B",
"2=	c #4D6D86",
"3=	c #486681",
"4=	c #4A6881",
"5=	c #86B2BE",
"6=	c #585E5F",
"7=	c #3C4449",
"8=	c #414C51",
"9=	c #5A6264",
"0=	c #6A6E6F",
"a=	c #6B8284",
"b=	c #5B777C",
"c=	c #5D797D",
"d=	c #5E797E",
"e=	c #5E7A7F",
"f=	c #5F7A7F",
"g=	c #5F7A81",
"h=	c #5F7B80",
"i=	c #607B80",
"j=	c #607C81",
"k=	c #607C82",
"l=	c #617C82",
"m=	c #617D82",
"n=	c #607B81",
"o=	c #5F7B81",
"p=	c #5F7A80",
"q=	c #5E797D",
"r=	c #5D797E",
"s=	c #5D787D",
"t=	c #5C787C",
"u=	c #5D777C",
"v=	c #6B8286",
"w=	c #525858",
"x=	c #404748",
"y=	c #3C474D",
"z=	c #3E484F",
"A=	c #414A4F",
"B=	c #3C4446",
"C=	c #353D3E",
"D=	c #363E3F",
"E=	c #363D3F",
"F=	c #363E40",
"G=	c #363E3E",
"H=	c #363D3E",
"I=	c #343E3E",
"J=	c #353C3D",
"K=	c #343B3D",
"L=	c #343B3C",
"M=	c #343C3C",
"N=	c #394142",
"O=	c #3C4549",
"P=	c #3C474C",
"                                                                                                ",
"                                                                                                ",
"                                                                                                ",
"          . + @ # # # $ $ # % & & & * & & % = = & % % - ; > > , - - - - - , ' ' ) ! ~           ",
"        { ] ^ / ( ( _ _ : _ _ : : : : : _ : : : : : : < : : : < < < < < < < < < [ } | 1         ",
"      2 3 4 5 6 7 7 7 7 7 8 7 7 7 7 8 7 7 7 7 8 8 8 8 8 8 8 8 8 8 8 8 8 8 8 8 8 6 9 0 a b       ",
"      c d e f f f f f f f f f f f f f f f f f f f f f f f f f f f f f f f f f f f f g h i       ",
"      j k l m m m m m m m m m m m m m m m m m m m m m m m m m m m m m m m m m m m m n o p       ",
"      q r s t t t t t t t t t t t t t t u v w x w w v u t t t t t t t t t t t t t t y z A       ",
"      B C D E E E E E E E E E E E F G H I J K L M N O P H Q F E E E E E E E E E E E R S T       ",
"      U V W X X X X X X X X Y X Z P `  ...+.@.#.#.$.%.&.*.=.-.;.X Y X X X X X X X X u z >.      ",
"      ,.'.).!.!.!.!.!.!.!.!.~.{.].^./.(._._._._._._./._.:./.<.[.}.|.!.!.!.!.!.!.!.!.E 1.2.      ",
"      3.4.5.6.6.6.6.6.6.6.7.8.9.#.0._./.a.a.b.b.b.b.b.a.a./._.#.c.d.7.6.6.6.6.6.6.6.W e.f.      ",
"      g.h.i.j.j.j.j.j.k.l.m.n.@._./.a.a.b.o.p.p.p.p.o.o.b.b.a./.q.r.s.l.k.j.j.j.j.j.t.z u.      ",
"      v.w.x.y.y.y.y.y.z.A.B.(././.a.o.o.C.D.E.#.#.E.F.G.C.p.o.b./.0.H.I.J.y.y.y.y.y.K.z L.      ",
"      M.N.O.P.P.P.P.Q.R.S.T./.a.b.o.o.p.U.V.W.X.Y.Z.`. +.+C.C.p.o.a.T.++@+Q.P.P.P.P.#+$+%+      ",
"      T &+*+=+=+=+=+-+;+#._.a.b.p.>+,+'+)+!+~+{+{+~+!+]+g ^+/+G.C.o.a.@.(+_+=+=+=+=+:+<+[+      ",
"      }+|+1+2+2+2+3+4+5+_./.a.o.6+7+8+9+0+a+b+c+c+b+a+d+9+e+f+g+h+p.b./.C.i+3+2+2+2+j+k+l+      ",
"      m+n+o+p+p+p+q+r+s+/.a.o.o.t+u+v+w+x+y+z+A+A+B+y+C+D+w+E+F+G+G.p.b.H+I+J+p+p+p+K+L+M+      ",
"      N+O+P+Q+Q+Q+R+S+0./.b.p.T+U+V+W+X+Y+Z+`+`+`+ @Z+.@X++@@@#@$@%@G.p./.&@*@Q+Q+P+=@-@;@      ",
"      >@,@'@)@)@!@~@E._.a.o.p.{@]@^@/@(@_@:@<@<@<@<@:@[@}@|@1@2@3@4@%@C.b.5@6@7@8@9@0@a@b@      ",
"      c@d@e@f@f@g@h@i@/.b.p.C.j@k@l@m@k@n@o@p@p@p@q@q@q@p@o@r@p@s@t@u@h+o.v@w@x@y@z@A@B@C@      ",
"      D@E@F@G@G@H@I@s+/.b.p.G.G.b.p.G.h+u@4@J@K@^.L@M@M@^.^.N@4@^.^.t@h+C._.O@P@Q@R@S@T@U@      ",
"      V@W@X@Y@Z@`@s+0./.o.C.G.u@4@K@M@ #n..#r.r.+#@#@#@#@#@#r..###M@K@u@C.F.>+$#%#&#*#=#-#      ",
"      ;#>#%#S@,#'##.0./.o.p.h+u@t@K@ #)###r.+#@#!#~#~#~#~#!#@#r.##)#^.u@G.b.{#'#&#&#]#^#/#      ",
"      (#_#%#&#&#:#<#[#a.o.C.h+4@^. #n..#+#!#}#|#1#2#3#3#2#2#4#}#+###M@4@G.a.5#6#7#8#]#9#0#      ",
"      a#b#c#%#d#e#f#g#/.o.C.h#i##.#.E.E.j#k#l#m#n#o#n#m#m#p#k#E.q### #K@G.D.r#s#t#u#d#v#w#      ",
"      x#y#z#A#B#C#D#E./.o.C.G.E#F#G#H#I#J#K#L#M#M#N#O#P#Q#R#S#T#U### #K@G.V#W#X#Y#&#d#Z#`#      ",
"       $.$z#*#+$@$#$#./.b.C.$$%$&$*$=$-$;$>$,$'$'$)$!$~${$]$^$&$/$r. #4@G.E.($_$:$d#d#<$[$      ",
"      }$|$z#1$2$3$4$5$0.a.p.G.u@6$7$8$9$,$0$a$b$c$d$e$)$f$g$=$h$~#r.)#4@o.i$j$k$l$m$t#n$o$      ",
"      p$q$r$s$l$t$u$v$(.a.b.C.h+w$x$y$z$A$B$C$D$E$F$G$H$I$J$K$L$~###^.h+a.M$N$O$P$Q$1$R$S$      ",
"      T$U$V$W$X$Y$Z$`$ %/.a.C.G.h+.%+%@%#%$%%%&%&%*%=%-%;%>%,%4#@#n.t@T+'%)%!%~%{%+$]%^%/%      ",
"      (%_%:%<%[%}%|%1%2%#.a.o.C.%@4@H.3%4%5%6%7%7%8%9%0%a%b%c%|#r.^.%@#.d%e%f%g%h%i%j%k%l%      ",
"      m%n%o%+$p%q%r%s%t%u%V#/.o.G.u@t@K@t@v%w%x%y%z%A%4#B%c%|#r.M@%@C%D%E%F%G%H%I%2$J%K%L%      ",
"      M%N%O%C#P%Q%r%R%S%T%U%V%b.b.C.%@t@^.M@^.W%)#r.~#4#|#!#.#M@X%Y%Z%`% &.&G%+&@&#&+$$&%&      ",
"      &&*&=&-&p%q%r%s%;&>&,&'&#.a.)&C.%@4@K@M@)###.#r..###)#K@%@E.!&~&{&]&^&G%H%I%2$+$/&%&      ",
"      (&_&:&<%[%}%|%<&[&}&|&1&2&3&%.b.p.G.%@4@t@^.K@^.^.4@h+4&5&6&7&8&9&0&R%f%g%h%i%<%a&b&      ",
"      (&c&d&Q$X$Y$e&f&g&h&i&j&k&l&m&n&o&p&q&p.C.G.G.r&s&t&u&v&w&x&y&z&A&B&C&r%~%D&+$Y#E&F&      ",
"      G&H&:&I&l$t$J&K&L&M&N&O&P&Q&R&S&T&U&V&W&#.#.X&Y&Z&T&`& *.*+*@*#*$*%*&*Z$O$X$Q$**=*F&      ",
"      -*;*:%1$>*,*'*)*!*~*{*]*^*/*7$8$9$(*_*:*<*<*[*}*|*1*2*3*4*5*6*7*8*^&9*0*a*l$m$B#b*F&      ",
"      c*;*:&*#+$@$Y$d*e*f*g*h*8&i*4*j*k*l*m*n*o*p*,$>$l*q*]$r*s*@*#*t*u*v*w*q%x*:$d#B#b*y*      ",
"      z*A*t#A#]%l$k$B*C*!*~*D*E*F*G*H*I*J*q*K*L*;$M*N*O*P*Q*R*S*z&}&]&T*U*V*W*P$Q$&#X*Y*Z*      ",
"      `* =.=+=#&@=#=$=%=&=*===-=;=>=,='=)=!=~={={=]=J*)=^=/=(=_=]*:=<=[=}=|=1=2=3=4=5=6=7=      ",
"      8=9=0=a=b=c=d=e=f=g=h=i=j=j=j=k=l=l=l=m=j=j=j=n=j=o=i=i=h=p=f=e=d=q=r=s=t=u=v=w=x=y=      ",
"        z=A=B=C=D=D=E=F=D=G=G=G=H=I=J=J=J=J=K=L=L=L=L=L=L=L=L=L=L=L=M=M=M=M=M=M=M=N=O=P=        ",
"                                                                                                ",
"                                                                                                ",
"                                                                                                "};
