/* XPM */
static char * system_reboot_xpm[] = {
"48 48 932 2",
"  	c None",
". 	c #FBD177",
"+ 	c #FBCE56",
"@ 	c #FBC331",
"# 	c #FBC333",
"$ 	c #FAC333",
"% 	c #FBC233",
"& 	c #FBC234",
"* 	c #FBC134",
"= 	c #FBC033",
"- 	c #FBBF33",
"; 	c #FABF33",
"> 	c #FBBE33",
", 	c #FCBE33",
"' 	c #FBBD33",
") 	c #FBBC33",
"! 	c #FBBB33",
"~ 	c #FABA32",
"{ 	c #FAB932",
"] 	c #FAB832",
"^ 	c #F9B630",
"/ 	c #FACB68",
"( 	c #FCD28B",
"_ 	c #FCE4B2",
": 	c #FEECB7",
"< 	c #FCDF95",
"[ 	c #FAD377",
"} 	c #FAD37A",
"| 	c #FAD27A",
"1 	c #F9D27A",
"2 	c #FAD27B",
"3 	c #FAD17B",
"4 	c #FAD17A",
"5 	c #FBD07A",
"6 	c #FAD07A",
"7 	c #FACF7A",
"8 	c #FACE7A",
"9 	c #FACD7A",
"0 	c #F9CD79",
"a 	c #F9CC79",
"b 	c #F9CB79",
"c 	c #F9CA77",
"d 	c #FBDDA6",
"e 	c #FEEBC3",
"f 	c #FCDBA8",
"g 	c #FBCD73",
"h 	c #FEECBD",
"i 	c #F9E6CB",
"j 	c #F2CEA5",
"k 	c #F2CFA7",
"l 	c #F3CFA7",
"m 	c #F2CEA7",
"n 	c #F2CEA6",
"o 	c #F9E4CB",
"p 	c #FCDDAC",
"q 	c #F7B154",
"r 	c #F9C244",
"s 	c #F9D386",
"t 	c #F1CB9F",
"u 	c #F0C99E",
"v 	c #F1C99E",
"w 	c #F1CA9E",
"x 	c #F2CA9E",
"y 	c #F1CDA4",
"z 	c #F7C887",
"A 	c #F6A32C",
"B 	c #F7AC06",
"C 	c #F6BC4E",
"D 	c #F0C89B",
"E 	c #F0C69A",
"F 	c #F0C79A",
"G 	c #F1C799",
"H 	c #C4A788",
"I 	c #BAA38B",
"J 	c #BAA48C",
"K 	c #BBA58C",
"L 	c #BBA58D",
"M 	c #BCA58D",
"N 	c #BCA68D",
"O 	c #BCA58E",
"P 	c #BCA68E",
"Q 	c #BDA68E",
"R 	c #BFA68B",
"S 	c #DCB78F",
"T 	c #F1C79A",
"U 	c #F1CAA1",
"V 	c #F4B96F",
"W 	c #F48F08",
"X 	c #F7A806",
"Y 	c #F5B94E",
"Z 	c #F0C596",
"` 	c #F0C494",
" .	c #F1C493",
"..	c #A5998A",
"+.	c #C0BFBD",
"@.	c #CBCBCB",
"#.	c #CCCCCC",
"$.	c #CECECE",
"%.	c #CFCFCF",
"&.	c #D0D0D0",
"*.	c #D1D1D1",
"=.	c #D2D2D2",
"-.	c #D3D3D3",
";.	c #D0D0CF",
">.	c #B0ADAA",
",.	c #D7B48E",
"'.	c #F0C89C",
").	c #F3BA72",
"!.	c #F28A06",
"~.	c #F5A305",
"{.	c #F4B54B",
"].	c #EFC290",
"^.	c #EFC18F",
"/.	c #D7B692",
"(.	c #CECCCB",
"_.	c #D9D9D9",
":.	c #DBDBDB",
"<.	c #DCDCDC",
"[.	c #DDDDDD",
"}.	c #DEDEDE",
"|.	c #DFDFDF",
"1.	c #E0E0E0",
"2.	c #E1E1E1",
"3.	c #E2E2E2",
"4.	c #E4E5E6",
"5.	c #BDB7B0",
"6.	c #F1C28D",
"7.	c #EEC18F",
"8.	c #EFC597",
"9.	c #F3B871",
"0.	c #F28606",
"a.	c #F5A005",
"b.	c #F3B348",
"c.	c #EEC08B",
"d.	c #EEBE89",
"e.	c #E4C8A7",
"f.	c #D8D7D6",
"g.	c #DADADA",
"h.	c #E3E3E3",
"i.	c #E4E4E4",
"j.	c #E5E5E5",
"k.	c #DDE0E4",
"l.	c #EEBD86",
"m.	c #EEBF89",
"n.	c #EEBF8A",
"o.	c #EFC392",
"p.	c #F3B671",
"q.	c #F18205",
"r.	c #F59C05",
"s.	c #F3AF45",
"t.	c #EEBC86",
"u.	c #EEBB84",
"v.	c #EEC79D",
"w.	c #DFDDDB",
"x.	c #E6E6E6",
"y.	c #E5E8EB",
"z.	c #EDBA81",
"A.	c #EEC08D",
"B.	c #F2B470",
"C.	c #F07E05",
"D.	c #F39905",
"E.	c #F2AC43",
"F.	c #EDB980",
"G.	c #ECB87F",
"H.	c #ECB67A",
"I.	c #F2D9BF",
"J.	c #E9E6E3",
"K.	c #E4E2E0",
"L.	c #E7E7E7",
"M.	c #E8E8E8",
"N.	c #E8EAEE",
"O.	c #EDB77D",
"P.	c #EDBD88",
"Q.	c #F2B270",
"R.	c #F07A05",
"S.	c #F39605",
"T.	c #F1A940",
"U.	c #ECB67B",
"V.	c #EBB57A",
"W.	c #ECB57A",
"X.	c #EBB273",
"Y.	c #F4CCA0",
"Z.	c #D7C3AC",
"`.	c #E2E3E4",
" +	c #E9E9E9",
".+	c #EAEAEA",
"++	c #EAEDF0",
"@+	c #ECB477",
"#+	c #EBB579",
"$+	c #EDBA83",
"%+	c #F2B16F",
"&+	c #EF7705",
"*+	c #F29204",
"=+	c #F0A53D",
"-+	c #EBB375",
";+	c #EBB274",
">+	c #D4A674",
",+	c #C9C4BE",
"'+	c #E5E6E6",
")+	c #EBEBEB",
"!+	c #EBEEF2",
"~+	c #EBB171",
"{+	c #ECB77E",
"]+	c #F2AF6F",
"^+	c #EE7405",
"/+	c #F18E04",
"(+	c #F0A13A",
"_+	c #EBB070",
":+	c #EAAF6F",
"<+	c #E7AE6F",
"[+	c #C5B39F",
"}+	c #E1E2E3",
"|+	c #EBEBEC",
"1+	c #EEEDED",
"2+	c #F0EDEB",
"3+	c #EDEDED",
"4+	c #EEEEEE",
"5+	c #EEF1F5",
"6+	c #EAAE6B",
"7+	c #ECB579",
"8+	c #F2AE6E",
"9+	c #ED7005",
"0+	c #F08B04",
"a+	c #EF9E38",
"b+	c #EAAD6B",
"c+	c #E9AD6A",
"d+	c #EAAD69",
"e+	c #D5AA79",
"f+	c #D2D3D5",
"g+	c #ECECED",
"h+	c #F1F0F0",
"i+	c #F2D4B1",
"j+	c #EED6BA",
"k+	c #EFF1F3",
"l+	c #EFEFEF",
"m+	c #EFF3F7",
"n+	c #EAAF67",
"o+	c #E9B069",
"p+	c #E9AF6A",
"q+	c #E9AE6A",
"r+	c #E9AC6A",
"s+	c #ECAE6A",
"t+	c #EBAD6A",
"u+	c #F1AC6E",
"v+	c #ED6C05",
"w+	c #F18704",
"x+	c #EF9A35",
"y+	c #E9AB65",
"z+	c #E9AA64",
"A+	c #ECAA60",
"B+	c #BFB6AD",
"C+	c #E7E8E9",
"D+	c #ECECEC",
"E+	c #EFEFEE",
"F+	c #F1D3AC",
"G+	c #E9AF61",
"H+	c #EDD3B0",
"I+	c #EFF2F6",
"J+	c #EAB161",
"K+	c #EAB164",
"L+	c #E9B164",
"M+	c #E9B064",
"N+	c #EAAF64",
"O+	c #EAAE64",
"P+	c #EAAD64",
"Q+	c #E9AC64",
"R+	c #EAAC64",
"S+	c #E8AA62",
"T+	c #C5945E",
"U+	c #D39C60",
"V+	c #EBAB63",
"W+	c #E8AA64",
"X+	c #EAB06F",
"Y+	c #F1AB6F",
"Z+	c #EC6805",
"`+	c #F08405",
" @	c #EF9735",
".@	c #E8A860",
"+@	c #E7A75F",
"@@	c #E9A85D",
"#@	c #D2A46E",
"$@	c #D9DCDF",
"%@	c #EEEFF0",
"&@	c #F3E6D2",
"*@	c #EAB05B",
"=@	c #ECD3AD",
"-@	c #EDEFF2",
";@	c #EDF0F5",
">@	c #EAB25B",
",@	c #EAB45F",
"'@	c #EBB45F",
")@	c #EBB35F",
"!@	c #EBB25F",
"~@	c #EAB25F",
"{@	c #EAB05F",
"]@	c #E9B05F",
"^@	c #E9AF5F",
"/@	c #EAAE5F",
"(@	c #CDA168",
"_@	c #9D9B99",
":@	c #BCBFC2",
"<@	c #ABAEB3",
"[@	c #A7927A",
"}@	c #E6A65E",
"|@	c #E8A75F",
"1@	c #F0A96F",
"2@	c #EB6404",
"3@	c #F08005",
"4@	c #EE9635",
"5@	c #E8A65B",
"6@	c #E7A759",
"7@	c #EAA855",
"8@	c #CAB69E",
"9@	c #E8E9EA",
"0@	c #EEEFEF",
"a@	c #F2F3F3",
"b@	c #ECBA69",
"c@	c #EAB357",
"d@	c #EAB356",
"e@	c #EBD3AB",
"f@	c #EBEDF0",
"g@	c #EBEEF3",
"h@	c #EBB557",
"i@	c #EBB659",
"j@	c #EBB65A",
"k@	c #EAB55A",
"l@	c #EBB55A",
"m@	c #EAB35A",
"n@	c #EAB25A",
"o@	c #EAB15A",
"p@	c #E4AF5F",
"q@	c #C5BEB6",
"r@	c #E6E6E7",
"s@	c #E6E6E5",
"t@	c #D3D6DA",
"u@	c #BBA182",
"v@	c #EBA656",
"w@	c #E8A459",
"x@	c #E9A963",
"y@	c #EB6105",
"z@	c #EF7D05",
"A@	c #EE9535",
"B@	c #E8A756",
"C@	c #E8A854",
"D@	c #E4A856",
"E@	c #D6D0C7",
"F@	c #F0F1F5",
"G@	c #F0D8AD",
"H@	c #EAB34F",
"I@	c #EAB754",
"J@	c #EBB650",
"K@	c #ECD4A6",
"L@	c #E9EBEE",
"M@	c #EBEDF4",
"N@	c #ECB74E",
"O@	c #ECB954",
"P@	c #ECB854",
"Q@	c #EBB854",
"R@	c #EBB754",
"S@	c #EBB654",
"T@	c #EAB654",
"U@	c #EBB554",
"V@	c #EAB353",
"W@	c #E8BB70",
"X@	c #E2E5EA",
"Y@	c #CFC8BF",
"Z@	c #E3A250",
"`@	c #E7A250",
" #	c #EFC28F",
".#	c #F2AE7D",
"+#	c #E95C03",
"@#	c #EE7906",
"##	c #ED9434",
"$#	c #E8A851",
"%#	c #E8AA4E",
"&#	c #E0AE63",
"*#	c #E3DFD9",
"=#	c #EFF1F5",
"-#	c #ECC06A",
";#	c #EBB84E",
">#	c #ECB94F",
",#	c #EBB94E",
"'#	c #EDC876",
")#	c #ECEDF1",
"!#	c #E7E8E8",
"~#	c #E7E7E8",
"{#	c #E8E9EB",
"]#	c #F0E5CD",
"^#	c #EBBA48",
"/#	c #ECBC4F",
"(#	c #ECBB4F",
"_#	c #EBBB4F",
":#	c #EBBA4F",
"<#	c #EBB84F",
"[#	c #EAB74F",
"}#	c #EAB64E",
"|#	c #EBBD67",
"1#	c #EBEDF2",
"2#	c #D9D6D2",
"3#	c #E4C293",
"4#	c #F1C994",
"5#	c #E49D40",
"6#	c #E2720B",
"7#	c #E95803",
"8#	c #ED7605",
"9#	c #ED9230",
"0#	c #E8AA4D",
"a#	c #E8AB4B",
"b#	c #E1B873",
"c#	c #E7E5E1",
"d#	c #F0F0F0",
"e#	c #EDE8DD",
"f#	c #EBBD56",
"g#	c #ECBB4A",
"h#	c #EBBC4A",
"i#	c #ECBC4A",
"j#	c #ECBF4D",
"k#	c #F1D99E",
"l#	c #EFEBDF",
"m#	c #EFEDE9",
"n#	c #F1E5C7",
"o#	c #EEC761",
"p#	c #ECBF49",
"q#	c #ECBF4A",
"r#	c #EDBF4A",
"s#	c #ECBE49",
"t#	c #ECBD48",
"u#	c #EBBC47",
"v#	c #EBBA46",
"w#	c #EBB946",
"x#	c #EBB848",
"y#	c #ECC062",
"z#	c #EBE9E3",
"A#	c #DDDAD5",
"B#	c #DA9C3E",
"C#	c #DC7E00",
"D#	c #DC7F00",
"E#	c #E37711",
"F#	c #E85503",
"G#	c #ED7306",
"H#	c #EA8517",
"I#	c #E1900D",
"J#	c #E3991B",
"K#	c #E3B86A",
"L#	c #E9E8E5",
"M#	c #ECEDED",
"N#	c #EBE0C8",
"O#	c #ECBF4E",
"P#	c #ECBD44",
"Q#	c #ECBF44",
"R#	c #ECC044",
"S#	c #ECC143",
"T#	c #EDC246",
"U#	c #EDC652",
"V#	c #EFC854",
"W#	c #EEC54A",
"X#	c #EDC242",
"Y#	c #EDC343",
"Z#	c #EDC243",
"`#	c #ECC243",
" $	c #EDC34A",
".$	c #EEC655",
"+$	c #EFCA67",
"@$	c #F1D07B",
"#$	c #F1CD74",
"$$	c #EFC969",
"%$	c #ECC058",
"&$	c #EAE1C9",
"*$	c #DEDBD7",
"=$	c #DDA446",
"-$	c #DE8800",
";$	c #DF8702",
">$	c #E57A13",
",$	c #E85203",
"'$	c #EC7006",
")$	c #E98416",
"!$	c #E18F02",
"~$	c #E19100",
"{$	c #E4B456",
"]$	c #EAE9E6",
"^$	c #E7DDBE",
"/$	c #EABD3E",
"($	c #ECBE3A",
"_$	c #ECC23E",
":$	c #EDC441",
"<$	c #EEC543",
"[$	c #EEC747",
"}$	c #EFC94B",
"|$	c #EFCB4F",
"1$	c #EFCC50",
"2$	c #EFCB4C",
"3$	c #EFC947",
"4$	c #EDC53E",
"5$	c #ECBF2D",
"6$	c #E9B719",
"7$	c #E7AC00",
"8$	c #E5A900",
"9$	c #E5A600",
"0$	c #E5A809",
"a$	c #E8DBB9",
"b$	c #E9E9EA",
"c$	c #DFDDD9",
"d$	c #E0AA4A",
"e$	c #E08D00",
"f$	c #E08C02",
"g$	c #E57D16",
"h$	c #E74E03",
"i$	c #EB6C06",
"j$	c #EA8518",
"k$	c #E19402",
"l$	c #E29600",
"m$	c #E5B54D",
"n$	c #ECEAE5",
"o$	c #EAEAEB",
"p$	c #E0D6B9",
"q$	c #E5B10A",
"r$	c #E8B000",
"s$	c #E8B300",
"t$	c #E8B500",
"u$	c #E9B700",
"v$	c #E9B900",
"w$	c #EAB900",
"x$	c #EABA00",
"y$	c #E9B600",
"z$	c #E8B600",
"A$	c #E8B400",
"B$	c #E7B200",
"C$	c #E7AF00",
"D$	c #E6B00F",
"E$	c #E3DAC1",
"F$	c #E9EAEA",
"G$	c #DFDDD8",
"H$	c #E1AC44",
"I$	c #E19200",
"J$	c #E09102",
"K$	c #E67F18",
"L$	c #E74A03",
"M$	c #EB6905",
"N$	c #EA861A",
"O$	c #E39803",
"P$	c #E29B00",
"Q$	c #E6B33E",
"R$	c #ECE9E2",
"S$	c #D9D7D3",
"T$	c #E6B812",
"U$	c #E9B800",
"V$	c #E9BB00",
"W$	c #EABC00",
"X$	c #EABF00",
"Y$	c #EBC000",
"Z$	c #EBC200",
"`$	c #EBC300",
" %	c #EABE00",
".%	c #EABD00",
"+%	c #E9BA00",
"@%	c #E6B613",
"#%	c #DFDEDB",
"$%	c #E0DCD4",
"%%	c #E3AB34",
"&%	c #E29700",
"*%	c #E29603",
"=%	c #E6821A",
"-%	c #E64703",
";%	c #EA6506",
">%	c #EA861C",
",%	c #E39C03",
"'%	c #E49E00",
")%	c #E7AC1E",
"!%	c #EDE8DC",
"~%	c #DBDEE8",
"{%	c #D7B735",
"]%	c #ECBF00",
"^%	c #ECC300",
"/%	c #ECC500",
"(%	c #ECC700",
"_%	c #EDC800",
":%	c #EDC900",
"<%	c #EDCA00",
"[%	c #EDC700",
"}%	c #ECC400",
"|%	c #EBC100",
"1%	c #EBBC00",
"2%	c #DABA3F",
"3%	c #E4E6F0",
"4%	c #E1DBCE",
"5%	c #E5A717",
"6%	c #E39B00",
"7%	c #E39A03",
"8%	c #E7841C",
"9%	c #E64303",
"0%	c #E96206",
"a%	c #EA871D",
"b%	c #E49F03",
"c%	c #E4A300",
"d%	c #E5A500",
"e%	c #EFE7CF",
"f%	c #EFEFF0",
"g%	c #E5E5E9",
"h%	c #BFB792",
"i%	c #EEC400",
"j%	c #EDCB00",
"k%	c #EECE00",
"l%	c #EECF00",
"m%	c #EED100",
"n%	c #EFD100",
"o%	c #EED200",
"p%	c #EED000",
"q%	c #EDCC00",
"r%	c #ECC800",
"s%	c #EDC100",
"t%	c #C6BFA6",
"u%	c #EEEFF1",
"v%	c #E4DABC",
"w%	c #E5A200",
"x%	c #E49F00",
"y%	c #E39E03",
"z%	c #E7851E",
"A%	c #E43F03",
"B%	c #E85E05",
"C%	c #EA881F",
"D%	c #E5A203",
"E%	c #E5A700",
"F%	c #EED486",
"G%	c #EFF0F4",
"H%	c #E3E3E4",
"I%	c #D5D6DB",
"J%	c #C5AE2E",
"K%	c #F1CE00",
"L%	c #EFD400",
"M%	c #EFD600",
"N%	c #EFD800",
"O%	c #F0D900",
"P%	c #F0D800",
"Q%	c #EFD700",
"R%	c #EFD500",
"S%	c #EFD300",
"T%	c #EDCD00",
"U%	c #F0CC00",
"V%	c #CAB43B",
"W%	c #E3E4EA",
"X%	c #E0E1E5",
"Y%	c #E9CC75",
"Z%	c #E4A400",
"`%	c #E4A103",
" &	c #E7871F",
".&	c #E43B03",
"+&	c #E85B05",
"@&	c #EA8820",
"#&	c #E5A403",
"$&	c #E6A800",
"%&	c #E6AC00",
"&&	c #E9B819",
"*&	c #F2F3F8",
"=&	c #BBB9AD",
"-&	c #DCC20C",
";&	c #F0D400",
">&	c #F0DA00",
",&	c #F1DD00",
"'&	c #F2DF00",
")&	c #F2E000",
"!&	c #F2E100",
"~&	c #F1DE00",
"{&	c #F1DC00",
"]&	c #F0D700",
"^&	c #DEC411",
"/&	c #CCCABE",
"(&	c #F1F1F0",
"_&	c #E5E6EA",
":&	c #E8B30B",
"<&	c #E6AA00",
"[&	c #E6A600",
"}&	c #E5A504",
"|&	c #E88820",
"1&	c #E33802",
"2&	c #E75805",
"3&	c #EA8822",
"4&	c #E6A604",
"5&	c #E7AE00",
"6&	c #E7B000",
"7&	c #F1DF9B",
"8&	c #EDEFF6",
"9&	c #D8D8D9",
"0&	c #B4AF83",
"a&	c #E1CC08",
"b&	c #F5E000",
"c&	c #F1E000",
"d&	c #F2E300",
"e&	c #F3E500",
"f&	c #F3E600",
"g&	c #F3E800",
"h&	c #F3E700",
"i&	c #F3E400",
"j&	c #F2E200",
"k&	c #F1DF00",
"l&	c #F4DF00",
"m&	c #E1CC0D",
"n&	c #C3BE94",
"o&	c #ECECEE",
"p&	c #E3E5ED",
"q&	c #EBD484",
"r&	c #E7AD00",
"s&	c #E6A900",
"t&	c #E6A704",
"u&	c #E98922",
"v&	c #E23402",
"w&	c #E65505",
"x&	c #EA8923",
"y&	c #E6A804",
"z&	c #E6AB00",
"A&	c #EBC01D",
"B&	c #F0EDE3",
"C&	c #D3D3D5",
"D&	c #A6A491",
"E&	c #C9BC15",
"F&	c #FAEB00",
"G&	c #F4E900",
"H&	c #F4EB00",
"I&	c #F4EE00",
"J&	c #F5EF00",
"K&	c #F4E800",
"L&	c #F9EA00",
"M&	c #CABD1C",
"N&	c #B7B6A6",
"O&	c #E8E4D5",
"P&	c #EABF19",
"Q&	c #E6A904",
"R&	c #E98923",
"S&	c #E23102",
"T&	c #E65105",
"U&	c #EB8824",
"V&	c #EFD976",
"W&	c #D6D6D6",
"X&	c #AEAEB3",
"Y&	c #A5A151",
"Z&	c #E1DA11",
"`&	c #EBE705",
" *	c #F0EE01",
".*	c #F4F400",
"+*	c #F0EE02",
"@*	c #EBE706",
"#*	c #E3DC17",
"$*	c #AEAA61",
"%*	c #C5C5CB",
"&*	c #EDD46C",
"**	c #E8B100",
"=*	c #E6AA04",
"-*	c #E98A24",
";*	c #E12D03",
">*	c #E64D04",
",*	c #EB8925",
"'*	c #EBC108",
")*	c #F2E6B2",
"!*	c #E7E9EF",
"~*	c #C4C5CC",
"{*	c #A7A8AC",
"]*	c #ADAC81",
"^*	c #B4B463",
"/*	c #B8B956",
"(*	c #B9BB58",
"_*	c #B8B96A",
":*	c #B7B68E",
"<*	c #BABBC3",
"[*	c #DDDDE4",
"}*	c #E5E7EE",
"|*	c #EEE2A8",
"1*	c #ECC104",
"2*	c #E6AB04",
"3*	c #E98A25",
"4*	c #E12B03",
"5*	c #E54A05",
"6*	c #EB8826",
"7*	c #E7AB00",
"8*	c #ECC405",
"9*	c #F2EAC2",
"0*	c #E5E6EC",
"a*	c #D7D7D7",
"b*	c #CDCDCD",
"c*	c #CFCFD0",
"d*	c #CECED0",
"e*	c #CFCFD1",
"f*	c #D2D2D5",
"g*	c #D8D8DA",
"h*	c #DFDFE1",
"i*	c #E7E8EE",
"j*	c #F1E8B9",
"k*	c #ECC503",
"l*	c #EBBF00",
"m*	c #EA8B26",
"n*	c #E44705",
"o*	c #EA8926",
"p*	c #ECC706",
"q*	c #F2E8B6",
"r*	c #E5E5E6",
"s*	c #DEDEDF",
"t*	c #D5D5D5",
"u*	c #F1E8B2",
"v*	c #EDC906",
"w*	c #E7B100",
"x*	c #EA8C26",
"y*	c #E44404",
"z*	c #EA8827",
"A*	c #E6AD00",
"B*	c #E9B500",
"C*	c #EDCA0A",
"D*	c #F1E183",
"E*	c #EBEBE8",
"F*	c #DFE0E5",
"G*	c #EBECF1",
"H*	c #EFF0EF",
"I*	c #F1E281",
"J*	c #EECC0B",
"K*	c #EA8C27",
"L*	c #E34004",
"M*	c #E5A304",
"N*	c #E8B200",
"O*	c #EABB00",
"P*	c #EDC801",
"Q*	c #EED227",
"R*	c #F3EBBA",
"S*	c #E8E9F0",
"T*	c #DDDDDF",
"U*	c #EEEEF0",
"V*	c #F1F2F9",
"W*	c #F5EEBE",
"X*	c #EFD428",
"Y*	c #EDCB01",
"Z*	c #ECC600",
"`*	c #ECC200",
" =	c #E5A804",
".=	c #EA8D27",
"+=	c #E23D04",
"@=	c #EA8727",
"#=	c #E4A104",
"$=	c #E5A300",
"%=	c #F2D93E",
"&=	c #F5EDB6",
"*=	c #EEECDD",
"==	c #E7E6DE",
"-=	c #E4E4E3",
";=	c #E5E6E8",
">=	c #E7E8EA",
",=	c #E9E9EB",
"'=	c #EBECEE",
")=	c #F2F1E9",
"!=	c #F5F3E4",
"~=	c #F7EFBB",
"{=	c #F2DB3F",
"]=	c #ECC900",
"^=	c #E5A505",
"/=	c #EA8D28",
"(=	c #E23C07",
"_=	c #EB8528",
":=	c #E49D05",
"<=	c #E5A400",
"[=	c #E5A800",
"}=	c #EFD016",
"|=	c #F2DB49",
"1=	c #F3E16B",
"2=	c #F3E480",
"3=	c #F3E68F",
"4=	c #F4E78E",
"5=	c #F4E582",
"6=	c #F4E36E",
"7=	c #F3DD49",
"8=	c #F0D317",
"9=	c #E5A305",
"0=	c #EA8B29",
"a=	c #E12C03",
"b=	c #E04D21",
"c=	c #EE8F48",
"d=	c #E49C08",
"e=	c #E6A700",
"f=	c #EBBE00",
"g=	c #E5A30B",
"h=	c #ED8A3E",
"i=	c #DC2C07",
"j=	c #D8411E",
"k=	c #E97450",
"l=	c #F0B053",
"m=	c #E69F12",
"n=	c #E59F0A",
"o=	c #E6A60B",
"p=	c #E7A90B",
"q=	c #E8AC0B",
"r=	c #E8AF0B",
"s=	c #E9B20B",
"t=	c #EAB50B",
"u=	c #EAB70B",
"v=	c #EBBA0B",
"w=	c #EBBC0B",
"x=	c #ECBE0B",
"y=	c #ECC00B",
"z=	c #ECC10B",
"A=	c #ECC20B",
"B=	c #ECC30B",
"C=	c #ECC40B",
"D=	c #EDC20B",
"E=	c #EBBD0B",
"F=	c #EBB80B",
"G=	c #E9B30B",
"H=	c #E9B00B",
"I=	c #E8AD0B",
"J=	c #E7AA0B",
"K=	c #E6A70B",
"L=	c #E6A30A",
"M=	c #E6A413",
"N=	c #F1B450",
"O=	c #E45229",
"P=	c #D42403",
"Q=	c #CF2309",
"R=	c #DD4F2E",
"S=	c #E36141",
"T=	c #E66E37",
"U=	c #E46925",
"V=	c #E46A27",
"W=	c #E56A27",
"X=	c #E56B27",
"Y=	c #E56C27",
"Z=	c #E56D27",
"`=	c #E46B27",
" -	c #E77137",
".-	c #E04A25",
"+-	c #D9300D",
"@-	c #CD1700",
"#-	c #CE1B03",
"$-	c #D52A0A",
"%-	c #D72D07",
"&-	c #D62400",
"*-	c #D72500",
"=-	c #D72600",
"--	c #D72700",
";-	c #D82C06",
"                                                                                                ",
"                                                                                                ",
"                                                                                                ",
"          . + @ # # # # $ % % & * * * * * = = - ; - - > , > ' ' ) ) ) ! ~ { { ] ^ / (           ",
"        _ : < [ } } | | 1 | 2 3 3 3 3 3 3 4 5 6 6 6 6 6 7 7 7 8 8 8 8 9 0 a a b c d e f         ",
"      g h i j k k k k k k k k k k k k k k k l l k k k k l k k k k k k k k k k k m n o p q       ",
"      r s t u u v w x x x x x x x x x x x w w u u u u u u u u u u u u u u u u u u u y z A       ",
"      B C D E F G H I J K L M M N O P Q Q R S T E F F F F F F F F F F F F F F F F F U V W       ",
"      X Y Z `  ...+.@.#.$.$.%.&.*.*.=.-.-.;.>.,.` ` ` ` ` ` ` ` ` ` ` ` ` ` ` ` ` ` '.).!.      ",
"      ~.{.].^./.(._._.:.<.[.}.|.1.2.2.3.3.3.4.5.6.7.7.7.7.7.7.7.7.7.7.7.7.7.7.7.7.7.8.9.0.      ",
"      a.b.c.d.e.f._.g.<.}.|.1.2.3.3.h.h.i.i.j.k.l.m.n.n.n.n.n.n.n.n.n.n.n.n.n.n.n.n.o.p.q.      ",
"      r.s.t.u.v.w.g.[.}.1.2.3.3.i.i.j.j.j.j.x.y.z.u.u.u.u.u.u.u.u.u.u.u.u.u.u.u.u.u.A.B.C.      ",
"      D.E.F.G.H.I.J.K.K.2.3.i.j.x.L.L.L.M.M.M.N.O.G.G.G.G.G.G.G.G.G.G.G.G.G.G.G.G.G.P.Q.R.      ",
"      S.T.U.V.W.X.^.Y.Z.`.i.x.L.L.M. + +.+.+.+++@+#+V.V.V.V.V.V.V.V.V.V.V.V.V.V.V.V.$+%+&+      ",
"      *+=+-+;+;+;+X.>+,+'+x.L. + +.+.+)+)+)+)+!+~+;+;+;+;+;+;+;+;+;+;+;+;+;+;+;+;+;+{+]+^+      ",
"      /+(+_+:+:+:+<+[+}+L.M..+.+|+1+2+3+4+4+4+5+6+:+:+:+:+:+:+:+:+:+:+:+:+:+:+:+:+:+7+8+9+      ",
"      0+a+b+c+c+d+e+f+L.M. +)+g+h+i+j+k+l+l+l+m+n+o+p+p+p+q+q+c+c+r+r+d+s+t+d+c+c+c+;+u+v+      ",
"      w+x+y+z+z+A+B+C+M..+D+3+E+F+G+H+k+l+l+l+I+J+K+K+L+M+M+N+O+P+Q+R+S+T+U+V+W+z+z+X+Y+Z+      ",
"      `+ @.@+@@@#@$@ +.+D+3+%@&@*@*@=@-@3+3+3+;@>@,@'@)@!@~@{@]@^@/@(@_@:@<@[@}@|@+@c+1@2@      ",
"      3@4@5@6@7@8@9@.+D+3+0@a@b@c@d@e@f@)+.+)+g@h@i@j@k@k@l@m@n@o@p@q@r@s@j.t@u@v@w@x@1@y@      ",
"      z@A@B@C@D@E@.+)+3+l+F@G@H@I@J@K@L@ + + +M@N@O@P@Q@R@S@T@U@V@W@X@x.i.3.2.Y@Z@`@ #.#+#      ",
"      @###$#%#&#*#.+3+l+l+=#-#;#>#,#'#)#!#~#{#]#^#/#(#_#:#>#<#[#}#|#1#L.i.h.1.2#3#4#5#6#7#      ",
"      8#9#0#a#b#c#)+4+d#4+e#f#g#h#i#j#k#l#m#n#o#p#q#r#s#t#u#v#w#x#y#z#M.j.h.2.A#B#C#D#E#F#      ",
"      G#H#I#J#K#L#3+l+l+M#N#O#P#Q#R#S#T#U#V#W#X#Y#Z#`# $.$+$@$#$$$%$&$ +x.i.2.*$=$-$;$>$,$      ",
"      '$)$!$~${$]$3+l+4+|+^$/$($_$:$<$[$}$|$1$|$1$2$3$4$5$6$7$8$9$0$a$b$x.i.3.c$d$e$f$g$h$      ",
"      i$j$k$l$m$n$4+l+D+o$p$q$r$s$t$u$v$v$w$x$x$x$w$v$u$y$z$A$B$C$D$E$F$L.j.3.G$H$I$J$K$L$      ",
"      M$N$O$P$Q$R$l+4+)+ +S$T$U$V$W$X$Y$Z$`$`$`$`$Z$Z$Y$ %.%+%U$z$@%#%.+L.i.3.$%%%&%*%=%-%      ",
"      ;%>%,%'%)%!%d#3+.+L.~%{%]%Y$^%/%(%_%:%<%<%<%:%:%[%/%}%|% %1%2%3%.+L.i.2.4%5%6%7%8%9%      ",
"      0%a%b%c%d%e%f%3+ +x.g%h%i%(%:%j%k%l%m%n%o%n%m%p%k%q%<%r%/%s%t%u%.+L.h.2.v%w%x%y%z%A%      ",
"      B%C%D%9$E%F%G%D+ +j.H%I%J%K%k%o%L%M%N%O%O%O%P%Q%R%S%p%T%U%V%W%3+ +x.h.X%Y%d%Z%`% &.&      ",
"      +&@&#&$&%&&&*&D+M.j.3.2.=&-&;&P%>&,&'&)&!&)&'&~&{&O%]&S%^&/&(&)+ +x.3._&:&<&[&}&|&1&      ",
"      2&3&4&<&5&6&7&8&M.j.2.}.9&0&a&b&c&d&e&f&g&g&h&i&j&k&l&m&n&o&4+)+M.j.p&q&6&r&s&t&u&v&      ",
"      w&x&y&z&6&t$A&B& +j.2.}.g.C&D&E&F&G&H&I&J&J&I&H&K&L&M&N&b$d#3+.+L.H%O&P&A$C$z&Q&R&S&      ",
"      T&U&y&7$r$t$x$V&)+j.2.}.g.W&W&X&Y&Z&`& *.*.*+*@*#*$*%*3+4+l+D+ +s@j.&*x$t$**7$=*-*;*      ",
"      >*,*y&7$**t$x$'*)*!*3.}.g.W&-.=.~*{*]*^*/*(*_*:*<*[*)+)+l+3+)+L.}*|*1*x$z$B$7$2*3*4*      ",
"      5*6*y&7*6&A$w$.%8*9*0*1.<.a*-.%.b*$.c*d*e*f*g*h*i.L..+4+l+D+ +i*j*k*l*x$z$B$7$2*m*4*      ",
"      n*o*t&<&5&s$U$W$|%p*q*r*s*_.t*=.$.&.=.W&_.<.|.3.x. +D+l+3+.+b$u*v*`$ %x$t$w*7$2*x*4*      ",
"      y*z*}&$&A*w*B*+% %Z$C*D*E*F*_.a*t*t*a*_.<.|.3.j. +D+l+4+G*H*I*J*/%|%.%U$A$C$z&=*K*4*      ",
"      L*z*M*d%<&5&N*y$O*l*^%P*Q*R*S*T*g.:.<.}.1.h.x. +)+l+U*V*W*X*Y*Z*`* %x$B*w*r&$& =.=4*      ",
"      +=@=#=$=E%z&6&A$U$O*X$`$Z*r%%=&=*===-=;=>=,='=E+)=!=~={=<%]=Z*Z$l*V$u$s$C$z&E%^=/=4*      ",
"      (=_=:=x%<=[=z&C$s$y$x$ %|%}%Z*_%}=|=1=2=3=4=5=6=7=8=j%:%(%}%|% %O*u$s$6&%&$&$=9=0=a=      ",
"      b=c=d=6%x%$=e=z&5&N*t$U$W$ %|%}%/%(%_%<%Y*Y*<%:%:%(%/%}%|%f=W$v$y$N*C$7*e=$=x%g=h=i=      ",
"      j=k=l=m=n=g=o=p=q=r=s=t=u=v=w=x=y=z=A=B=C=C=C=B=B=D=z=x=E=v=F=t=G=H=I=J=K=L=M=N=O=P=      ",
"      Q=R=S=T=U=V=V=W=X=X=X=Y=Y=Y=Y=Y=Z=Z=Z=Z=Z=Z=Z=Z=Z=Z=Z=Z=Y=Y=Y=Y=X=X=X=W=W=`= -.-+-@-      ",
"        #-$-%-&-&-&-*-*-*-*-*-*-*-*-*-=-=-=-=-=-=-=-=-=-=-=-=-=-=-=-=-=-=-=-=-=---;-P=@-        ",
"                                                                                                ",
"                                                                                                ",
"                                                                                                "};
