/* XPM */
static char * system_suspend_xpm[] = {
"48 48 853 2",
"  	c None",
". 	c #E5E5E4",
"+ 	c #EDEDED",
"@ 	c #EDEDEC",
"# 	c #C9C9C7",
"$ 	c #D7D7D5",
"% 	c #D8D8D6",
"& 	c #D9D9D7",
"* 	c #BDBDBB",
"= 	c #D4D5D2",
"- 	c #D7D8D5",
"; 	c #DADAD8",
"> 	c #CECFCC",
", 	c #CCCDCA",
"' 	c #B9BAB7",
") 	c #D0D1CE",
"! 	c #D6D7D4",
"~ 	c #898989",
"{ 	c #141416",
"] 	c #0F0F0F",
"^ 	c #B5B6B3",
"/ 	c #D3D4D1",
"( 	c #6D6D70",
"_ 	c #161A36",
": 	c #51566E",
"< 	c #51566D",
"[ 	c #B1B1AF",
"} 	c #C7C8C6",
"| 	c #CFCFCC",
"1 	c #696973",
"2 	c #333750",
"3 	c #494D64",
"4 	c #484C63",
"5 	c #484C64",
"6 	c #484C65",
"7 	c #484D65",
"8 	c #C8C8C6",
"9 	c #ACACA9",
"0 	c #C3C3C0",
"a 	c #CACAC7",
"b 	c #676671",
"c 	c #2F334C",
"d 	c #464B61",
"e 	c #454A61",
"f 	c #454A62",
"g 	c #454B62",
"h 	c #444A61",
"i 	c #44485F",
"j 	c #44485E",
"k 	c #44475E",
"l 	c #444960",
"m 	c #464B63",
"n 	c #464B62",
"o 	c #A7A8A4",
"p 	c #BEBFBB",
"q 	c #C5C6C1",
"r 	c #64646F",
"s 	c #2C304B",
"t 	c #41465F",
"u 	c #40455E",
"v 	c #40455F",
"w 	c #40465F",
"x 	c #40445B",
"y 	c #3F4359",
"z 	c #3F4358",
"A 	c #3F435A",
"B 	c #41455E",
"C 	c #41475F",
"D 	c #42475F",
"E 	c #A2A39F",
"F 	c #B9BAB6",
"G 	c #BFC0BC",
"H 	c #62626D",
"I 	c #292E4A",
"J 	c #3D425C",
"K 	c #3C425B",
"L 	c #3C425C",
"M 	c #3B4058",
"N 	c #3A3F56",
"O 	c #393F54",
"P 	c #393E54",
"Q 	c #393E55",
"R 	c #3A3F55",
"S 	c #3B4057",
"T 	c #3C4158",
"U 	c #3D435C",
"V 	c #3D445E",
"W 	c #3D445D",
"X 	c #3E445D",
"Y 	c #3E445C",
"Z 	c #3D435D",
"` 	c #3C435C",
" .	c #9E9E9A",
"..	c #B4B4B0",
"+.	c #BBBBB6",
"@.	c #605F6B",
"#.	c #262A47",
"$.	c #383D57",
"%.	c #373C57",
"&.	c #373D58",
"*.	c #373C58",
"=.	c #363B52",
"-.	c #353951",
";.	c #363A51",
">.	c #363A52",
",.	c #383D54",
"'.	c #3A4059",
").	c #3B405C",
"!.	c #3B405B",
"~.	c #3A405A",
"{.	c #3A3F59",
"].	c #393E59",
"^.	c #393E58",
"/.	c #9A9B97",
"(.	c #B0B1AD",
"_.	c #B7B8B3",
":.	c #5D5D6B",
"<.	c #222846",
"[.	c #333955",
"}.	c #323854",
"|.	c #323855",
"1.	c #323955",
"2.	c #31364F",
"3.	c #30354E",
"4.	c #30354C",
"5.	c #31364D",
"6.	c #31374E",
"7.	c #32374E",
"8.	c #32384F",
"9.	c #333951",
"0.	c #343951",
"a.	c #3E435E",
"b.	c #383E5A",
"c.	c #373D59",
"d.	c #363C57",
"e.	c #353B56",
"f.	c #343A56",
"g.	c #232947",
"h.	c #979793",
"i.	c #ADADA9",
"j.	c #B3B4AF",
"k.	c #5C5C69",
"l.	c #212645",
"m.	c #303653",
"n.	c #303652",
"o.	c #2F3653",
"p.	c #2E334F",
"q.	c #2D324B",
"r.	c #2C314B",
"s.	c #2D314A",
"t.	c #2D314B",
"u.	c #2C314A",
"v.	c #2E334C",
"w.	c #2F344C",
"x.	c #30354D",
"y.	c #31374F",
"z.	c #32374F",
"A.	c #323750",
"B.	c #535971",
"C.	c #363D59",
"D.	c #363C58",
"E.	c #353B58",
"F.	c #343A57",
"G.	c #333856",
"H.	c #313854",
"I.	c #212745",
"J.	c #5C5C6A",
"K.	c #93938F",
"L.	c #AAAAA6",
"M.	c #B0B0AC",
"N.	c #5B5A69",
"O.	c #1E2444",
"P.	c #2C3251",
"Q.	c #2C3252",
"R.	c #2B324F",
"S.	c #292F4A",
"T.	c #292F49",
"U.	c #2A2F49",
"V.	c #2A304A",
"W.	c #2E334B",
"X.	c #30344E",
"Y.	c #30364E",
"Z.	c #313750",
"`.	c #3F445C",
" +	c #999CAA",
".+	c #3D4460",
"++	c #363C5A",
"@+	c #323956",
"#+	c #323755",
"$+	c #2F3553",
"%+	c #1F2445",
"&+	c #5A5A69",
"*+	c #8F908B",
"=+	c #A6A7A2",
"-+	c #ADAEA8",
";+	c #595868",
">+	c #1C2243",
",+	c #292F4F",
"'+	c #282E4F",
")+	c #282F4F",
"!+	c #272D4A",
"~+	c #252B46",
"{+	c #262C47",
"]+	c #282D48",
"^+	c #2A2F4A",
"/+	c #2C304C",
"(+	c #2E334D",
"_+	c #303650",
":+	c #323751",
"<+	c #383C56",
"[+	c #B5B6C0",
"}+	c #5D627B",
"|+	c #363B5A",
"1+	c #343A58",
"2+	c #323957",
"3+	c #2E3554",
"4+	c #2E3353",
"5+	c #1D2345",
"6+	c #8C8D88",
"7+	c #A3A39F",
"8+	c #A9AAA5",
"9+	c #575868",
"0+	c #1A2144",
"a+	c #262E4F",
"b+	c #262E4E",
"c+	c #272E4F",
"d+	c #242A47",
"e+	c #242A45",
"f+	c #242A46",
"g+	c #242946",
"h+	c #262C48",
"i+	c #282F49",
"j+	c #2B314C",
"k+	c #2E344E",
"l+	c #313751",
"m+	c #343952",
"n+	c #BDBFC8",
"o+	c #9599A9",
"p+	c #313757",
"q+	c #353B5B",
"r+	c #323958",
"s+	c #2F3655",
"t+	c #2C3353",
"u+	c #2A3152",
"v+	c #1C2345",
"w+	c #898A84",
"x+	c #A0A19B",
"y+	c #A6A7A0",
"z+	c #555767",
"A+	c #191F44",
"B+	c #252B4F",
"C+	c #252B4E",
"D+	c #252C50",
"E+	c #24294C",
"F+	c #222745",
"G+	c #222744",
"H+	c #212744",
"I+	c #222845",
"J+	c #252A47",
"K+	c #2B314D",
"L+	c #2F3450",
"M+	c #333853",
"N+	c #454B63",
"O+	c #C2C4CD",
"P+	c #E5E5EA",
"Q+	c #282E51",
"R+	c #353C5E",
"S+	c #33385A",
"T+	c #2F3456",
"U+	c #2B3253",
"V+	c #282F52",
"W+	c #1A2145",
"X+	c #555667",
"Y+	c #858681",
"Z+	c #9C9D98",
"`+	c #A2A39D",
" @	c #545666",
".@	c #171E45",
"+@	c #21294D",
"@@	c #21284D",
"#@	c #21284C",
"$@	c #222950",
"%@	c #202749",
"&@	c #1E2644",
"*@	c #1E2544",
"=@	c #1F2645",
"-@	c #202745",
";@	c #242A48",
">@	c #272E4B",
",@	c #2B314E",
"'@	c #333A55",
")@	c #373C59",
"!@	c #53586F",
"~@	c #D0D1D8",
"{@	c #FFFFFF",
"]@	c #3B4263",
"^@	c #353B5E",
"/@	c #32395A",
"(@	c #2E3558",
"_@	c #293154",
":@	c #272E51",
"<@	c #1A2146",
"[@	c #535667",
"}@	c #83847F",
"|@	c #999A96",
"1@	c #525566",
"2@	c #161E45",
"3@	c #20284D",
"4@	c #1F284D",
"5@	c #1F274D",
"6@	c #202950",
"7@	c #1E2548",
"8@	c #1C2344",
"9@	c #1D2343",
"0@	c #1D2243",
"a@	c #1D2344",
"b@	c #1E2445",
"c@	c #202646",
"d@	c #232948",
"e@	c #282E4C",
"f@	c #2D3250",
"g@	c #828596",
"h@	c #E5E6E9",
"i@	c #626782",
"j@	c #333A5D",
"k@	c #31395C",
"l@	c #2D3558",
"m@	c #293054",
"n@	c #262C52",
"o@	c #192147",
"p@	c #525567",
"q@	c #999B96",
"r@	c #80817C",
"s@	c #989893",
"t@	c #9E9E98",
"u@	c #515466",
"v@	c #161E46",
"w@	c #1F274E",
"x@	c #202851",
"y@	c #1C2348",
"z@	c #1B2243",
"A@	c #1B2244",
"B@	c #1D2445",
"C@	c #202748",
"D@	c #242B4B",
"E@	c #2A314F",
"F@	c #303553",
"G@	c #383E5B",
"H@	c #494E69",
"I@	c #C3C5CE",
"J@	c #F6F6F7",
"K@	c #686E88",
"L@	c #333A60",
"M@	c #32385D",
"N@	c #2D3459",
"O@	c #283055",
"P@	c #242B53",
"Q@	c #182048",
"R@	c #7E7F7A",
"S@	c #949590",
"T@	c #9A9B95",
"U@	c #4F5466",
"V@	c #141D46",
"W@	c #1B244D",
"X@	c #1B244E",
"Y@	c #1C254F",
"Z@	c #1A2348",
"`@	c #171F42",
" #	c #181F42",
".#	c #182043",
"+#	c #192143",
"@#	c #1A2245",
"##	c #1C2446",
"$#	c #1F2748",
"%#	c #252C4C",
"&#	c #2C3352",
"*#	c #373D5C",
"=#	c #393F5D",
"-#	c #828699",
";#	c #D8DADF",
">#	c #FEFEFE",
",#	c #464E6F",
"'#	c #353C61",
")#	c #31395E",
"!#	c #2A3359",
"~#	c #252D54",
"{#	c #212952",
"]#	c #151F48",
"^#	c #7C7D77",
"/#	c #93948E",
"(#	c #999992",
"_#	c #121B47",
":#	c #18214C",
"<#	c #18214D",
"[#	c #19224E",
"}#	c #172049",
"|#	c #151C41",
"1#	c #141C41",
"2#	c #151D42",
"3#	c #161E42",
"4#	c #192145",
"5#	c #1C2447",
"6#	c #21294B",
"7#	c #262E50",
"8#	c #2E3455",
"9#	c #343B5B",
"0#	c #3A415F",
"a#	c #4A506C",
"b#	c #A0A3B2",
"c#	c #EFEFF2",
"d#	c #F1F1F3",
"e#	c #2C345C",
"f#	c #353D63",
"g#	c #2D355D",
"h#	c #272F57",
"i#	c #212A53",
"j#	c #1D2550",
"k#	c #141C48",
"l#	c #7A7B75",
"m#	c #91928C",
"n#	c #979890",
"o#	c #4E5367",
"p#	c #131D4A",
"q#	c #19234F",
"r#	c #19224F",
"s#	c #182250",
"t#	c #192350",
"u#	c #151E45",
"v#	c #141D43",
"w#	c #151E43",
"x#	c #151E44",
"y#	c #161E44",
"z#	c #161F44",
"A#	c #172045",
"B#	c #182146",
"C#	c #192247",
"D#	c #1C2449",
"E#	c #1E274B",
"F#	c #222B4E",
"G#	c #283053",
"H#	c #2D3557",
"I#	c #353C5D",
"J#	c #3C4363",
"K#	c #424967",
"L#	c #7D8296",
"M#	c #C3C5CF",
"N#	c #AAADBE",
"O#	c #333C64",
"P#	c #343D64",
"Q#	c #2D355F",
"R#	c #27315B",
"S#	c #212B56",
"T#	c #1E2753",
"U#	c #141E4B",
"V#	c #4E5467",
"W#	c #797A74",
"X#	c #8F908A",
"Y#	c #94958E",
"Z#	c #141D4D",
"`#	c #1B2452",
" $	c #1A2453",
".$	c #1B2453",
"+$	c #172047",
"@$	c #181F47",
"#$	c #1A2248",
"$$	c #1B234A",
"%$	c #1C244A",
"&$	c #1F264D",
"*$	c #222A4F",
"=$	c #262D52",
"-$	c #2A3155",
";$	c #30375A",
">$	c #3C4364",
",$	c #454B6B",
"'$	c #71768F",
")$	c #BDBFCA",
"!$	c #E8E9ED",
"~$	c #696F8F",
"{$	c #3B436C",
"]$	c #343C65",
"^$	c #2C345F",
"/$	c #27305B",
"($	c #212A57",
"_$	c #1E2754",
":$	c #161F4E",
"<$	c #787973",
"[$	c #94958D",
"}$	c #4E5368",
"|$	c #152050",
"1$	c #1C2656",
"2$	c #1B2655",
"3$	c #1B2656",
"4$	c #1C2556",
"5$	c #1C2657",
"6$	c #19224B",
"7$	c #192049",
"8$	c #1A2249",
"9$	c #1A224B",
"0$	c #1C234C",
"a$	c #1D244D",
"b$	c #212950",
"c$	c #242B52",
"d$	c #273056",
"e$	c #2C3359",
"f$	c #31395D",
"g$	c #373E62",
"h$	c #3D4467",
"i$	c #42486A",
"j$	c #868A9F",
"k$	c #C6C8D2",
"l$	c #DFE1E6",
"m$	c #FBFBFC",
"n$	c #D9DAE2",
"o$	c #4A537A",
"p$	c #3A436D",
"q$	c #323B67",
"r$	c #2B3562",
"s$	c #26305D",
"t$	c #212B5A",
"u$	c #1F2857",
"v$	c #162051",
"w$	c #8E8F89",
"x$	c #4F546A",
"y$	c #172154",
"z$	c #1D2659",
"A$	c #1C2659",
"B$	c #1C265A",
"C$	c #1D275A",
"D$	c #1E285B",
"E$	c #1A2351",
"F$	c #1B234D",
"G$	c #1C244E",
"H$	c #1E254F",
"I$	c #232A52",
"J$	c #252C55",
"K$	c #293058",
"L$	c #2D355B",
"M$	c #33395F",
"N$	c #383F64",
"O$	c #3E4569",
"P$	c #444A6E",
"Q$	c #83889E",
"R$	c #CCCED7",
"S$	c #E0E0E6",
"T$	c #F1F2F4",
"U$	c #FCFCFD",
"V$	c #FAFAFB",
"W$	c #7D83A0",
"X$	c #3E4672",
"Y$	c #38416E",
"Z$	c #313A68",
"`$	c #2A3363",
" %	c #262F60",
".%	c #212B5D",
"+%	c #202A5A",
"@%	c #172155",
"#%	c #4F556C",
"$%	c #172258",
"%%	c #1E295D",
"&%	c #1E295E",
"*%	c #1F2A60",
"=%	c #1E295B",
"-%	c #1C2552",
";%	c #1D2652",
">%	c #1E2752",
",%	c #1F2853",
"'%	c #222C56",
")%	c #262F58",
"!%	c #29335B",
"~%	c #2E375F",
"{%	c #323B62",
"]%	c #384066",
"^%	c #3E466B",
"/%	c #6A708C",
"(%	c #8A8EA5",
"_%	c #CACCD6",
":%	c #ECECF0",
"<%	c #BFC2D0",
"[%	c #3D4775",
"}%	c #3C4673",
"|%	c #343E6E",
"1%	c #2E3868",
"2%	c #293365",
"3%	c #242F61",
"4%	c #212B5F",
"5%	c #202B5E",
"6%	c #182359",
"7%	c #50566E",
"8%	c #18245B",
"9%	c #1E2A60",
"0%	c #202B62",
"a%	c #212D64",
"b%	c #202B5F",
"c%	c #1E2856",
"d%	c #1F2956",
"e%	c #222C58",
"f%	c #262F5A",
"g%	c #29325D",
"h%	c #2D3660",
"i%	c #303962",
"j%	c #343E66",
"k%	c #434B70",
"l%	c #767D98",
"m%	c #B5B9C7",
"n%	c #DADCE3",
"o%	c #FDFDFD",
"p%	c #BFC2D2",
"q%	c #424C7A",
"r%	c #3F4978",
"s%	c #384272",
"t%	c #323C6E",
"u%	c #2C3769",
"v%	c #273266",
"w%	c #232F64",
"x%	c #222C61",
"y%	c #202C61",
"z%	c #93948D",
"A%	c #50566F",
"B%	c #1A265E",
"C%	c #1F2B63",
"D%	c #202B63",
"E%	c #212C65",
"F%	c #212D65",
"G%	c #232F67",
"H%	c #2A356A",
"I%	c #2D3664",
"J%	c #1B2556",
"K%	c #1E2957",
"L%	c #262F5D",
"M%	c #2A335F",
"N%	c #3A436C",
"O%	c #737896",
"P%	c #AFB2C3",
"Q%	c #D6D8E0",
"R%	c #EBECF0",
"S%	c #FCFCFC",
"T%	c #A7ACC1",
"U%	c #4B5582",
"V%	c #414B7B",
"W%	c #3B4576",
"X%	c #343F71",
"Y%	c #2E396D",
"Z%	c #263268",
"`%	c #222E65",
" &	c #222D65",
".&	c #212C64",
"+&	c #90918B",
"@&	c #95968F",
"#&	c #525872",
"$&	c #1B2763",
"%&	c #222E68",
"&&	c #232F69",
"*&	c #232F6A",
"=&	c #25306B",
"-&	c #25326C",
";&	c #3A447A",
">&	c #787F9F",
",&	c #878CA8",
"'&	c #7F84A1",
")&	c #A9ADC0",
"!&	c #CCCDD9",
"~&	c #DDDEE5",
"{&	c #EEEEF2",
"]&	c #E6E7EE",
"^&	c #8990AE",
"/&	c #3D487C",
"(&	c #424D7F",
"_&	c #3B467B",
":&	c #364176",
"<&	c #313D73",
"[&	c #2C386F",
"}&	c #28346D",
"|&	c #25326B",
"1&	c #222F69",
"2&	c #969790",
"3&	c #535975",
"4&	c #1D2967",
"5&	c #232F6C",
"6&	c #222E6B",
"7&	c #24306D",
"8&	c #24306C",
"9&	c #26316E",
"0&	c #273470",
"a&	c #283470",
"b&	c #2F3B76",
"c&	c #5B6492",
"d&	c #A4A9C2",
"e&	c #D2D5E1",
"f&	c #ECEEF2",
"g&	c #FAFBFB",
"h&	c #F2F3F6",
"i&	c #DBDEE6",
"j&	c #B4B8CD",
"k&	c #7F86AA",
"l&	c #4C5688",
"m&	c #3E4980",
"n&	c #414B81",
"o&	c #3C467D",
"p&	c #364179",
"q&	c #323D76",
"r&	c #2D3973",
"s&	c #2A3670",
"t&	c #27336F",
"u&	c #25316D",
"v&	c #92938D",
"w&	c #989991",
"x&	c #545B78",
"y&	c #1E2B6A",
"z&	c #23306F",
"A&	c #24306F",
"B&	c #243170",
"C&	c #253270",
"D&	c #273270",
"E&	c #273472",
"F&	c #2A3674",
"G&	c #2D3977",
"H&	c #2D3B77",
"I&	c #323E7B",
"J&	c #3F4A82",
"K&	c #4C568A",
"L&	c #5B6493",
"M&	c #5D6797",
"N&	c #566092",
"O&	c #4D588C",
"P&	c #465187",
"Q&	c #414D84",
"R&	c #414C83",
"S&	c #3E4A81",
"T&	c #3A467E",
"U&	c #36427C",
"V&	c #323E78",
"W&	c #2E3B77",
"X&	c #2B3874",
"Y&	c #293572",
"Z&	c #273371",
"`&	c #263270",
" *	c #24316F",
".*	c #7E7F79",
"+*	c #959690",
"@*	c #9A9B94",
"#*	c #565D7B",
"$*	c #1F2D6E",
"%*	c #263373",
"&*	c #263474",
"**	c #273574",
"=*	c #283574",
"-*	c #293675",
";*	c #2A3877",
">*	c #2F3B7A",
",*	c #32407C",
"'*	c #35427E",
")*	c #394580",
"!*	c #3A4682",
"~*	c #3D4983",
"{*	c #3E4A84",
"]*	c #3F4B83",
"^*	c #3E4B84",
"/*	c #3B4782",
"(*	c #38457F",
"_*	c #36427D",
":*	c #323F7C",
"<*	c #2F3C79",
"[*	c #2C3977",
"}*	c #2A3776",
"|*	c #283576",
"1*	c #273474",
"2*	c #253374",
"3*	c #979792",
"4*	c #9C9D95",
"5*	c #58607E",
"6*	c #212F73",
"7*	c #273578",
"8*	c #263477",
"9*	c #273579",
"0*	c #283678",
"a*	c #293779",
"b*	c #2A387A",
"c*	c #2D3A7B",
"d*	c #2E3C7C",
"e*	c #313E7E",
"f*	c #334080",
"g*	c #354281",
"h*	c #374482",
"i*	c #384684",
"j*	c #3A4785",
"k*	c #394684",
"l*	c #394683",
"m*	c #384482",
"n*	c #364381",
"o*	c #344180",
"p*	c #2F3C7D",
"q*	c #2D3A7C",
"r*	c #2B387A",
"s*	c #293679",
"t*	c #263478",
"u*	c #82837E",
"v*	c #999A94",
"w*	c #9FA098",
"x*	c #596180",
"y*	c #223078",
"z*	c #29377D",
"A*	c #2A387D",
"B*	c #2A387E",
"C*	c #2C397E",
"D*	c #2C3A7F",
"E*	c #2D3B80",
"F*	c #2F3C80",
"G*	c #313E82",
"H*	c #334182",
"I*	c #344283",
"J*	c #354284",
"K*	c #374484",
"L*	c #364384",
"M*	c #354283",
"N*	c #303D80",
"O*	c #2E3C80",
"P*	c #2B397E",
"Q*	c #858680",
"R*	c #9C9D97",
"S*	c #A1A29A",
"T*	c #757A90",
"U*	c #2E3B7D",
"V*	c #2C397C",
"W*	c #2C397B",
"X*	c #2C3A7D",
"Y*	c #2D3A7D",
"Z*	c #2D3B7D",
"`*	c #2E3B7E",
" =	c #2E3C7E",
".=	c #303D7F",
"+=	c #313F7F",
"@=	c #323F80",
"#=	c #344081",
"$=	c #354181",
"%=	c #333F80",
"&=	c #303E7F",
"*=	c #2F3C7E",
"==	c #2D3B7C",
"-=	c #2D397C",
";=	c #A3A49E",
">=	c #A8A9A2",
",=	c #ADAEAD",
"'=	c #ADAEAE",
")=	c #AEAFAE",
"!=	c #AEAFAF",
"~=	c #AEB0AF",
"{=	c #AFB1B0",
"]=	c #AFB0AF",
"^=	c #91928A",
"/=	c #A5A6A0",
"(=	c #A6A7A1",
"_=	c #92938E",
":=	c #080808",
"                                                                                                ",
"                                                                                                ",
"                                                                                                ",
"                                                                                                ",
"                                                                                                ",
"    . + @ @ @ @ @ @ @ @ @ @ @ @ @ @ @ @ @ @ @ @ @ @ @ @ @ @ @ @ @ @ @ @ @ @ @ @ @ @ @ @ + .     ",
"  # $ % % & & & & & & & & & & & & & & & & & & & & & & & & & & & & & & & & & & & & & & % % $ #   ",
"  * = - ; > , , , , , , , , , , , , , , , , , , , , , , , , , , , , , , , , , , , , > ; - = *   ",
"  ' ) ! ~ { ] ] ] ] ] ] ] ] ] ] ] ] ] ] ] ] ] ] ] ] ] ] ] ] ] ] ] ] ] ] ] ] ] ] ] ] { ~ ! ) '   ",
"  ^ , / ( _ : : < < < < < < < < < < < < < < : : : : : < < < < < < < < < < < < < : : _ ( / , ^   ",
"  [ } | 1 2 3 4 4 4 4 4 4 4 4 4 4 4 5 5 6 7 7 7 7 7 7 6 5 5 4 4 4 4 4 4 4 4 4 4 4 3 2 1 | 8 [   ",
"  9 0 a b c d e e e e e e e e e e f f g h i j k k j i l g f m n n n n n n n n e e d c b a 0 9   ",
"  o p q r s t u u u u u u u u u v w u x y y z z z z y y A B C t t t D t t t t t u t s r q p o   ",
"  E F G H I J K K K K K K K K L K M N O P P Q Q Q Q P P R S T U V W X Y U Z ` ` J J I H G F E   ",
"   ...+.@.#.$.%.%.%.%.%.%.%.&.*.=.-.-.-.-.-.-.-.-.-.-.-.;.>.>.,.'.).!.!.!.~.{.].].^.#.@.+... .  ",
"  /.(._.:.<.[.}.}.}.}.}.}.|.1.2.3.4.4.4.4.4.4.4.4.4.4.5.6.7.8.9.0.a.b.c.&.%.d.e.f.f.g.:._.(./.  ",
"  h.i.j.k.l.m.m.m.m.m.n.m.o.p.q.r.s.t.t.t.t.t.t.t.t.u.v.w.x.y.z.A.n B.C.D.E.F.G.}.H.I.J.j.i.h.  ",
"  K.L.M.N.O.P.P.P.P.P.P.Q.R.S.T.T.T.T.T.T.T.T.T.T.T.U.V.u.W.X.Y.Z.`. +.+++F.@+#+m.$+%+&+M.L.K.  ",
"  *+=+-+;+>+,+'+'+'+'+'+)+!+~+~+~+~+~+~+~+~+~+~+~+~+{+]+^+/+(+_+:+<+[+}+|+1+2+3+4+P.5+;+-+=+*+  ",
"  6+7+8+9+0+a+a+a+b+a+a+c+d+e+f+f+f+f+f+f+f+f+f+f+g+f+h+i+j+k+l+m+U n+o+p+q+r+s+t+u+v+9+8+7+6+  ",
"  w+x+y+z+A+B+C+C+C+B+D+E+F+G+G+G+G+G+G+G+G+G+G+G+H+I+J+!+K+L+M+e.N+O+P+Q+R+S+T+U+V+W+X+y+x+w+  ",
"  Y+Z+`+ @.@+@@@@@#@@@$@%@&@*@*@*@*@*@*@*@*@*@*@*@=@-@;@>@,@n.'@)@!@~@{@]@^@/@(@_@:@<@[@`+Z+Y+  ",
"  }@|@x+1@2@3@4@4@5@4@6@7@8@9@0@0@0@0@0@0@0@>+9@a@b@c@d@e@f@|.)@f.g@h@{@i@j@k@l@m@n@o@p@x+q@}@  ",
"  r@s@t@u@v@w@5@5@w@w@x@y@z@z@A@A@A@A@A@A@z@z@>+B@B@C@D@E@F@E.G@H@I@J@{@K@L@M@N@O@P@Q@u@t@s@r@  ",
"  R@S@T@U@V@W@W@W@W@X@Y@Z@`@`@`@`@`@`@`@`@ #.#+#@###$#%#&#r+*#=#-#;#>#{@,#'#)#!#~#{#]#U@T@S@R@  ",
"  ^#/#(#U@_#:#:#:#:#<#[#}#|#1#1#1#1#1#1#2#3#3#.#4#5#6#7#8#9#0#a#b#c#{@d#e#f#g#h#i#j#k#U@(#/#^#  ",
"  l#m#n#o#p#q#r#r#r#s#t#q#u#v#w#x#x#y#z#A#B#C#D#E#F#G#H#I#J#K#L#M#{@{@N#O#P#Q#R#S#T#U#V#n#m#l#  ",
"  W#X#Y#o#Z#`#`#`#`#`# $.$}#+$@$@$o@o@#$$$%$&$*$=$-$;$R+>$,$'$)$!${@{@~${$]$^$/$($_$:$o#Y#X#W#  ",
"  <$X#[$}$|$1$2$2$3$2$4$5$`#6$7$8$9$0$a$w@b$c$d$e$f$g$h$i$j$k$l$m${@n$o$p$q$r$s$t$u$v$}$[$X#<$  ",
"  <$w$Y#x$y$z$A$A$A$A$B$C$D$E$F$F$G$H$x@I$J$K$L$M$N$O$P$Q$R$S$T$U$V$W$X$Y$Z$`$ %.%+%@%x$Y#w$<$  ",
"  <$w$Y##%$%%%%%%%%%%%%%&%*%=%-%;%>%,%'%)%!%~%{%]%^%/%(%_%:%T$U${@<%[%}%|%1%2%3%4%5%6%#%Y#X#<$  ",
"  <$w$Y#7%8%*%9%9%9%9%9%*%0%a%b%c%d%e%f%g%h%i%j%k%l%m%n%T$o%>#{@p%q%r%s%t%u%v%w%x%y%8%7%Y#w$<$  ",
"  <$w$z%A%B%C%C%C%C%C%C%D%E%F%G%H%I%J%K%L%M%N%O%P%Q%R%S%>#>#{@T%U%V%W%X%Y%H%Z%`% &.&B%A%z%w$<$  ",
"  W#+&@&#&$&%&%&%&%&%&%&%&&&*&=&-&;&>&,&'&)&!&~&{&m${@{@V$]&^&/&(&_&:&<&[&}&|&*&1&%&$&#&@&+&W#  ",
"  l#m#2&3&4&5&6&6&6&6&6&5&7&8&9&0&a&b&c&d&e&f&g&o%h&i&j&k&l&m&n&o&p&q&r&s&t&u&8&5&5&4&3&2&m#l#  ",
"  ^#v&w&x&y&z&z&z&z&z&z&A&B&C&D&E&F&G&H&I&J&K&L&M&N&O&P&Q&R&S&T&U&V&W&X&Y&Z&`&B& *z&y&x&w&v&^#  ",
"  .*+*@*#*$*%*%*%*%*%*%*%*&***=*-*;*G&>*,*'*)*!*~*{*]*^*~*/*(*_*:*<*[*}*|***1*2*%*%*$*#*@*+*.*  ",
"  r@3*4*5*6*7*8*8*8*8*8*7*9*0*a*a*b*c*d*e*f*g*h*i*j*k*l*m*n*o*e*p*q*r*a*s*9*7*8*t*7*6*5*4*3*r@  ",
"  u*v*w*x*y*z*z*z*z*z*z*z*A*B*B*C*D*E*F*G*H*I*J*K*K*K*L*M*H*G*N*O*D*P*B*B*z*z*z*z*z*y*x*w*v*u*  ",
"  Q*R*S*T*U*V*W*W*W*W*W*W*V*X*Y*Z*`* =.=+=@=f*#=$=$=#=#=%=+=&=*=U*==Y*-=V*W*W*W*W*V*U*T*S*R*Q*  ",
"  w+x+;=>=,=,=,=,=,=,=,=,='='='='=)=)=!=~=!=!=~={=]=!=!=!=!=!='='='='='=,=,=,=,=,=,=,=>=;=x+w+  ",
"  ^=/=(=(=(=(=(=(=(=(=(=(=(=(=(=(=(=(=(=(=(=(=(=(=(=(=(=(=(=(=(=(=(=(=(=(=(=(=(=(=(=(=(=(=/=^=  ",
"    m#v&_=_=_=_=_=_=_=_=_=_=_=_=_=_=_=_=_=_=_=_=_=_=_=_=_=_=_=_=_=_=_=_=_=_=_=_=_=_=_=_=v&m#    ",
"      :=:=:=:=:=:=:=:=:=:=:=:=:=:=:=:=:=:=:=:=:=:=:=:=:=:=:=:=:=:=:=:=:=:=:=:=:=:=:=:=:=:=      ",
"                                                                                                ",
"                                                                                                ",
"                                                                                                ",
"                                                                                                "};
