/* XPM */
static char * system_lock_xpm[] = {
"48 48 849 2",
"  	c None",
". 	c #B4B6B1",
"+ 	c #B4B7B0",
"@ 	c #B3B5AF",
"# 	c #B1B4AE",
"$ 	c #B1B3AC",
"% 	c #AFB2AB",
"& 	c #AEB1AA",
"* 	c #ADB0A9",
"= 	c #ACAEA8",
"- 	c #AAADA7",
"; 	c #A9ACA6",
"> 	c #A9ABA5",
", 	c #A7AAA4",
"' 	c #A7A8A4",
") 	c #A7A7A2",
"! 	c #A4A6A1",
"~ 	c #A3A59F",
"{ 	c #A3A59D",
"] 	c #A1A39C",
"^ 	c #A0A29C",
"/ 	c #9DA19A",
"( 	c #9C9F99",
"_ 	c #9C9E99",
": 	c #9A9D97",
"< 	c #999B95",
"[ 	c #989A95",
"} 	c #979993",
"| 	c #959892",
"1 	c #949791",
"2 	c #939691",
"3 	c #92948F",
"4 	c #91938D",
"5 	c #8F928C",
"6 	c #8E918B",
"7 	c #8D908A",
"8 	c #8C8E89",
"9 	c #8B8D88",
"0 	c #8A8C86",
"a 	c #888B85",
"b 	c #878A84",
"c 	c #868883",
"d 	c #858782",
"e 	c #848681",
"f 	c #838681",
"g 	c #B8B9B4",
"h 	c #ECECEB",
"i 	c #F2F3F1",
"j 	c #F3F3F2",
"k 	c #F3F4F2",
"l 	c #F4F4F3",
"m 	c #F4F4F4",
"n 	c #F5F5F4",
"o 	c #F5F5F3",
"p 	c #F5F6F5",
"q 	c #F6F6F5",
"r 	c #F6F6F6",
"s 	c #F7F7F6",
"t 	c #F1F2F0",
"u 	c #F0F1EF",
"v 	c #EFEFEF",
"w 	c #EDEEED",
"x 	c #ECEDEB",
"y 	c #EAEBE9",
"z 	c #E9EAE8",
"A 	c #E7E9E7",
"B 	c #E6E7E4",
"C 	c #E4E5E3",
"D 	c #E2E2E0",
"E 	c #E1E2DE",
"F 	c #DEDFDC",
"G 	c #DCDDD9",
"H 	c #DADCD7",
"I 	c #D8D9D5",
"J 	c #D6D8D3",
"K 	c #D2D5D0",
"L 	c #D0D2CD",
"M 	c #CED1CC",
"N 	c #CBCEC9",
"O 	c #C9CCC7",
"P 	c #C8CBC5",
"Q 	c #C6C8C3",
"R 	c #C7C9C4",
"S 	c #BABCB6",
"T 	c #838580",
"U 	c #BBBDB8",
"V 	c #F0F0EF",
"W 	c #D6D7D4",
"X 	c #D5D6D3",
"Y 	c #D8D8D6",
"Z 	c #DADAD7",
"` 	c #DBDCD9",
" .	c #DCDEDA",
"..	c #DFDFDD",
"+.	c #E0E0DF",
"@.	c #E4E3E2",
"#.	c #E5E5E2",
"$.	c #E3E3E0",
"%.	c #E1E2DF",
"&.	c #E0E0DD",
"*.	c #DEDEDB",
"=.	c #DCDDDA",
"-.	c #DBDCD8",
";.	c #D9DAD6",
">.	c #D7D8D4",
",.	c #D5D7D3",
"'.	c #D3D4D1",
").	c #D2D2CF",
"!.	c #CED0CC",
"~.	c #CCCECA",
"{.	c #CBCDC8",
"].	c #C9CAC6",
"^.	c #C5C7C2",
"/.	c #C3C6C0",
"(.	c #C1C4BE",
"_.	c #BFC2BC",
":.	c #BEC0BA",
"<.	c #BCBEB9",
"[.	c #BABDB6",
"}.	c #B9BAB4",
"|.	c #B7B9B3",
"1.	c #B6B9B3",
"2.	c #BABEB6",
"3.	c #C3C6C1",
"4.	c #81837F",
"5.	c #E7E9E6",
"6.	c #878984",
"7.	c #8A8C87",
"8.	c #8B8C87",
"9.	c #8B8D87",
"0.	c #8A8D88",
"a.	c #8B8C88",
"b.	c #898B86",
"c.	c #888A85",
"d.	c #8A8B87",
"e.	c #898B87",
"f.	c #8D8F8A",
"g.	c #C5C6C1",
"h.	c #828480",
"i.	c #B9BDB6",
"j.	c #E7E7E5",
"k.	c #8E908B",
"l.	c #A8AAA5",
"m.	c #B0B1AC",
"n.	c #AFB1AC",
"o.	c #B0B2AD",
"p.	c #B1B3AE",
"q.	c #B2B4AF",
"r.	c #B2B5AF",
"s.	c #B3B4AF",
"t.	c #B4B5B0",
"u.	c #B3B6B1",
"v.	c #B4B7B1",
"w.	c #B5B6B1",
"x.	c #B4B6B0",
"y.	c #B3B5B0",
"z.	c #B0B3AD",
"A.	c #ABADA9",
"B.	c #A6A8A2",
"C.	c #A0A29D",
"D.	c #9EA09B",
"E.	c #9FA29D",
"F.	c #A3A7A1",
"G.	c #AAABA6",
"H.	c #AEAEAA",
"I.	c #AEB0AB",
"J.	c #B7B9B4",
"K.	c #C1C2BE",
"L.	c #BFC1BC",
"M.	c #BCBEBA",
"N.	c #BCBFBA",
"O.	c #BCBCB9",
"P.	c #BBBCB8",
"Q.	c #BABBB7",
"R.	c #8B8E88",
"S.	c #C8CAC5",
"T.	c #81847F",
"U.	c #B9BBB5",
"V.	c #E6E6E4",
"W.	c #ABADA7",
"X.	c #B5B7B2",
"Y.	c #B5B9B4",
"Z.	c #B8BBB5",
"`.	c #B8BAB4",
" +	c #B5B8B2",
".+	c #AFB2AC",
"++	c #9FA09C",
"@+	c #8C8E8B",
"#+	c #868985",
"$+	c #7F8381",
"%+	c #777A7B",
"&+	c #6E7172",
"*+	c #777A7A",
"=+	c #7F8280",
"-+	c #858784",
";+	c #8C8E8A",
">+	c #9FA09B",
",+	c #B5B7B1",
"'+	c #C2C4BF",
")+	c #C4C7C2",
"!+	c #C3C4C0",
"~+	c #C1C3BF",
"{+	c #C0C1BD",
"]+	c #BFBFBC",
"^+	c #BEBFBB",
"/+	c #BDBEBA",
"(+	c #CBCCC8",
"_+	c #80837D",
":+	c #E5E5E4",
"<+	c #AAACA7",
"[+	c #B2B4AE",
"}+	c #B6B8B3",
"|+	c #B6B9B4",
"1+	c #B3B4AE",
"2+	c #AAACA6",
"3+	c #949792",
"4+	c #6F706D",
"5+	c #777976",
"6+	c #C6C8C4",
"7+	c #E3E4E1",
"8+	c #EDEEEA",
"9+	c #F0F0EC",
"0+	c #EBEBE7",
"a+	c #B8BAB6",
"b+	c #717370",
"c+	c #72736F",
"d+	c #969993",
"e+	c #A7AAA5",
"f+	c #C2C4C0",
"g+	c #C2C3BF",
"h+	c #BFC0BC",
"i+	c #BCBDB9",
"j+	c #B1B3AD",
"k+	c #80827D",
"l+	c #E4E5E2",
"m+	c #B1B4AF",
"n+	c #B3B6B0",
"o+	c #B4B7B2",
"p+	c #B6B7B3",
"q+	c #B6B8B2",
"r+	c #A4A7A3",
"s+	c #656763",
"t+	c #B8B8B7",
"u+	c #E6E4CE",
"v+	c #CDB95D",
"w+	c #C2A620",
"x+	c #BC9D0A",
"y+	c #C0A523",
"z+	c #CDBB64",
"A+	c #E8E6D7",
"B+	c #ECEDEC",
"C+	c #A9AAA5",
"D+	c #656663",
"E+	c #858681",
"F+	c #AFB2AD",
"G+	c #BDC0BB",
"H+	c #C0C3BE",
"I+	c #C0C2BD",
"J+	c #BEC1BC",
"K+	c #BDBFBA",
"L+	c #BBBDB9",
"M+	c #BABDB8",
"N+	c #D2D3CF",
"O+	c #7F817C",
"P+	c #E3E4E0",
"Q+	c #ABACA7",
"R+	c #B2B3AE",
"S+	c #B6B9B2",
"T+	c #7E7F7B",
"U+	c #787976",
"V+	c #DCDDDB",
"W+	c #F1F1EF",
"X+	c #D8CE9B",
"Y+	c #C2A722",
"Z+	c #CEB51A",
"`+	c #C7B11B",
" @	c #D0BC21",
".@	c #DEC620",
"+@	c #D0B71E",
"@@	c #C2A827",
"#@	c #D9D2A6",
"$@	c #EBECEB",
"%@	c #CECFCC",
"&@	c #787975",
"*@	c #B3B5B1",
"=@	c #BFC1BB",
"-@	c #B8BBB6",
";@	c #D4D6D1",
">@	c #7E807B",
",@	c #E0E1DE",
"'@	c #8F918B",
")@	c #B5B8B1",
"!@	c #ACAFA9",
"~@	c #90928D",
"{@	c #6E6E6C",
"]@	c #DCDCDB",
"^@	c #D0CCAD",
"/@	c #BC9E14",
"(@	c #E6CE24",
"_@	c #CEBC22",
":@	c #161404",
"<@	c #222008",
"[@	c #DBC932",
"}@	c #EFDA29",
"|@	c #DBC11D",
"1@	c #BDA425",
"2@	c #CFCFBF",
"3@	c #F0F2EF",
"4@	c #C6C7C4",
"5@	c #656764",
"6@	c #A1A39F",
"7@	c #BDBFBB",
"8@	c #BDBEB9",
"9@	c #BBBCB7",
"0@	c #B9BAB6",
"a@	c #B8BAB5",
"b@	c #AEAFAB",
"c@	c #D6D8D4",
"d@	c #7C7F79",
"e@	c #B0B3AE",
"f@	c #B2B5B0",
"g@	c #6C6E6A",
"h@	c #B1B2AF",
"i@	c #F5F6F4",
"j@	c #D2D4CC",
"k@	c #C4B14E",
"l@	c #D5BC1E",
"m@	c #EFD920",
"n@	c #EFDE4A",
"o@	c #A69D56",
"p@	c #1C1C10",
"q@	c #D9D06D",
"r@	c #F1DE3D",
"s@	c #EAD324",
"t@	c #CCB21D",
"u@	c #C7B869",
"v@	c #D4D7D0",
"w@	c #E7E9E9",
"x@	c #999A97",
"y@	c #757773",
"z@	c #A6A8A4",
"A@	c #BABCB7",
"B@	c #B9BBB6",
"C@	c #B7BAB5",
"D@	c #ACAEA9",
"E@	c #DADBD8",
"F@	c #7C7E79",
"G@	c #DDDEDB",
"H@	c #B0B1AD",
"I@	c #B0B2AC",
"J@	c #B1B2AD",
"K@	c #858984",
"L@	c #797B77",
"M@	c #E8EAE7",
"N@	c #CACCC1",
"O@	c #BEA322",
"P@	c #E7D028",
"Q@	c #F1D910",
"R@	c #D5CA6A",
"S@	c #242217",
"T@	c #B3AF89",
"U@	c #F7EFAE",
"V@	c #F3E574",
"W@	c #E9D012",
"X@	c #DAC01C",
"Y@	c #C0A72F",
"Z@	c #C8CAC1",
"`@	c #E7EAEA",
" #	c #6A6B66",
".#	c #8D8F89",
"+#	c #7B7D78",
"@#	c #8E908A",
"##	c #AFB0AA",
"$#	c #AFB1AB",
"%#	c #9EA09A",
"&#	c #73746F",
"*#	c #B1B2B0",
"=#	c #D6D9D3",
"-#	c #CECFC2",
";#	c #BB9E18",
">#	c #EDD82C",
",#	c #EFD606",
"'#	c #D0C354",
")#	c #171612",
"!#	c #C5C5B8",
"~#	c #FBF5C9",
"{#	c #F0DE5B",
"]#	c #E7CD09",
"^#	c #DFC71E",
"/#	c #BA9D15",
"(#	c #CDCEC5",
"_#	c #DBDEDD",
":#	c #EDEDEB",
"<#	c #939493",
"[#	c #7E807D",
"}#	c #B5B8B3",
"|#	c #B2B3AF",
"1#	c #DEDFDD",
"2#	c #797C77",
"3#	c #DADBD7",
"4#	c #A6A9A4",
"5#	c #AEAFAA",
"6#	c #ADB0AA",
"7#	c #AEB1AB",
"8#	c #B0B3AC",
"9#	c #AEB0A9",
"0#	c #969892",
"a#	c #6A6B67",
"b#	c #D0D0CE",
"c#	c #EFEFED",
"d#	c #CFD0C8",
"e#	c #C0A526",
"f#	c #E8D028",
"g#	c #EED609",
"h#	c #EBD51C",
"i#	c #A79F52",
"j#	c #23221C",
"k#	c #DACC5F",
"l#	c #EBD312",
"m#	c #E6CD0F",
"n#	c #DABF1E",
"o#	c #C1A830",
"p#	c #CCCEC5",
"q#	c #D2D6D3",
"r#	c #B6B7B5",
"s#	c #767774",
"t#	c #A1A29F",
"u#	c #A7A9A3",
"v#	c #E2E2DF",
"w#	c #797A76",
"x#	c #D7D9D4",
"y#	c #A5A8A2",
"z#	c #ABADA8",
"A#	c #ABAEA9",
"B#	c #ACAFA8",
"C#	c #ADAFA9",
"D#	c #ADAFAA",
"E#	c #ADB0AB",
"F#	c #8F918C",
"G#	c #61635F",
"H#	c #EFF0EE",
"I#	c #C9CCC4",
"J#	c #C7B354",
"K#	c #D3B919",
"L#	c #EED81F",
"M#	c #F2D806",
"N#	c #D8C20B",
"O#	c #262100",
"P#	c #D0B906",
"Q#	c #EACF03",
"R#	c #E7CF23",
"S#	c #CBB01D",
"T#	c #CCBB6F",
"U#	c #C6C8C0",
"V#	c #CBCECA",
"W#	c #EEEFEC",
"X#	c #D2D2D0",
"Y#	c #71726F",
"Z#	c #999B96",
"`#	c #A4A7A1",
" $	c #E3E4E2",
".$	c #777A74",
"+$	c #D6D7D2",
"@$	c #A9ABA6",
"#$	c #ABAEA8",
"$$	c #5C5E5A",
"%$	c #EEEEED",
"&$	c #EDEFEA",
"*$	c #C8CAC3",
"=$	c #C3C7C2",
"-$	c #D3CEB1",
";$	c #BCA016",
">$	c #E3CC26",
",$	c #EDD61F",
"'$	c #EBD10A",
")$	c #E1C804",
"!$	c #E6CE0C",
"~$	c #E8D022",
"{$	c #D8BE1E",
"]$	c #C1A629",
"^$	c #D8D6C7",
"/$	c #C2C5BE",
"($	c #CFD2CC",
"_$	c #ECEDEA",
":$	c #E0E0DE",
"<$	c #6C6E69",
"[$	c #959792",
"}$	c #AFB0AB",
"|$	c #ACAFAA",
"1$	c #A1A39E",
"2$	c #757973",
"3$	c #A7ABA5",
"4$	c #D4D5D0",
"5$	c #A3A4A0",
"6$	c #A8ABA5",
"7$	c #A8AAA4",
"8$	c #A8ABA6",
"9$	c #8C8E88",
"0$	c #E2E3E1",
"a$	c #E9EAE7",
"b$	c #C0C3BD",
"c$	c #CCCEC7",
"d$	c #D3CB9D",
"e$	c #BA9D14",
"f$	c #CEB418",
"g$	c #E1C925",
"h$	c #E6CE2A",
"i$	c #DEC524",
"j$	c #CBB01B",
"k$	c #BDA01B",
"l$	c #D2CCA4",
"m$	c #D9DBD6",
"n$	c #CFD0CC",
"o$	c #6F716D",
"p$	c #949691",
"q$	c #A7A9A4",
"r$	c #A9ACA7",
"s$	c #A8A9A4",
"t$	c #9FA29B",
"u$	c #E6E7E5",
"v$	c #A6A9A3",
"w$	c #D1D2CE",
"x$	c #A5A8A3",
"y$	c #A6A8A3",
"z$	c #A7A8A3",
"A$	c #686A66",
"B$	c #CACBC8",
"C$	c #E7E8E5",
"D$	c #C0C3BB",
"E$	c #CFD2CA",
"F$	c #D5D2B6",
"G$	c #C9B863",
"H$	c #C3AA33",
"I$	c #BFA320",
"J$	c #C3AA36",
"K$	c #CABA68",
"L$	c #D7D4BC",
"M$	c #CDCFCB",
"N$	c #C0C4BC",
"O$	c #E6E8E5",
"P$	c #E9E9E7",
"Q$	c #B3B3B1",
"R$	c #969793",
"S$	c #A6A7A2",
"T$	c #9D9E98",
"U$	c #747673",
"V$	c #A6A6A2",
"W$	c #D0D2CE",
"X$	c #A4A6A0",
"Y$	c #A5A7A1",
"Z$	c #A5A7A2",
"`$	c #939490",
" %	c #6D6E6A",
".%	c #AAABA8",
"+%	c #E4E4E1",
"@%	c #E4E6E2",
"#%	c #C9CCC5",
"$%	c #BEC1BA",
"%%	c #C7CAC5",
"&%	c #D3D4CF",
"*%	c #D9DAD3",
"=%	c #DDDED6",
"-%	c #D8DAD2",
";%	c #D2D4CE",
">%	c #C5C8C3",
",%	c #D3D4D0",
"'%	c #EDEEEB",
")%	c #E5E5E3",
"!%	c #8F908C",
"~%	c #747773",
"{%	c #989995",
"]%	c #A3A6A0",
"^%	c #A3A5A1",
"/%	c #A2A59F",
"(%	c #A2A49E",
"_%	c #A1A49E",
":%	c #A1A39D",
"<%	c #999C96",
"[%	c #E5E6E4",
"}%	c #737671",
"|%	c #D0D1CE",
"1%	c #8C8F89",
"2%	c #9D9F99",
"3%	c #A3A49E",
"4%	c #A1A49F",
"5%	c #A2A49F",
"6%	c #A2A4A0",
"7%	c #A3A5A0",
"8%	c #979995",
"9%	c #7A7B78",
"0%	c #DBDBD9",
"a%	c #E0E2DE",
"b%	c #C3C7C0",
"c%	c #BDC0B9",
"d%	c #BFC2BB",
"e%	c #C0C3BC",
"f%	c #C1C3BD",
"g%	c #C0C5BE",
"h%	c #C1C4BD",
"i%	c #C5C7C1",
"j%	c #EDEEEC",
"k%	c #DCDCDA",
"l%	c #646662",
"m%	c #7E7F7A",
"n%	c #999C97",
"o%	c #A0A39E",
"p%	c #9FA29C",
"q%	c #9FA19B",
"r%	c #9DA09A",
"s%	c #979994",
"t%	c #8C8D89",
"u%	c #E2E3E2",
"v%	c #71746F",
"w%	c #9B9C98",
"x%	c #676A65",
"y%	c #A3A3A1",
"z%	c #DBDDD7",
"A%	c #CACCC6",
"B%	c #BCBFB8",
"C%	c #D0D3CD",
"D%	c #E7E8E4",
"E%	c #E1E0DD",
"F%	c #8F918D",
"G%	c #6A6C68",
"H%	c #9D9F9A",
"I%	c #9D9E99",
"J%	c #9B9E98",
"K%	c #9B9D97",
"L%	c #949590",
"M%	c #E1E3E1",
"N%	c #70726F",
"O%	c #CFD1CD",
"P%	c #9DA09B",
"Q%	c #9EA19B",
"R%	c #9EA09C",
"S%	c #7E7F7C",
"T%	c #696B67",
"U%	c #C9C9C6",
"V%	c #D2D4CD",
"W%	c #E1E3DF",
"X%	c #D8D9D6",
"Y%	c #CED0CB",
"Z%	c #C7C9C3",
"`%	c #D1D3CE",
" &	c #E6E6E2",
".&	c #D3D3CE",
"+&	c #D8D8D4",
"@&	c #B4B4B1",
"#&	c #60615E",
"$&	c #81837E",
"%&	c #92958F",
"&&	c #9A9C96",
"*&	c #969893",
"=&	c #DFE0DE",
"-&	c #9B9D98",
";&	c #9C9D99",
">&	c #9C9E98",
",&	c #989B95",
"'&	c #70716D",
")&	c #686966",
"!&	c #C2C2BF",
"~&	c #D8D8D3",
"{&	c #DEDED8",
"]&	c #EBECE9",
"^&	c #E5E7E3",
"/&	c #E6E8E4",
"(&	c #E5E7E2",
"_&	c #DFDFDB",
":&	c #D7D7D2",
"<&	c #D5D5D1",
"[&	c #B5B6B2",
"}&	c #727570",
"|&	c #959691",
"1&	c #949690",
"2&	c #939590",
"3&	c #8B8D89",
"4&	c #DDDEDC",
"5&	c #6E706B",
"6&	c #999A96",
"7&	c #989A96",
"8&	c #898B85",
"9&	c #6D706C",
"0&	c #666864",
"a&	c #989993",
"b&	c #D6D6D3",
"c&	c #EEEEEC",
"d&	c #DFDFDC",
"e&	c #D9D9D5",
"f&	c #C8C8C4",
"g&	c #666863",
"h&	c #6F726D",
"i&	c #939690",
"j&	c #93958F",
"k&	c #92948E",
"l&	c #91948E",
"m&	c #91938E",
"n&	c #90938D",
"o&	c #DADCD8",
"p&	c #6C6F6A",
"q&	c #CFCFCB",
"r&	c #929490",
"s&	c #959793",
"t&	c #979894",
"u&	c #888B86",
"v&	c #646560",
"w&	c #6A6B68",
"x&	c #9E9D9B",
"y&	c #C2C2C1",
"z&	c #D9D9D7",
"A&	c #E4E4E2",
"B&	c #CFCFCD",
"C&	c #B2B2AE",
"D&	c #8F8F8B",
"E&	c #676865",
"F&	c #7A7B76",
"G&	c #90928C",
"H&	c #CFCFCA",
"I&	c #90928E",
"J&	c #939591",
"K&	c #72746F",
"L&	c #666964",
"M&	c #61625F",
"N&	c #5A5C58",
"O&	c #60625E",
"P&	c #636560",
"Q&	c #676864",
"R&	c #737570",
"S&	c #82837F",
"T&	c #D4D6D3",
"U&	c #CECFC9",
"V&	c #8D8F8B",
"W&	c #8E908C",
"X&	c #797B76",
"Y&	c #747572",
"Z&	c #737470",
"`&	c #757772",
" *	c #777A76",
".*	c #7D7F7A",
"+*	c #888A84",
"@*	c #8A8D87",
"#*	c #898A86",
"$*	c #D1D2CF",
"%*	c #CDCFC9",
"&*	c #979B95",
"**	c #D2D4CF",
"=*	c #CACCC7",
"-*	c #CDCFCA",
";*	c #CFD1CC",
">*	c #D4D5D1",
",*	c #D6D7D3",
"'*	c #D7D8D5",
")*	c #D9DAD7",
"!*	c #E1E1DE",
"~*	c #E1E2DD",
"{*	c #DFE0DD",
"]*	c #D9DBD7",
"^*	c #D7D9D5",
"/*	c #D7D7D4",
"(*	c #C6C9C3",
"_*	c #C0C2BC",
":*	c #BCBEB8",
"<*	c #636661",
"[*	c #C7C8C5",
"}*	c #D0D1CD",
"|*	c #D2D4D0",
"1*	c #D4D7D2",
"2*	c #DBDBD8",
"3*	c #DBDCDA",
"4*	c #DCDEDB",
"5*	c #E0E1DD",
"6*	c #D8DAD6",
"7*	c #CACDC7",
"8*	c #B5B7B3",
"9*	c #686B66",
"0*	c #868983",
"a*	c #848581",
"b*	c #838581",
"c*	c #818481",
"d*	c #81817E",
"e*	c #80817D",
"f*	c #7C7F7A",
"g*	c #7A7C77",
"h*	c #777974",
"i*	c #767974",
"j*	c #747672",
"k*	c #70736E",
"l*	c #6E716C",
"m*	c #6D6F6B",
"n*	c #6B6D68",
"o*	c #6A6D67",
"p*	c #676965",
"q*	c #666865",
"r*	c #626460",
"s*	c #585A56",
"t*	c #797A75",
"u*	c #5D5F5A",
"v*	c #5F615D",
"w*	c #5D5E5B",
"x*	c #545652",
"y*	c #555753",
"z*	c #555752",
"A*	c #545753",
"B*	c #535551",
"C*	c #696C67",
"D*	c #696C66",
"E*	c #6A6C67",
"F*	c #555754",
"G*	c #565854",
"H*	c #858882",
"I*	c #696A66",
"J*	c #CFD1CB",
"K*	c #D8DAD5",
"L*	c #D0D2CC",
"M*	c #D0D1CC",
"N*	c #B3B6AF",
"O*	c #C6C7C2",
"P*	c #F9F9F9",
"Q*	c #F4F5F3",
"R*	c #F9F9F8",
"S*	c #F8F8F7",
"T*	c #CDCECA",
"U*	c #989A94",
"V*	c #A1A29C",
"W*	c #B9BCBA",
"X*	c #CBCCCB",
"Y*	c #CFD1CF",
"Z*	c #C8C9C8",
"`*	c #C5C6C5",
" =	c #C6C6C5",
".=	c #C7C8C7",
"+=	c #CFCFCF",
"@=	c #CCCECC",
"#=	c #ADAFAB",
"$=	c #A6A7A1",
"%=	c #A3A59E",
"&=	c #6E706C",
"*=	c #A6A7A5",
"==	c #D8D9D7",
"-=	c #CBCDC7",
";=	c #C2C6BF",
">=	c #C3C6BF",
",=	c #C1C5BE",
"'=	c #C0C4BD",
")=	c #BDBDBC",
"!=	c #363835",
"~=	c #515350",
"{=	c #575955",
"]=	c #555653",
"^=	c #3B3D3A",
"                                                                                                ",
"                                                                                                ",
"                                                                                                ",
"                                                                                                ",
"                                                                                                ",
"    . + @ # $ % & * = - ; > , ' ) ! ~ { ] ^ / ( _ : < [ } | 1 2 3 4 5 6 7 8 9 0 a b c d e f     ",
"  g h i j k l m n o p q r s q n m l j t u v w x y z A B C D E F G H I J K L M N O P Q R Q S T   ",
"  U V W X Y Z `  ...+.D @.#.C $.%.&.*.=.-.;.>.,.'.).L !.~.{.].R ^./.(._.:.<.[.}.|.|.1.1.2.3.4.  ",
"  U 5.9 6.7.7.7.8.9 9 9.9.9.0.9 9 a.7.b.7.c.6.c c c 6.c.b.b.7.d.b.b.7.7.7.7.7.7.d.d.e.6.f.g.h.  ",
"  i.j.k.l.m.n.o.o.p.q.r.s.t.u.v.w.x.y.z.A.= B.C.D.E.F.G.H.I.# # # J.K.K.L.L.M.N.O.P.Q.o.R.S.T.  ",
"  U.V.6 W.r.s.y.t.w.X.X.Y.|.|.Z.`. +.+++@+#+$+%+&+*+=+-+;+>+& q.,+'+)+3.!+~+K.{+]+^+/+s.8 (+_+  ",
"  J.:+6 <+[+p.q.y.t.w.X. +}+|+}+1+2+3+4+5+6+7+8+9+0+-.a+b+c+d+e+X.'+f+g+K.{+h+^+<.i+U j+8 !.k+  ",
"   +l+6 - q.m+r.n+u.o+p+}+J.q+q.r+h.s+t+l u+v+w+x+y+z+A+B+C+D+E+F+G+H+H+I+J+G+K+L+M+M+o.8 N+O+  ",
"  ,+P+6 Q+R+[+q.y.x.,+ +1.S+n+, T+U+V+W+X+Y+Z+`+ @.@+@@@#@$@%@&@;+*@=@I+L.^+K+<.U Q.-@n.8 ;@>@  ",
"  n+,@'@<+p.R+q.@ t.v.)@S+v.!@~@{@]@p ^@/@(@_@:@<@[@}@|@1@2@3@4@5@6@J.7@^+8@i+9@Q.0@a@b@8 c@d@  ",
"  R+&.6 ; e@e@# q.f@u.. . e@E.g@h@i@j@k@l@m@n@o@p@q@r@s@t@u@v@w@x@y@z@a+U M+A@B@C@J.|+D@;+E@F@  ",
"  .+G@6 > H@I@J@p.[+y.y.f@e+K@L@:+M@N@O@P@Q@R@S@T@U@V@W@X@Y@Z@`@l+ #'@m+-@-@a@J.}+X.o+W..#G@+#  ",
"  & =.@#l.##$#n.o.j+p.m+F+%#&#*#h =#-#;#>#,#'#)#!#~#{#]#^#/#(#_#:#<#[#; }#|+}#o+. y.|#> 8 1#2#  ",
"  * 3#k.4#5#5#6#7#n.I@8#9#0#a#b#c#N d#e#f#g#h#i#j#k#l#m#n#o#p#q#x r#s#t#p.v.n+q.# o..+u#;+v#w#  ",
"  W.x#k.y#z#A#B#C#D#E#& W.F#G#:+H#/.I#J#K#L#M#N#O#P#Q#R#S#T#U#V#W#X#Y#Z#6#p.j+m.$#I.6#`#.# $.$  ",
"  > +$k.! @$<+<+z#z#= #$l.d.$$%$&$*$=$-$;$>$,$'$)$!$~${$]$^$/$($_$:$<$[$- }$5#|$D@z#2+1$8 C 2$  ",
"  3$4$k.5$6$7$l.8$; 2+@$B.9$G#0$a$L b$c$d$e$f$g$h$i$j$k$l$P b$m$y n$o$p$q$z#- r$> s$q$t$;+u$y@  ",
"  v$w$f.C.x$y$z$u#, 7$e+! 6 A$B$C$-.D$(.E$F$G$H$I$J$K$L$M$b$N$O$P$Q$b+R$x$7$, y$S$`#`#T$8 u$U$  ",
"  V$W$8 D.X$! ! Y$Z$S$y#~ `$ %.%+%@%#%$%b$%%&%*%=%-%;%>%_.$%,%'%)%!%~%{%]%`#^%/%(%_%:%<%8 [%}%  ",
"  ! |%1%2%3%4%5%~ 6%7%7%~ 8%9%c+0%*.a%b%c%d%e%f%g%h%b$$%c%i%j%l+k%l%m%n%C.o%C.p%q%r%2%s%t%u%v%  ",
"  7%|%8 w%^ E.C.C.C.o%1$C._ f.x%y%v#z%z%A%d%c%c%B%c%$%e%C%D%E%Z F%G%a.: 2%H%I%J%K%<%Z#L%8 M%N%  ",
"  (%O%8 x@H%r%H%P%%#Q%D.R%( [$S%T%U%>.V%W%X%Y%Q e%Z%`%&. &.&+&@&#&$&%&<%&&Z#< s%} *&0#4 t%=&o$  ",
"  :%n$8 *&K%w%-&-&-&;&J%>&-&,&k.'&)&!&~&{&]&a$^&/&(&P+_&:&<&[&x%}&f.|&} d+| 1 p$1&2&%&6 3&4&5&  ",
"  p%n$8 [$,&6&Z#Z#7&Z#Z#&&Z#7&1 8&9&0&a&b&h l W+c&V.d&e&f&t%g&h&c.4 1&i&2&j&3 k&l&m&n&.#9 o&p&  ",
"  Q%q&8 r&s&*&R$*&*&d+t&t&d+} *&%&u&w#v&w&x&y&z&A&B&C&D&E&l%F&c.F#k&l&m&4 n&~@G&F#F#k.9.9 Y G%  ",
"  H%H&8 I&J&1&p$2&p$p$1 p$p$p$1&2&l&9 T.K&L&l%M&N&O&P&Q&R&S&d.@#6 F#F#F#6 k.k.f.f.1%8 8&9 T&G%  ",
"  -&U&0 9 k.V&k.k.k.W&k.k.W&W&k.k.f.8 7.e >@X&Y&Z&`& *.*e +*7.7.@*0.7.0 7.7.b.#*b.a c.d 0 $*A$  ",
"  : %*7.6.b.b.b.a c.b.b.b.b.b.b.b.b.b.c.c.6.c d d d c 6.c.c.b.b.c.c.c.c.b.b.b.a c.b.b.c 8 !.L&  ",
"  &***=*{.-*;*`%,%>*,*'*)*o&=.G@d&&.,@!*~*!*,@{*G@G@G o&]*^*/*>***W$;*Y%{.=*P (*i%_*:*B%_*M$<*  ",
"  2&[*M }*w$|*>*1*,*c@X%3#2*` 3*4*5*!*%.,@E 5*{*F 4&V+k%o&6*'*>*|*W$}*Y%~.{.{.7*^.~@G%7&^.8*9*  ",
"  F#6 7 1%9 b.a b 0*d a*b*c*4.d*e*O+>@.*f*g*L@X&h*i*U$j*R&K&k*l*m*m*n*o*T%p*q*0&r*s*t*u*v*v*w*  ",
"                                  x*y*y*y*y*y*z*x*x*x*x*A*x*x*                                  ",
"                                  B*9*C*D*D*D*C*C*C*C*C*E*T%F*                                  ",
"                                  G*H*a b b b b b b b b a 0*N&                                  ",
"                                  <*~ 7$Y$Y$Y$Y$Y$Y$Y$Y$u#X$I*                                  ",
"                                  6 J*K*L*M*M*M*M*M*M*L*x#L*[$                                  ",
"                                N*O*q P*o l l l l l l Q*R*S*T*n+                                ",
"                      U*V*~ B.D#W*X*Y*Z*`* = = = = = = =.=+=@=M.#=$=%=C.                        ",
"                      &=*===T&-=;=>=,=h%'='='='='='='='='=,=;=,=%%,%0%)=b+                      ",
"                      !=~={=G*G*y*]=]=]=]=]=]=]=]=]=]=]=]=]=]=]=y*G*{=B*^=                      ",
"                                                                                                ",
"                                                                                                ",
"                                                                                                "};
