/* XPM */
static char * system_logout_xpm[] = {
"48 48 636 2",
"  	c None",
". 	c #101010",
"+ 	c #161616",
"@ 	c #141414",
"# 	c #131313",
"$ 	c #121212",
"% 	c #111111",
"& 	c #0F0F0F",
"* 	c #0E0E0E",
"= 	c #0D0D0D",
"- 	c #0A0A0A",
"; 	c #010101",
"> 	c #727272",
", 	c #8E8E8E",
"' 	c #868686",
") 	c #828282",
"! 	c #7E7E7E",
"~ 	c #7A7A7A",
"{ 	c #767676",
"] 	c #6E6E6E",
"^ 	c #6B6B6B",
"/ 	c #676767",
"( 	c #646464",
"_ 	c #616161",
": 	c #5D5D5D",
"< 	c #5A5A5A",
"[ 	c #585858",
"} 	c #565656",
"| 	c #555555",
"1 	c #525252",
"2 	c #545454",
"3 	c #4F4F4F",
"4 	c #4D4D4D",
"5 	c #4E4E4E",
"6 	c #464646",
"7 	c #080808",
"8 	c #8C8C8C",
"9 	c #A1A1A1",
"0 	c #919191",
"a 	c #898989",
"b 	c #848484",
"c 	c #808080",
"d 	c #7C7C7C",
"e 	c #787878",
"f 	c #737373",
"g 	c #707070",
"h 	c #6D6D6D",
"i 	c #6A6A6A",
"j 	c #5F5F5F",
"k 	c #5E5E5E",
"l 	c #575757",
"m 	c #2C2C2C",
"n 	c #232323",
"o 	c #242424",
"p 	c #252525",
"q 	c #262626",
"r 	c #333333",
"s 	c #151515",
"t 	c #8B8B8B",
"u 	c #9D9D9D",
"v 	c #8D8D8D",
"w 	c #8A8A8A",
"x 	c #747474",
"y 	c #717171",
"z 	c #656565",
"A 	c #636363",
"B 	c #606060",
"C 	c #5B5B5B",
"D 	c #212121",
"E 	c #171717",
"F 	c #181818",
"G 	c #1A1A1A",
"H 	c #191919",
"I 	c #292929",
"J 	c #535353",
"K 	c #0B0B0B",
"L 	c #909090",
"M 	c #878787",
"N 	c #838383",
"O 	c #7F7F7F",
"P 	c #7B7B7B",
"Q 	c #777777",
"R 	c #686868",
"S 	c #666666",
"T 	c #626262",
"U 	c #1B1B1B",
"V 	c #1C1C1C",
"W 	c #2A2A2A",
"X 	c #A5A5A5",
"Y 	c #949494",
"Z 	c #696969",
"` 	c #595959",
" .	c #1D1D1D",
"..	c #2B2B2B",
"+.	c #939393",
"@.	c #A9A9A9",
"#.	c #979797",
"$.	c #757575",
"%.	c #6F6F6F",
"&.	c #6C6C6C",
"*.	c #1E1E1E",
"=.	c #2D2D2D",
"-.	c #ADADAD",
";.	c #9B9B9B",
">.	c #989898",
",.	c #929292",
"'.	c #8F8F8F",
").	c #797979",
"!.	c #1F1F1F",
"~.	c #2E2E2E",
"{.	c #959595",
"].	c #AFAFAF",
"^.	c #9E9E9E",
"/.	c #272727",
"(.	c #202020",
"_.	c #303030",
":.	c #A20000",
"<.	c #969696",
"[.	c #B0B0B0",
"}.	c #9F9F9F",
"|.	c #9A9A9A",
"1.	c #282828",
"2.	c #A60909",
"3.	c #A90E0E",
"4.	c #A0A0A0",
"5.	c #7D7D7D",
"6.	c #222222",
"7.	c #313131",
"8.	c #AE1E1E",
"9.	c #D57D7D",
"0.	c #AC1818",
"a.	c #090D0D",
"b.	c #B1B1B1",
"c.	c #9C9C9C",
"d.	c #999999",
"e.	c #0C0C0C",
"f.	c #AE1C1C",
"g.	c #E7A4A4",
"h.	c #E39B9B",
"i.	c #A21616",
"j.	c #3B0707",
"k.	c #959999",
"l.	c #B2B2B2",
"m.	c #A2A2A2",
"n.	c #858585",
"o.	c #343434",
"p.	c #AE1B1B",
"q.	c #E39393",
"r.	c #EB9999",
"s.	c #E09090",
"t.	c #A01D1D",
"u.	c #A87E7E",
"v.	c #B1B6B6",
"w.	c #353535",
"x.	c #AC1616",
"y.	c #E28D8D",
"z.	c #E16F6F",
"A.	c #E68585",
"B.	c #DC7E7E",
"C.	c #B12C2C",
"D.	c #A77777",
"E.	c #A5A9A9",
"F.	c #A1A2A2",
"G.	c #818181",
"H.	c #363636",
"I.	c #A70D0D",
"J.	c #A81111",
"K.	c #A91111",
"L.	c #A81212",
"M.	c #A70F0F",
"N.	c #AF2323",
"O.	c #E28B8B",
"P.	c #E16969",
"Q.	c #DF6262",
"R.	c #E47D7D",
"S.	c #DB7C7C",
"T.	c #A81B1B",
"U.	c #A37979",
"V.	c #A3A4A4",
"W.	c #888888",
"X.	c #2F2F2F",
"Y.	c #383838",
"Z.	c #DB8080",
"`.	c #ECA1A1",
" +	c #EB9D9D",
".+	c #EB9F9F",
"++	c #EBA0A0",
"@+	c #EBA2A2",
"#+	c #E89090",
"$+	c #DE6161",
"%+	c #DC5959",
"&+	c #DC5656",
"*+	c #E67D7D",
"=+	c #D76F6F",
"-+	c #AA1E1E",
";+	c #A38383",
">+	c #9FA1A1",
",+	c #AEAEAE",
"'+	c #A7A7A7",
")+	c #393939",
"!+	c #5C5C5C",
"~+	c #AC1515",
"{+	c #D97676",
"]+	c #E16767",
"^+	c #DB5151",
"/+	c #DC5757",
"(+	c #DD5959",
"_+	c #DD5B5B",
":+	c #DD5C5C",
"<+	c #DB5555",
"[+	c #DB5353",
"}+	c #DA4F4F",
"|+	c #DA4C4C",
"1+	c #E27272",
"2+	c #D25B5B",
"3+	c #A81818",
"4+	c #A07878",
"5+	c #9EA3A3",
"6+	c #B6B6B6",
"7+	c #3A3A3A",
"8+	c #AB1313",
"9+	c #D87070",
"0+	c #DE5C5C",
"a+	c #D84343",
"b+	c #DA4949",
"c+	c #DA4B4B",
"d+	c #DA4D4D",
"e+	c #DB4E4E",
"f+	c #DB4D4D",
"g+	c #D94545",
"h+	c #D84444",
"i+	c #D35C5C",
"j+	c #A61313",
"k+	c #9E7070",
"l+	c #9CA1A1",
"m+	c #999898",
"n+	c #3C3C3C",
"o+	c #AB1212",
"p+	c #D76B6B",
"q+	c #DD5555",
"r+	c #D63D3D",
"s+	c #D84242",
"t+	c #D94646",
"u+	c #D84646",
"v+	c #D84141",
"w+	c #D83F3F",
"x+	c #D63B3B",
"y+	c #D63939",
"z+	c #E16565",
"A+	c #D15454",
"B+	c #A71818",
"C+	c #9D7575",
"D+	c #999E9E",
"E+	c #C7C7C7",
"F+	c #3D3D3D",
"G+	c #AB1111",
"H+	c #D56464",
"I+	c #D63737",
"J+	c #D73D3D",
"K+	c #D73F3F",
"L+	c #D74141",
"M+	c #D73E3E",
"N+	c #D73C3C",
"O+	c #D73A3A",
"P+	c #D63838",
"Q+	c #D63535",
"R+	c #D53131",
"S+	c #D42F2F",
"T+	c #DC5252",
"U+	c #CD4646",
"V+	c #A61717",
"W+	c #9C6F6F",
"X+	c #989B9B",
"Y+	c #C6C6C6",
"Z+	c #A3A3A3",
"`+	c #3E3E3E",
" @	c #AA0F0F",
".@	c #D46060",
"+@	c #DA4A4A",
"@@	c #D32828",
"#@	c #D01B1B",
"$@	c #D01616",
"%@	c #CE1212",
"&@	c #CF1313",
"*@	c #D01C1C",
"=@	c #D32B2B",
"-@	c #D53333",
";@	c #D43131",
">@	c #D52E2E",
",@	c #D42B2B",
"'@	c #D42828",
")@	c #DA4848",
"!@	c #CD4141",
"~@	c #A61111",
"{@	c #9A7171",
"]@	c #3F3F3F",
"^@	c #A90C0C",
"/@	c #D04E4E",
"(@	c #D21F1F",
"_@	c #CA0000",
":@	c #CA0101",
"<@	c #CF1515",
"[@	c #D12222",
"}@	c #D22626",
"|@	c #D22424",
"1@	c #D11F1F",
"2@	c #D12020",
"3@	c #C72B2B",
"4@	c #A31010",
"5@	c #9A7979",
"6@	c #B3B3B3",
"7@	c #373737",
"8@	c #323232",
"9@	c #414141",
"0@	c #A80707",
"a@	c #CC3F3F",
"b@	c #D11919",
"c@	c #CB0000",
"d@	c #CC0000",
"e@	c #CB0202",
"f@	c #CC0707",
"g@	c #CC0505",
"h@	c #CC0808",
"i@	c #C42323",
"j@	c #A41414",
"k@	c #9D7979",
"l@	c #424242",
"m@	c #A80808",
"n@	c #CD3D3D",
"o@	c #D11818",
"p@	c #D73434",
"q@	c #C42424",
"r@	c #A31414",
"s@	c #9C7C7C",
"t@	c #9CA0A0",
"u@	c #434343",
"v@	c #CC3B3B",
"w@	c #D11717",
"x@	c #D52D2D",
"y@	c #C21F1F",
"z@	c #A10E0E",
"A@	c #997575",
"B@	c #989C9C",
"C@	c #999A9A",
"D@	c #3B3B3B",
"E@	c #444444",
"F@	c #CC3737",
"G@	c #D21C1C",
"H@	c #CD0707",
"I@	c #CD0909",
"J@	c #CD0808",
"K@	c #CB0505",
"L@	c #C21B1B",
"M@	c #A21313",
"N@	c #957575",
"O@	c #959A9A",
"P@	c #454545",
"Q@	c #CA3939",
"R@	c #D94949",
"S@	c #D74343",
"T@	c #D74242",
"U@	c #D64242",
"V@	c #D64141",
"W@	c #D63E3E",
"X@	c #D53232",
"Y@	c #CB0303",
"Z@	c #D72F2F",
"`@	c #C21C1C",
" #	c #A21212",
".#	c #917777",
"+#	c #929393",
"@#	c #474747",
"##	c #A10000",
"$#	c #A00000",
"%#	c #9F0000",
"&#	c #A10202",
"*#	c #CB2A2A",
"=#	c #CC0303",
"-#	c #C31E1E",
";#	c #9F0C0C",
">#	c #8E6D6D",
",#	c #8D8E8E",
"'#	c #980303",
")#	c #CB2626",
"!#	c #CC0909",
"~#	c #C41E1E",
"{#	c #A41515",
"]#	c #906C6C",
"^#	c #8B8F8F",
"/#	c #494949",
"(#	c #990303",
"_#	c #D62C2C",
":#	c #900303",
"<#	c #8D6B6B",
"[#	c #969B9B",
"}#	c #4B4B4B",
"|#	c #9B0303",
"1#	c #CB2727",
"2#	c #C21A1A",
"3#	c #970000",
"4#	c #310808",
"5#	c #7B7F7F",
"6#	c #858685",
"7#	c #3C3B3B",
"8#	c #3D3C3C",
"9#	c #3E3E3D",
"0#	c #4C4C4B",
"a#	c #9E0202",
"b#	c #B61010",
"c#	c #030909",
"d#	c #848483",
"e#	c #A6A6A6",
"f#	c #A4A4A4",
"g#	c #919192",
"h#	c #7A7B78",
"i#	c #585953",
"j#	c #3E3F37",
"k#	c #383831",
"l#	c #3A3B34",
"m#	c #3C3D35",
"n#	c #3F4038",
"o#	c #404138",
"p#	c #40413A",
"q#	c #41423A",
"r#	c #42433B",
"s#	c #50504A",
"t#	c #696A67",
"u#	c #A8A8A8",
"v#	c #959596",
"w#	c #5E5F53",
"x#	c #414331",
"y#	c #3E3F2D",
"z#	c #3F412E",
"A#	c #41422F",
"B#	c #434432",
"C#	c #444633",
"D#	c #444634",
"E#	c #464735",
"F#	c #474936",
"G#	c #474937",
"H#	c #484A37",
"I#	c #494A38",
"J#	c #565845",
"K#	c #6D6E65",
"L#	c #B5B5B5",
"M#	c #AAAAAA",
"N#	c #9D9C9D",
"O#	c #939391",
"P#	c #77796D",
"Q#	c #484B2F",
"R#	c #404424",
"S#	c #444827",
"T#	c #444829",
"U#	c #46492A",
"V#	c #464A2B",
"W#	c #484B2B",
"X#	c #494D2D",
"Y#	c #4A4E2E",
"Z#	c #4B4E2F",
"`#	c #4C4F30",
" $	c #4C5031",
".$	c #4E5131",
"+$	c #4E5132",
"@$	c #4E5232",
"#$	c #5B5F40",
"$$	c #707162",
"%$	c #101011",
"&$	c #90908F",
"*$	c #A4A4A5",
"=$	c #A4A3A5",
"-$	c #999A97",
";$	c #7F8071",
">$	c #595D3C",
",$	c #44481D",
"'$	c #474B20",
")$	c #494D23",
"!$	c #4A4E24",
"~$	c #4B5024",
"{$	c #4B5025",
"]$	c #4D5127",
"^$	c #4E5227",
"/$	c #4F5329",
"($	c #505429",
"_$	c #51552B",
":$	c #51562A",
"<$	c #52572C",
"[$	c #53572D",
"}$	c #53582D",
"|$	c #53582E",
"1$	c #61653B",
"2$	c #737460",
"3$	c #90908E",
"4$	c #AAAAAC",
"5$	c #A5A5A6",
"6$	c #8A8C7B",
"7$	c #60653C",
"8$	c #4C511C",
"9$	c #4C511B",
"0$	c #4D521D",
"a$	c #4E541E",
"b$	c #50551F",
"c$	c #50561F",
"d$	c #515721",
"e$	c #525721",
"f$	c #525822",
"g$	c #545924",
"h$	c #555A24",
"i$	c #555B24",
"j$	c #565C26",
"k$	c #575D27",
"l$	c #585E28",
"m$	c #595E28",
"n$	c #595E29",
"o$	c #656B36",
"p$	c #75775E",
"q$	c #0F0E10",
"r$	c #11100F",
"s$	c #8F8F8E",
"t$	c #AAAAAB",
"u$	c #969889",
"v$	c #6F7446",
"w$	c #515917",
"x$	c #505712",
"y$	c #535A18",
"z$	c #535B19",
"A$	c #545C19",
"B$	c #555D1A",
"C$	c #565C1B",
"D$	c #565E1B",
"E$	c #575E1D",
"F$	c #585F1D",
"G$	c #58601D",
"H$	c #59601E",
"I$	c #5A611F",
"J$	c #5A6220",
"K$	c #5C6320",
"L$	c #5C6321",
"M$	c #5C6322",
"N$	c #5D6422",
"O$	c #5E6422",
"P$	c #5E6523",
"Q$	c #6A7131",
"R$	c #787A5C",
"S$	c #0E0E10",
"T$	c #10110F",
"U$	c #A9A9AA",
"V$	c #ACABAF",
"W$	c #9B9C8E",
"X$	c #797E4E",
"Y$	c #5E661E",
"Z$	c #565E0F",
"`$	c #596113",
" %	c #5A6214",
".%	c #5B6215",
"+%	c #5B6316",
"@%	c #5C6416",
"#%	c #5C6516",
"$%	c #5D6517",
"%%	c #5D6518",
"&%	c #5E6618",
"*%	c #5F6719",
"=%	c #5F671A",
"-%	c #61681B",
";%	c #61691B",
">%	c #626A1C",
",%	c #636B1C",
"'%	c #636A1D",
")%	c #6F762B",
"!%	c #7A7E59",
"~%	c #0F0F10",
"{%	c #10100F",
"]%	c #AAA9AC",
"^%	c #7F8550",
"/%	c #646C18",
"(%	c #5F680F",
"_%	c #5F6810",
":%	c #606810",
"<%	c #616911",
"[%	c #616A11",
"}%	c #626A12",
"|%	c #626B13",
"1%	c #636C13",
"2%	c #636B13",
"3%	c #646C14",
"4%	c #646D14",
"5%	c #646D15",
"6%	c #656E15",
"7%	c #656E16",
"8%	c #666F16",
"9%	c #666F17",
"0%	c #677017",
"a%	c #737C25",
"b%	c #7D8157",
"c%	c #8F8F8D",
"d%	c #B6B6B2",
"e%	c #959978",
"f%	c #6E781B",
"g%	c #69730E",
"h%	c #6C7614",
"i%	c #6C7714",
"j%	c #6D7614",
"k%	c #6D7714",
"l%	c #6D7715",
"m%	c #6D7815",
"n%	c #6E7816",
"o%	c #6E7916",
"p%	c #6F7A17",
"q%	c #707A18",
"r%	c #717B19",
"s%	c #7C8527",
"t%	c #7F8455",
"u%	c #6F7067",
"v%	c #8C9069",
"w%	c #797F42",
"x%	c #7A8245",
"y%	c #7C8248",
"z%	c #7D8248",
"A%	c #7D8348",
"B%	c #7E8349",
"C%	c #7E8449",
"D%	c #7F844A",
"E%	c #7F854A",
"F%	c #7F854B",
"G%	c #80864B",
"H%	c #80864C",
"I%	c #81864D",
"J%	c #868C50",
"K%	c #6D714B",
"L%	c #0D0D0E",
"M%	c #070706",
"N%	c #0A0A06",
"O%	c #0A0A07",
"P%	c #0A0A08",
"Q%	c #0A0B08",
"R%	c #0B0B0A",
"S%	c #080806",
"                                                                                                ",
"                                                                                                ",
"                            . + @ # # # # $ % . % . . & & * * = * = * * * * * * * * * * - ;     ",
"                          $ > , ' ) ! ~ { > ] ^ / ( _ : < [ } | 1 2 3 4 4 4 5 5 5 5 5 1 6 7     ",
"                          + 8 9 0 , a b c d e f g h i / ( _ j k : l m n o o p p p q q r 2 -     ",
"                          s t u v w b c d e x y h i / z A B j : C 2 D E F F G H H G G I J K     ",
"                          @ v 9 L 8 M N O P Q x y ] ^ R S ( T j j l n H G U G U V V U W J K     ",
"                          @ L X Y L t M N ! P Q x y ] ^ Z / z A T ` n U U V V V  . . ...J K     ",
"                          s +.@.#.Y , w ' ) O P e $.> %.&.Z R S z C o V V  . . .*.*.*.=.| K     ",
"                          @ Y -.;.>.,.'.w M ) O P ).$.> g h &.Z / : q V *.*.!.!.!.!.!.~.| K     ",
"                          @ {.].^.;.#.+., w M N O d ).{ f y ] &.i j /.*.*.!.!.(.(.(.(._.} K     ",
"                  :.      @ <.[.}.^.|.#.+., w ' N c d ).{ f y ] h _ 1.!.!.D (.D D D D _.l K     ",
"                  2.3.      <.[.4.^.|.>.{.,., w M N c 5.~ Q x y ] A I !.6.6.n 6.n o n 7.[ K     ",
"                  8.9.0.  a.<.b.9 }.c.d.<.+.L v w ' N c d ).Q x > ( W 6.n n n o o p p r ` e.    ",
"                  f.g.h.i.j.k.l.m.4.c.d.#.Y L , w M n.) ! d e $.x S ..n n o o p p q q o.< e.    ",
"                  p.q.r.s.t.u.v.m.9 u ;.>.Y ,.'.t a ' ) c 5.).{ x / m o p q q /././.q w.< e.    ",
"                  x.y.z.A.B.C.D.E.F.^.c.>.{.+.'.8 w ' N G.d 5.Q x R ~.p q q /./.1.1.1.H.C e.    ",
"    I.J.K.L.K.K.M.N.O.P.Q.R.S.T.U.V.}.c.|.<.+.0 v w W.b O , @.>.~ R X.q /.1.I 1.I I I Y.C =     ",
"  x.Z.`. +.+++@+@+++#+$+%+&+*+=+-+;+>+u |.<.Y 0 v t W.b c L ,+,+'+{ X.1.I W W ..W ....)+!+e.    ",
"  ~+{+]+^+/+(+_+_+:+_+<+[+}+|+1+2+3+4+5+;.>.{.,.'.8 a ' N ! g v 6+t 7.I W W ..m m m =.7+: e.    ",
"  8+9+0+a+b+c+d+e+e+e+f+c+b+g+h+P.i+j+k+l+m+{.+.'.8 w M N G.d d.6+y _.W ....m m =.=.~.n+k =     ",
"  o+p+q+r+s+h+g+t+t+t+u+a+v+w+x+y+z+A+B+C+D+#.Y L , t M n.c Y E+v : o...m =.~.~.~.X.~.F+k =     ",
"  G+H+e+I+J+K+w+L+v+K+M+N+O+P+Q+R+S+T+U+V+W+X+Y 0 '.t W.N , Y+Z+&.S w.m =.~.X.X.X._._.`+j =     ",
"   @.@+@@@#@$@%@&@*@=@P+Q+-@;@>@,@'@@@)@!@~@{@<.,.'.v W.v Y+[.y > ] H.=.~.X.X._._.7.7.]@B =     ",
"  ^@/@(@_@_@_@_@_@_@_@:@<@[@}@|@[@1@2@J+3@4@5@<.,.L v W.'+6@e Q ~ g 7@~._.7.8@7.8@r 8@9@_ =     ",
"  0@a@b@c@d@d@d@d@d@d@c@c@_@e@f@g@h@S+i@j@k@D+#.Y L , t a N c ! 5.y Y._.7.8@8@r r o.o.l@T *     ",
"  m@n@o@c@d@d@d@d@d@c@d@c@c@c@_@g@p@q@r@s@t@;.>.Y 0 '.8 W.' ) O ! > )+7.8@r r o.w.w.w.u@T =     ",
"  0@v@w@_@c@c@c@c@c@c@c@d@d@_@g@x@y@z@A@B@m+C@>.{.+.L 8 w ' N G.! f D@7.r o.o.H.H.H.H.E@( =     ",
"  0@F@G@H@I@J@J@J@J@f@c@d@_@K@,@L@M@N@O@<.#.>.>.<.Y L v t M b ) O f n+r o.w.H.H.7@7@Y.P@( =     ",
"  0@Q@R@S@T@U@V@W@r+X@g@_@Y@Z@`@ #.#+#Y {.<.#.>.#.Y ,., t a n.) c $.n+o.w.H.7@Y.Y.Y.Y.@#z =     ",
"    ##$#$#$#$#%#%#&#*#g@=#}@-#;#>#,#,.Y {.#.>.d.#.{.,., 8 a n.N c $.F+o.7@Y.Y.)+7+D@7+@#S =     ",
"                  '#)#!#|@~#{#]#^#L +.<.>.d.d.;.d.{.+.L 8 w M N G.{ ]@H.Y.)+)+7+D@n+n+/#z =     ",
"                  (#)#_#L@:#<#[#'.+.<.|.;.c.u u d.<.Y 0 v t M n.n.).]@7@)+)+7+D@n+n+F+}#/ *     ",
"                  |#1#2#3#4#5#}.{.d.c.}.4.9 4.u |.>.{.0 '.t a 6#> 4 Y.Y.)+7+7#8#F+9#`+0#/ *     ",
"                  a#b###  c#d#e#c.}.9 f#e#f#m.^.;.d.{.,.0 g#h#i#j#k#l#m#j#n#o#p#q#r#r#s#t#*     ",
"                  $#$#      a ,+m.e#'+u#u#X m.4.c.d.#.v#v w#x#y#z#A#x#B#C#D#E#F#G#H#I#J#K#*     ",
"                  :.      % '.L#'+M#M#@.u#X Z+4.N#|.O#P#Q#R#S#T#U#V#W#X#Y#Z#`# $.$+$@$#$$$&     ",
"                          %$&$L#u#M#@.@.@.'+*$=$-$;$>$,$'$)$!$~${$]$^$/$($_$:$<$[$}$|$1$2$&     ",
"                          . 3$L#u#M#M#@.@.4$5$6$7$8$9$0$a$b$c$d$e$f$g$h$i$j$j$k$l$m$n$o$p$q$    ",
"                          r$s$L#u#@.@.t$M#u$v$w$x$y$z$A$B$C$D$E$F$G$H$I$J$K$L$M$N$O$P$Q$R$S$    ",
"                          T$'.L#u#U$V$W$X$Y$Z$`$ % %.%+%@%#%$%%%&%*%*%=%-%-%;%>%>%,%'%)%!%~%    ",
"                          {%s$L#]%]%^%/%(%(%_%:%<%<%[%}%}%|%1%2%3%4%5%6%6%7%8%8%9%0%0%a%b%~%    ",
"                          . c%d%e%f%g%h%i%j%i%k%k%l%m%m%m%n%o%o%o%o%p%p%p%q%q%q%r%r%r%s%t%~%    ",
"                          = u%v%w%x%y%y%z%A%A%A%A%A%B%B%B%C%D%D%E%E%E%F%F%G%G%G%H%H%I%J%K%L%    ",
"                          ; M%N%N%O%O%O%O%O%O%O%O%O%O%O%O%O%P%P%Q%Q%Q%Q%Q%Q%Q%Q%Q%Q%R%R%S%;     ",
"                                                                                                ",
"                                                                                                ",
"                                                                                                "};
