<?xml version="1.0" encoding="UTF-8" standalone="no"?>
<svg
   xmlns:dc="http://purl.org/dc/elements/1.1/"
   xmlns:cc="http://creativecommons.org/ns#"
   xmlns:rdf="http://www.w3.org/1999/02/22-rdf-syntax-ns#"
   xmlns:svg="http://www.w3.org/2000/svg"
   xmlns="http://www.w3.org/2000/svg"
   xmlns:sodipodi="http://sodipodi.sourceforge.net/DTD/sodipodi-0.dtd"
   xmlns:inkscape="http://www.inkscape.org/namespaces/inkscape"
   width="749"
   height="895"
   version="1.1"
   id="svg3047"
   inkscape:version="0.48.2 r9819"
   sodipodi:docname="Xorg.svg"
   inkscape:export-filename="/home/webnull/Praca/python/xsm-py-html/xsm-py/Xorg.png"
   inkscape:export-xdpi="90"
   inkscape:export-ydpi="90">
  <metadata
     id="metadata3069">
    <rdf:RDF>
      <cc:Work
         rdf:about="">
        <dc:format>image/svg+xml</dc:format>
        <dc:type
           rdf:resource="http://purl.org/dc/dcmitype/StillImage" />
        <dc:title></dc:title>
      </cc:Work>
    </rdf:RDF>
  </metadata>
  <sodipodi:namedview
     pagecolor="#ffffff"
     bordercolor="#666666"
     borderopacity="1"
     objecttolerance="10"
     gridtolerance="10"
     guidetolerance="10"
     inkscape:pageopacity="0.00784314"
     inkscape:pageshadow="2"
     inkscape:window-width="1616"
     inkscape:window-height="924"
     id="namedview3067"
     showgrid="false"
     inkscape:zoom="1.5623188"
     inkscape:cx="297.72661"
     inkscape:cy="333.86894"
     inkscape:window-x="0"
     inkscape:window-y="27"
     inkscape:window-maximized="0"
     inkscape:current-layer="g3060"
     showguides="true" />
  <style
     type="text/css"
     id="style3049">
#P1 {fill:url(#LO)}
rect {opacity:.40740739;fill:#000cff;width:.50507629;height:0}
</style>
  <defs
     id="defs3051">
    <linearGradient
       id="LO"
       gradientUnits="userSpaceOnUse"
       x1="319.20822"
       y1="235.14877"
       x2="657.65295"
       y2="269.49396"
       gradientTransform="matrix(2.0020214,0,0,2.5099229,-323.78777,-695.17318)">
      <stop
         style="stop-color:#e54c18"
         offset="0"
         id="stop3054" />
      <stop
         style="stop-color:#fec350"
         offset="1"
         id="stop3056" />
    </linearGradient>
  </defs>
  <g
     transform="translate(141.00375,522.44265)"
     id="g3058">
    <g
       transform="translate(-413.2102,-40.70387)"
       id="g3060">
      <path
         d="M 361.05152,285.45919 583.47066,-79.122656 354.48599,-479.98993 l 147.17733,0.15331 182.46024,315.20332 -272.81573,450.09249 -50.25631,0 z M 796.38667,285.717 615.1861,-30.027435 890.27353,-480.33147 l 49.01296,0 -223.32685,366.30203 227.60669,399.74644 -147.17966,0 z"
         id="path3062"
         inkscape:connector-curvature="0"
         inkscape:export-filename="/home/webnull/Praca/python/xsm-py-html/xsm-py/Xorg.png"
         inkscape:export-xdpi="90"
         inkscape:export-ydpi="90" />
      <path
         id="P1"
         d="m 650.01692,-334.17972 c -17.71996,0 -36.6516,1.72021 -53.69444,3.77123 30.3625,49.64626 55.55623,91.68625 84.55111,139.43093 -16.27396,-43.90591 -49.72149,-86.00901 -38.15847,-107.66232 11.44588,-21.43394 32.53499,-17.82626 34.14139,-17.82626 33.81112,0 66.35751,4.78739 96.78522,13.6477 l 7.13219,-12.31431 c -40.58257,-13.09743 -84.66245,-19.04697 -130.757,-19.04697 z m 183.12238,40.06757 -6.56913,11.76526 c 93.74626,46.02357 157.15867,133.93021 157.15867,234.677785 0,148.351575 -137.46848,268.718625 -306.87233,268.718625 -169.40384,-3e-5 -306.93493,-120.36708 -306.93493,-268.718625 3e-5,-80.788795 40.78435,-153.306145 105.29383,-202.597815 l -19.83252,-37.88416 c -101.19447,53.79225 -168.35748,148.21 -168.3575,255.698378 0,167.245412 162.60918,302.916322 362.99153,302.916322 200.3823,0 363.05398,-135.67089 363.05408,-302.916322 0,-111.523218 -72.31815,-209.057638 -179.9317,-261.659448 z"
         style="fill:url(#LO)"
         inkscape:connector-curvature="0"
         inkscape:export-filename="/home/webnull/Praca/python/xsm-py-html/xsm-py/Xorg.png"
         inkscape:export-xdpi="90"
         inkscape:export-ydpi="90" />
      <path
         style="fill:#ffffff"
         d="M 685.46026,90.770573 C 644.90124,20.08979 616.64921,-30.56502 617.24273,-31.540803 c 0.5572,-0.916108 62.26472,-101.973757 137.12782,-224.572597 l 136.11474,-222.90701 22.98261,0 c 12.64042,0 22.98259,0.39745 22.98259,0.88323 0,0.48576 -49.59182,82.20927 -110.20405,181.60779 -60.61222,99.39851 -110.18234,181.59711 -110.1558,182.6636 0.0265,1.06651 34.84574,63.027645 77.37607,137.691449 l 77.32781,135.752371 -11.06143,7.08552 c -30.42664,19.49016 -58.70992,32.01317 -94.57292,41.87411 l -10.46932,2.87866 -69.23059,-120.645747 0,0 z"
         id="path3073"
         inkscape:connector-curvature="0"
         inkscape:export-filename="/home/webnull/Praca/python/xsm-py-html/xsm-py/Xorg.png"
         inkscape:export-xdpi="90"
         inkscape:export-ydpi="90" />
      <path
         style="fill:#ffffff"
         d="m 788.03406,269.58996 c -5.06055,-8.85566 -9.201,-16.808 -9.201,-17.6719 0,-0.86388 1.11039,-1.57071 2.46755,-1.57071 4.48747,0 42.72684,-15.80877 60.32313,-24.93857 9.51472,-4.93668 24.42534,-13.63506 33.13471,-19.32974 8.70938,-5.69464 16.00263,-10.35393 16.20724,-10.35393 0.57426,0 50.61056,88.06394 50.61056,89.07466 0,0.49028 -32.47676,0.89143 -72.17059,0.89143 l -72.17061,0 -9.20099,-16.10124 z"
         id="path3075"
         inkscape:connector-curvature="0"
         inkscape:export-filename="/home/webnull/Praca/python/xsm-py-html/xsm-py/Xorg.png"
         inkscape:export-xdpi="90"
         inkscape:export-ydpi="90" />
      <path
         style="fill:#ffffff"
         d="m 364.42692,282.11235 c 1.99943,-4.22296 49.32659,-81.47062 50.20244,-81.9407 0.50316,-0.27007 8.51368,4.34779 17.80114,10.26189 l 16.88633,10.75292 -18.87755,31.04745 -18.8775,31.04746 -24.05131,0.43751 c -19.19097,0.3491 -23.85577,0.0251 -23.08355,-1.60653 l 0,0 z"
         id="path3077"
         inkscape:connector-curvature="0"
         inkscape:export-filename="/home/webnull/Praca/python/xsm-py-html/xsm-py/Xorg.png"
         inkscape:export-xdpi="90"
         inkscape:export-ydpi="90" />
      <path
         style="fill:#666666"
         d="m 469.36475,148.72365 c -8.39497,-6.93064 -14.04134,-12.64288 -13.96104,-14.12389 0.0741,-1.36773 28.9066,-49.683027 64.07211,-107.367325 35.1655,-57.684302 63.87965,-105.725292 63.80916,-106.757747 -0.0704,-1.032456 -22.23226,-40.554588 -49.24839,-87.826928 -27.01612,-47.27235 -78.12769,-136.73639 -113.5813,-198.80895 l -64.46106,-112.85922 72.70329,0.0506 72.70329,0.0506 89.70097,155.10334 c 49.33551,85.30686 90.16175,156.1316 90.72496,157.38832 0.724,1.61552 -27.79104,49.82135 -97.3339,164.5468486 C 530.396,87.363313 485.53322,160.37657 484.79778,160.37094 c -0.73543,-0.007 -7.68029,-5.24698 -15.43303,-11.64741 l 0,0 z"
         id="path3079"
         inkscape:connector-curvature="0"
         inkscape:export-filename="/home/webnull/Praca/python/xsm-py-html/xsm-py/Xorg.png"
         inkscape:export-xdpi="90"
         inkscape:export-ydpi="90" />
      <path
         style="fill:#666666"
         d="M 733.94825,173.87277 C 658.59214,43.013763 618.65277,-27.6226 618.65277,-30.037747 c 0,-1.481035 266.45489,-440.083803 271.05473,-446.174443 2.87329,-3.8045 2.90735,-3.80842 23.98788,-2.75968 l 21.11049,1.05021 -93.72709,154.96463 c -97.0369,160.43687 -123.51538,204.69051 -124.6028,208.24918 -0.35018,1.14602 2.40056,7.72188 6.11272,14.613 8.08289,15.004713 64.43801,114.399695 111.78412,197.156513 18.78867,32.840987 34.16121,60.382477 34.16121,61.203377 0,3.63246 -44.60186,28.21272 -67.27571,37.0759 -11.16672,4.36506 -43.39509,14.94776 -45.55824,14.95977 -0.42462,0.003 -10.21294,-16.39022 -21.75183,-36.42794 z"
         id="path3100"
         inkscape:connector-curvature="0"
         inkscape:export-filename="/home/webnull/Praca/python/xsm-py-html/xsm-py/Xorg.png"
         inkscape:export-xdpi="90"
         inkscape:export-ydpi="90" />
      <path
         style="fill:#666666"
         d="m 793.8845,278.06013 c -7.31836,-12.7257 -12.35205,-22.35211 -12.75104,-24.3849 -0.23609,-1.20289 5.30741,-3.99641 14.75305,-7.43445 23.20893,-8.44761 47.97785,-20.54402 72.55978,-35.43611 12.28561,-7.4428 22.71105,-12.9768 23.16761,-12.29781 1.62094,2.41069 17.69692,30.54443 32.91724,57.60688 l 15.44095,27.45463 -52.69813,1.05928 c -28.98397,0.58261 -60.86629,1.06025 -70.84958,1.0614 l -18.1514,9.2e-4 -4.38848,-7.63107 z"
         id="path3102"
         inkscape:connector-curvature="0"
         inkscape:export-filename="/home/webnull/Praca/python/xsm-py-html/xsm-py/Xorg.png"
         inkscape:export-xdpi="90"
         inkscape:export-ydpi="90" />
      <path
         style="fill:#666666"
         d="m 366.20866,281.6093 c 0,-2.14363 46.91769,-78.28519 48.78196,-79.16703 0.59561,-0.28171 8.37486,3.86082 17.28725,9.20565 l 16.20433,9.71788 -6.29773,10.0728 c -3.46373,5.54006 -11.91164,19.29031 -18.77312,30.55616 l -12.4754,20.48335 -22.36365,0 c -12.30002,0 -22.36364,-0.39096 -22.36364,-0.86881 z"
         id="path3104"
         inkscape:connector-curvature="0"
         inkscape:export-filename="/home/webnull/Praca/python/xsm-py-html/xsm-py/Xorg.png"
         inkscape:export-xdpi="90"
         inkscape:export-ydpi="90" />
      <path
         style="fill:#666666"
         d=""
         id="path3106"
         inkscape:connector-curvature="0"
         inkscape:export-filename="/home/webnull/Praca/python/xsm-py-html/xsm-py/Xorg.png"
         inkscape:export-xdpi="90"
         inkscape:export-ydpi="90" />
      <path
         style="fill:#666666"
         d="m 365.30816,280.51838 c 1.11518,-1.94709 3.58664,-6.1112 6.42,-10.81689 l 0.30787,-0.51131 0.54731,-2e-4 0.5473,-2.1e-4 -0.0195,0.0316 c -0.0843,0.13713 -1.26531,2.14045 -1.85649,3.14912 -2.24344,3.82783 -3.74171,6.47781 -4.49753,7.95482 l -0.15195,0.29694 -0.67841,2.2e-4 -0.67843,2.4e-4 0.0597,-0.10422 0,0 z"
         id="path3108"
         inkscape:connector-curvature="0"
         inkscape:export-filename="/home/webnull/Praca/python/xsm-py-html/xsm-py/Xorg.png"
         inkscape:export-xdpi="90"
         inkscape:export-ydpi="90" />
      <path
         style="fill:#666666"
         d="m 374.14819,283.8323 c -4.387,-0.0432 -6.98938,-0.20397 -8.39115,-0.51848 -0.39537,-0.0887 -0.65404,-0.17185 -0.88716,-0.2852 -0.41581,-0.20213 -0.5742,-0.44433 -0.49532,-0.75731 0.0319,-0.12629 0.25205,-0.54863 0.71101,-1.36368 l 0.15681,-0.27849 0.67884,-3.1e-4 c 0.37336,-1.6e-4 0.67885,9.3e-4 0.67885,0.004 0,0.003 -0.0171,0.0388 -0.038,0.0801 -0.0561,0.11052 -0.22061,0.47172 -0.26466,0.58112 -0.0535,0.13287 -0.0894,0.25375 -0.0894,0.30111 0,0.0342 0.006,0.0439 0.0323,0.0646 0.0603,0.0454 0.24382,0.096 0.5285,0.14535 1.44686,0.25111 6.04187,0.47568 12.01614,0.58724 0.55802,0.0109 1.17008,0.0219 1.36013,0.0256 l 0.34555,0.006 0,0.69561 0,0.69561 -0.5612,0.006 c -0.59233,0.006 -5.30416,0.0145 -5.78119,0.01 l 0,0 z"
         id="path3110"
         inkscape:connector-curvature="0"
         inkscape:export-filename="/home/webnull/Praca/python/xsm-py-html/xsm-py/Xorg.png"
         inkscape:export-xdpi="90"
         inkscape:export-ydpi="90" />
      <path
         style="fill:#666666"
         d="m 380.51,283.11557 0,-0.67993 2.36247,0.0291 c 1.29936,0.016 8.14882,0.0296 15.22103,0.0302 l 12.85856,9.3e-4 5.95504,-9.77465 c 3.27528,-5.37606 5.96834,-9.79699 5.98458,-9.82431 0.0222,-0.0373 0.15748,-0.0468 0.54153,-0.0388 l 0.51203,0.0109 -6.18753,10.1762 c -3.40315,5.59693 -6.19688,10.18546 -6.2083,10.19678 -0.0311,0.0307 -28.94525,0.55323 -30.61788,0.55328 l -0.42153,10e-6 0,-0.67993 z"
         id="path3112"
         inkscape:connector-curvature="0"
         inkscape:export-filename="/home/webnull/Praca/python/xsm-py-html/xsm-py/Xorg.png"
         inkscape:export-xdpi="90"
         inkscape:export-ydpi="90" />
      <path
         style="fill:#666666"
         d="m 403.34067,218.00188 c 0.007,-0.0189 3.28304,-5.29407 4.25857,-6.85798 0.82647,-1.32493 2.11878,-3.3893 2.61481,-4.17701 l 0.24273,-0.38545 0.75381,0 c 0.41459,0 0.75381,0.003 0.75381,0.006 0,0.003 -0.0523,0.0824 -0.11602,0.17697 -0.72437,1.07361 -2.75142,4.18709 -4.41763,6.78533 -0.69204,1.07913 -2.41562,3.78093 -2.7714,4.34428 l -0.0735,0.11641 -0.62503,0.003 c -0.50802,9.3e-4 -0.62413,1.4e-4 -0.62018,-0.01 l 0,0 z"
         id="path3114"
         inkscape:connector-curvature="0"
         inkscape:export-filename="/home/webnull/Praca/python/xsm-py-html/xsm-py/Xorg.png"
         inkscape:export-xdpi="90"
         inkscape:export-ydpi="90" />
      <path
         style="fill:#666666"
         d="m 372.07226,269.16908 c 0,-0.0414 6.72056,-11.13276 10.07404,-16.62571 l 1.9968,-3.27073 0.49415,0 c 0.27178,0 0.49414,0.004 0.49414,0.01 0,0.006 -0.84968,1.40293 -1.88819,3.10616 -3.18729,5.22743 -7.94282,13.1151 -9.9078,16.4334 l -0.2152,0.36342 -0.52397,0 c -0.28818,0 -0.52397,-0.006 -0.52397,-0.0159 z"
         id="path3116"
         inkscape:connector-curvature="0"
         inkscape:export-filename="/home/webnull/Praca/python/xsm-py-html/xsm-py/Xorg.png"
         inkscape:export-xdpi="90"
         inkscape:export-ydpi="90" />
      <path
         style="fill:#666666"
         d="m 384.1918,249.22329 c 0.0677,-0.17436 12.44284,-20.34623 16.79973,-27.38398 l 2.37126,-3.83031 0.57466,0.0248 c 0.31606,0.0137 0.57893,0.028 0.58414,0.0319 0.006,0.004 -0.32782,0.53828 -0.74011,1.18736 -3.84328,6.05068 -11.11788,17.74525 -16.48303,26.498 l -2.1566,3.5183 -0.48453,9.3e-4 c -0.37475,9.2e-4 -0.48022,-0.01 -0.46552,-0.0476 l 0,0 z"
         id="path3118"
         inkscape:connector-curvature="0"
         inkscape:export-filename="/home/webnull/Praca/python/xsm-py-html/xsm-py/Xorg.png"
         inkscape:export-xdpi="90"
         inkscape:export-ydpi="90" />
      <path
         style="fill:#666666"
         d="m 362.00974,284.21764 c 0.39797,-0.65134 12.36746,-20.2655 26.59885,-43.58701 23.12788,-37.90049 25.93206,-42.36275 26.41006,-42.02591 0.29411,0.20728 2.16406,1.48456 4.15542,2.83839 1.99133,1.35384 3.56831,2.51327 3.50437,2.57652 -0.0639,0.0632 -1.73233,-0.80006 -3.70753,-1.91848 -1.97521,-1.11842 -3.81826,-2.03349 -4.09567,-2.03349 -0.7296,0 -14.06198,21.33097 -37.23825,59.5788 -10.85045,17.90652 -13.49208,22.38466 -13.49208,22.87211 0,1.28934 7.48133,1.55705 32.78044,1.17301 l 14.74336,-0.22382 18.74482,-30.81892 c 10.30966,-16.95041 18.81545,-31.00266 18.90178,-31.22721 0.0987,-0.25672 -0.83979,-1.02614 -2.52808,-2.07265 -1.47678,-0.91541 -2.61625,-1.73242 -2.53217,-1.81559 0.0842,-0.0832 1.48722,0.59902 3.11811,1.51596 l 2.96528,1.66717 -19.6165,32.34269 -19.6165,32.34268 -24.90965,0 -24.90964,0 0.72358,-1.18425 0,0 z"
         id="path3120"
         inkscape:connector-curvature="0"
         inkscape:export-filename="/home/webnull/Praca/python/xsm-py-html/xsm-py/Xorg.png"
         inkscape:export-xdpi="90"
         inkscape:export-ydpi="90" />
      <path
         style="fill:#666666"
         d="m 422.94084,262.83078 c 0,-0.0477 9.01806,-14.7868 13.4691,-22.01387 3.49995,-5.68279 7.20693,-11.65359 7.29168,-11.74464 0.0333,-0.0358 0.15464,-0.0467 0.42775,-0.0388 l 0.38124,0.0109 -10.27063,16.8923 -10.27064,16.8923 -0.51425,0.0109 c -0.28283,0.006 -0.51425,9.2e-4 -0.51425,-0.01 z"
         id="path3122"
         inkscape:connector-curvature="0"
         inkscape:export-filename="/home/webnull/Praca/python/xsm-py-html/xsm-py/Xorg.png"
         inkscape:export-xdpi="90"
         inkscape:export-ydpi="90" />
      <path
         style="fill:#666666"
         d="m 443.73352,229.00061 c 0.34179,-0.5314 4.76297,-7.62285 4.76204,-7.63818 -9.2e-4,-0.0231 -12.65037,-7.61396 -16.97403,-10.18639 -7.62871,-4.53883 -14.26767,-8.12938 -16.02283,-8.66565 -0.37171,-0.11354 -0.50543,-0.11326 -0.62998,9.2e-4 -0.26796,0.24643 -1.18671,1.50443 -2.2543,3.08677 l -0.66296,0.9826 -0.72503,0 c -0.39876,0 -0.72503,-0.006 -0.72503,-0.0162 0,-0.0543 2.934,-4.63825 3.32887,-5.20088 0.25081,-0.35734 0.85076,-1.12991 0.90159,-1.161 0.10147,-0.0621 1.04439,0.36694 2.45503,1.117 2.98102,1.58507 7.98105,4.56461 13.56614,8.08413 4.12536,2.59967 18.28675,11.6307 18.38837,11.72667 l 0.11519,0.10874 -2.36608,3.89202 -2.36607,3.89202 -0.40167,-9.2e-4 c -0.22091,-9.3e-4 -0.39605,-0.0109 -0.38919,-0.0211 z"
         id="path3124"
         inkscape:connector-curvature="0"
         inkscape:export-filename="/home/webnull/Praca/python/xsm-py-html/xsm-py/Xorg.png"
         inkscape:export-xdpi="90"
         inkscape:export-ydpi="90" />
      <path
         style="fill:#666666"
         d="m 793.05767,278.20631 c -9.72717,-17.02328 -14.03974,-25.06948 -14.07391,-26.25851 -0.0251,-0.87199 0.85212,-1.35877 2.93596,-1.62924 5.59198,-0.72583 37.2399,-13.72206 55.91497,-22.96147 12.37746,-6.12369 25.5445,-13.80928 43.01706,-25.10899 5.16615,-3.34101 7.10065,-4.57608 9.46472,-6.04269 l 0.64477,-0.39998 0.90927,1.50105 c 6.16279,10.17375 44.88792,78.34325 48.81617,85.9332 0.40569,0.78387 0.69607,1.46631 0.64528,1.51655 -0.15565,0.15397 -7.56319,0.38462 -17.93875,0.55855 -5.43464,0.0911 -26.78506,0.18543 -47.44538,0.20964 -20.66031,0.0243 -36.39962,0.0213 -34.97625,-0.006 1.42336,-0.0279 12.8573,-0.23112 25.40876,-0.45168 29.74519,-0.52269 73.55126,-1.40548 73.62292,-1.48366 0.10022,-0.10942 -32.28974,-57.46745 -40.95069,-72.51781 -6.71029,-11.66062 -7.30076,-12.6312 -7.68898,-12.63848 -1.4034,-0.0263 -8.84929,3.96852 -23.33639,12.52023 -14.09359,8.31943 -23.40992,13.44645 -33.48624,18.42839 -13.15491,6.50403 -22.62655,10.65541 -35.74345,15.66616 -8.24581,3.14994 -9.80476,3.76801 -11.92889,4.72942 -2.97324,1.34571 -5.12419,2.63648 -5.60624,3.36425 -0.25178,0.38013 -0.24629,0.45208 0.11449,1.50045 1.00503,2.92022 7.68949,15.35542 15.3399,28.53701 1.39782,2.40841 1.41217,2.44365 0.99597,2.4428 -0.3933,-7.8e-4 -0.71305,-0.50968 -4.65508,-7.40856 l 0,0 z"
         id="path3126"
         inkscape:connector-curvature="0"
         inkscape:export-filename="/home/webnull/Praca/python/xsm-py-html/xsm-py/Xorg.png"
         inkscape:export-xdpi="90"
         inkscape:export-ydpi="90" />
      <path
         style="fill:#666666"
         d="m 678.25379,77.955093 c -0.21278,-0.36268 -4.86837,-8.51403 -10.34576,-18.11414 -19.95283,-34.970846 -34.66565,-61.1691824 -43.38533,-77.253919 -3.27825,-6.047191 -7.05005,-13.390439 -7.11937,-13.860532 -0.022,-0.149751 9.9469,-16.641534 22.1533,-36.648411 l 22.19346,-36.376121 0.66657,-0.007 c 0.65695,-0.007 0.80079,0.0997 0.52732,0.38912 -0.37364,0.39539 -40.31204,66.769824 -43.28135,71.930128 l -1.13002,1.963825 0.3117,0.78225 c 1.81296,4.549908 22.49859,41.632634 53.39076,95.71257 3.76547,6.59184 6.8463,12.02026 6.8463,12.06316 0,0.043 -0.0991,0.078 -0.22036,0.078 -0.12115,0 -0.39444,-0.29674 -0.60722,-0.65941 l 0,0 z"
         id="path3128"
         inkscape:connector-curvature="0"
         inkscape:export-filename="/home/webnull/Praca/python/xsm-py-html/xsm-py/Xorg.png"
         inkscape:export-xdpi="90"
         inkscape:export-ydpi="90" />
      <path
         style="fill:#666666"
         d="m 682.32941,-138.08464 c 0.52085,-0.87208 27.79546,-45.52292 27.82928,-45.55888 0.0347,-0.0368 0.18978,-0.0468 0.60163,-0.0388 l 0.55499,0.011 -13.85183,22.84629 -13.85184,22.8463 -0.67905,0.011 -0.67903,0.011 0.0758,-0.12698 0,0 z"
         id="path3130"
         inkscape:connector-curvature="0"
         inkscape:export-filename="/home/webnull/Praca/python/xsm-py-html/xsm-py/Xorg.png"
         inkscape:export-xdpi="90"
         inkscape:export-ydpi="90" />
      <path
         style="fill:#666666"
         d="m 662.97459,-104.25803 c -0.0643,-0.0402 -0.35517,-0.0736 -0.64632,-0.0743 -0.29114,-6.6e-4 -0.52758,-0.0274 -0.52541,-0.0594 0.003,-0.032 4.6,-7.58117 10.21742,-16.77594 l 10.21349,-16.71775 0.64404,-0.0225 c 0.35422,-0.0123 0.64404,-0.004 0.64404,0.0173 0,0.0483 -20.29997,33.57309 -20.37634,33.65089 -0.0297,0.0302 -0.1066,0.0221 -0.17092,-0.0182 z"
         id="path3132"
         inkscape:connector-curvature="0"
         inkscape:export-filename="/home/webnull/Praca/python/xsm-py-html/xsm-py/Xorg.png"
         inkscape:export-xdpi="90"
         inkscape:export-ydpi="90" />
      <path
         style="fill:#666666"
         d="m 710.17687,-183.69988 c -2e-5,-0.003 2.61529,-4.28927 5.81179,-9.52419 l 5.81182,-9.51801 0.53752,0 c 0.29564,0 0.53754,0.008 0.53754,0.017 0,0.01 -2.59714,4.29742 -5.7714,9.52907 l -5.7714,9.51207 -0.57792,-0.006 c -0.31785,-0.003 -0.57793,-0.008 -0.57795,-0.011 z"
         id="path3134"
         inkscape:connector-curvature="0"
         inkscape:export-filename="/home/webnull/Praca/python/xsm-py-html/xsm-py/Xorg.png"
         inkscape:export-xdpi="90"
         inkscape:export-ydpi="90" />
      <path
         style="fill:#666666"
         d="m 721.87667,-202.77784 c 0,-0.0433 25.64511,-42.04635 25.71884,-42.12376 0.0328,-0.0344 0.24232,-0.0518 0.46559,-0.0388 l 0.40595,0.0239 -12.78264,21.06203 -12.78265,21.06204 -0.51254,0.0229 c -0.2819,0.0123 -0.51255,0.008 -0.51255,-0.008 z"
         id="path3136"
         inkscape:connector-curvature="0"
         inkscape:export-filename="/home/webnull/Praca/python/xsm-py-html/xsm-py/Xorg.png"
         inkscape:export-xdpi="90"
         inkscape:export-ydpi="90" />
      <path
         style="fill:#666666"
         d="m 747.83675,-245.19054 c 0.0287,-0.0764 10.28637,-16.90152 22.79469,-37.38918 16.91134,-27.69945 22.81611,-37.251 23.02984,-37.25303 0.25672,-0.003 0.23998,0.0775 -0.15683,0.74802 -0.24436,0.41292 -10.46662,17.2373 -22.71617,37.38752 -19.36688,31.8581 -22.31961,36.63734 -22.63784,36.64116 -0.20128,0.003 -0.34245,-0.0581 -0.31369,-0.13452 l 0,0 z"
         id="path3138"
         inkscape:connector-curvature="0"
         inkscape:export-filename="/home/webnull/Praca/python/xsm-py-html/xsm-py/Xorg.png"
         inkscape:export-xdpi="90"
         inkscape:export-ydpi="90" />
      <path
         style="fill:#666666"
         d="m 743.6968,-238.59418 c 0,-0.008 2.39211,-3.93349 5.31579,-8.72154 4.02782,-6.59626 5.32464,-8.70556 5.35231,-8.70556 0.0201,0 0.0364,0.004 0.0364,0.01 0,0.006 -1.16295,1.91855 -2.58435,4.25217 -3.59573,5.9034 -3.97092,6.52415 -3.97998,6.58483 -0.007,0.0456 0.002,0.0575 0.0597,0.0813 0.0372,0.0154 0.112,0.0337 0.16639,0.0408 0.0948,0.0123 0.1023,0.01 0.18185,-0.0613 0.34979,-0.31259 1.9106,-2.75638 5.58796,-8.74906 1.11916,-1.8238 1.33017,-2.15671 1.36748,-2.15738 0.0242,-4.4e-4 0.0441,0.003 0.0441,0.006 0,0.004 -0.65983,1.09226 -1.46629,2.41941 -0.80647,1.32715 -2.33427,3.84207 -3.39511,5.58871 -1.06086,1.74663 -1.93244,3.17212 -1.93686,3.16776 -0.005,-0.004 9.2e-4,-0.0254 0.0124,-0.0465 0.0201,-0.0371 0.0124,-0.0391 -0.20299,-0.0524 -0.32111,-0.0199 -0.63097,-0.006 -0.6644,0.0299 -0.0147,0.0157 -0.88915,1.43808 -1.94329,3.16077 -1.05414,1.72268 -1.92446,3.14044 -1.93406,3.15057 -0.01,0.01 -0.0175,0.011 -0.0175,0.003 z"
         id="path3140"
         inkscape:connector-curvature="0"
         inkscape:export-filename="/home/webnull/Praca/python/xsm-py-html/xsm-py/Xorg.png"
         inkscape:export-xdpi="90"
         inkscape:export-ydpi="90" />
      <path
         style="fill:#666666"
         d=""
         id="path3142"
         inkscape:connector-curvature="0"
         inkscape:export-filename="/home/webnull/Praca/python/xsm-py-html/xsm-py/Xorg.png"
         inkscape:export-xdpi="90"
         inkscape:export-ydpi="90" />
      <path
         style="fill:#666666"
         d="m 727.71302,-134.63838 c 0.008,-0.0123 0.17226,-0.29019 0.36535,-0.61818 1.00452,-1.70629 4.55311,-7.69527 5.93821,-10.02193 l 0.45605,-0.76608 0.27173,-0.003 c 0.21608,-0.003 0.27073,-7e-5 0.26687,0.01 -0.003,0.006 -1.29044,2.15922 -2.86167,4.78324 -1.57124,2.62403 -3.10741,5.19096 -3.41371,5.7043 l -0.55689,0.93335 -0.2401,0 -0.2401,0 0.0143,-0.0218 0,0 z"
         id="path3144"
         inkscape:connector-curvature="0"
         inkscape:export-filename="/home/webnull/Praca/python/xsm-py-html/xsm-py/Xorg.png"
         inkscape:export-xdpi="90"
         inkscape:export-ydpi="90" />
      <path
         style="fill:#666666"
         d="m 722.89647,-99.549653 c -1.91977,-3.555097 -3.48834,-6.756237 -4.68526,-9.561727 -0.37678,-0.88313 -0.91256,-2.22273 -0.89567,-2.23945 0.005,-0.004 0.0839,0.14003 0.17821,0.31926 0.70291,1.33541 3.52033,6.49189 5.52995,10.12096 0.53194,0.960567 0.97289,1.761317 0.97992,1.779407 0.0111,0.0303 -0.0213,0.0329 -0.42556,0.0325 l -0.43832,-4.4e-4 -0.24327,-0.45049 z"
         id="path3150"
         inkscape:connector-curvature="0"
         inkscape:export-filename="/home/webnull/Praca/python/xsm-py-html/xsm-py/Xorg.png"
         inkscape:export-xdpi="90"
         inkscape:export-ydpi="90" />
      <path
         style="fill:#666666"
         d="m 734.51587,-146.07573 c 0,-0.0226 0.94206,-1.60757 3.81874,-6.42468 l 2.51011,-4.20327 0.27661,0 c 0.2103,0 0.27326,0.008 0.2626,0.0343 -0.008,0.0188 -1.44191,2.41018 -3.1871,5.31407 l -3.17305,5.27978 -0.25395,0.008 c -0.13967,0.004 -0.25396,7.1e-4 -0.25396,-0.008 z"
         id="path3152"
         inkscape:connector-curvature="0"
         inkscape:export-filename="/home/webnull/Praca/python/xsm-py-html/xsm-py/Xorg.png"
         inkscape:export-xdpi="90"
         inkscape:export-ydpi="90" />
      <path
         style="fill:#666666"
         d=""
         id="path3154"
         inkscape:connector-curvature="0"
         inkscape:export-filename="/home/webnull/Praca/python/xsm-py-html/xsm-py/Xorg.png"
         inkscape:export-xdpi="90"
         inkscape:export-ydpi="90" />
      <path
         style="fill:#666666"
         d="m 791.07546,-316.10655 c 0.0217,-0.0533 8.73744,-14.34003 19.36838,-31.74821 l 19.32898,-31.65123 0.28473,-0.0242 c 0.15661,-0.0137 0.28474,-0.01 0.28474,0.01 0,0.0184 -7.06859,11.63659 -15.70798,25.8183 -8.6394,14.1817 -16.83518,27.639 -18.21286,29.9051 -2.02061,3.32365 -2.52165,4.09746 -2.59168,4.00273 -0.0477,-0.0646 -0.12849,-0.092 -0.17943,-0.0609 -0.12061,0.0738 -0.97867,1.34623 -1.848,2.74044 -0.61072,0.97945 -0.85004,1.31148 -0.72688,1.0085 l 0,0 z"
         id="path3156"
         inkscape:connector-curvature="0"
         inkscape:export-filename="/home/webnull/Praca/python/xsm-py-html/xsm-py/Xorg.png"
         inkscape:export-xdpi="90"
         inkscape:export-ydpi="90" />
      <path
         style="fill:#666666"
         d=""
         id="path3158"
         inkscape:connector-curvature="0"
         inkscape:export-filename="/home/webnull/Praca/python/xsm-py-html/xsm-py/Xorg.png"
         inkscape:export-xdpi="90"
         inkscape:export-ydpi="90" />
      <path
         style="fill:#666666"
         d="m 829.87283,-379.62655 c 0,-0.0632 25.33575,-41.55913 25.44798,-41.67967 0.0525,-0.0565 0.20045,-0.0913 0.32859,-0.0776 l 0.23297,0.0251 -4.26624,6.98187 c -2.34645,3.84005 -8.07973,13.23942 -12.74065,20.8875 l -8.47439,13.90561 -0.26413,0 c -0.14527,0 -0.26413,-0.0194 -0.26413,-0.043 z"
         id="path3160"
         inkscape:connector-curvature="0"
         inkscape:export-filename="/home/webnull/Praca/python/xsm-py-html/xsm-py/Xorg.png"
         inkscape:export-xdpi="90"
         inkscape:export-ydpi="90" />
      <path
         style="fill:#666666"
         d="m 851.85865,-415.72564 c 2.5e-4,-0.01 2.06849,-3.40464 4.59605,-7.54335 l 4.5956,-7.52492 0.31692,-0.006 c 0.1756,-0.003 0.31393,0.003 0.31024,0.0109 -0.005,0.01 -1.30296,2.13882 -2.88728,4.73218 -2.27693,3.72711 -2.88597,4.71081 -2.90632,4.69409 -0.0146,-0.0123 -0.1174,-0.0222 -0.23669,-0.0237 -0.17959,-0.003 -0.22048,0.003 -0.27491,0.0362 -0.0715,0.0433 -0.17841,0.21433 -2.24429,3.58792 -0.67933,1.10934 -1.24294,2.02527 -1.25246,2.03541 -0.0111,0.0109 -0.0172,0.0109 -0.017,0 l 0,0 z"
         id="path3162"
         inkscape:connector-curvature="0"
         inkscape:export-filename="/home/webnull/Praca/python/xsm-py-html/xsm-py/Xorg.png"
         inkscape:export-xdpi="90"
         inkscape:export-ydpi="90" />
      <path
         style="fill:#666666"
         d="m 862.98952,-433.90426 c 1.02456,-1.67818 7.63273,-12.5018 14.68483,-24.0525 l 12.82202,-21.00131 1.05871,9.3e-4 1.05869,9.3e-4 -0.46603,0.25002 c -0.98168,0.52668 -1.93066,1.60845 -3.35984,3.82994 -1.91965,2.98385 -8.79723,14.13016 -19.64241,31.83384 l -7.43734,12.14073 -0.29073,0.0242 -0.29071,0.0242 1.86281,-3.05123 z"
         id="path3164"
         inkscape:connector-curvature="0"
         inkscape:export-filename="/home/webnull/Praca/python/xsm-py-html/xsm-py/Xorg.png"
         inkscape:export-xdpi="90"
         inkscape:export-ydpi="90" />
      <path
         style="fill:#666666"
         d="m 741.0249,-156.84372 c 0,-0.0795 0.1278,-0.29342 10.34858,-17.32544 8.03483,-13.3893 27.00621,-44.89151 35.95854,-59.70958 l 4.19229,-6.93915 0.37604,0 c 0.20681,0 0.35324,0.037 0.32539,0.0823 -2.87759,4.67498 -41.62956,68.67213 -47.83015,78.98936 -2.1107,3.512 -3.03926,4.96314 -3.17661,4.96437 -0.10674,9.2e-4 -0.19408,-0.0268 -0.19408,-0.0618 z"
         id="path3166"
         inkscape:connector-curvature="0"
         inkscape:export-filename="/home/webnull/Praca/python/xsm-py-html/xsm-py/Xorg.png"
         inkscape:export-xdpi="90"
         inkscape:export-ydpi="90" />
      <path
         style="fill:#666666"
         d="m 791.8671,-241.37824 c 0.17277,-0.29397 8.87327,-14.70745 19.33445,-32.02995 l 19.02031,-31.49544 0.5377,-0.006 0.53769,-0.006 -0.22928,0.35656 c -0.12615,0.19611 -8.90227,14.6118 -19.50256,32.03488 l -19.27327,31.67834 -0.36959,3.8e-4 -0.3696,3.9e-4 0.31415,-0.5345 z"
         id="path3168"
         inkscape:connector-curvature="0"
         inkscape:export-filename="/home/webnull/Praca/python/xsm-py-html/xsm-py/Xorg.png"
         inkscape:export-xdpi="90"
         inkscape:export-ydpi="90" />
      <path
         style="fill:#666666"
         d="m 830.23891,-304.94012 c 0,-0.0142 3.25047,-5.40153 7.22323,-11.9721 3.97278,-6.57055 10.25487,-16.96264 13.96025,-23.09351 l 6.73702,-11.14705 0.65619,-0.003 c 0.36091,-9.3e-4 0.64788,0.0184 0.63771,0.0435 -0.01,0.0251 -6.34426,10.42942 -14.07577,23.12065 l -14.05728,23.07496 -0.54068,6.9e-4 c -0.29737,3.9e-4 -0.54067,-0.0109 -0.54067,-0.0249 z"
         id="path3170"
         inkscape:connector-curvature="0"
         inkscape:export-filename="/home/webnull/Praca/python/xsm-py-html/xsm-py/Xorg.png"
         inkscape:export-xdpi="90"
         inkscape:export-ydpi="90" />
      <path
         style="fill:#666666"
         d="m 858.37736,-351.44151 c 0.0901,-0.13904 12.88097,-21.28419 28.42403,-46.9892 15.54304,-25.70502 28.27218,-46.75111 28.28695,-46.76912 0.0149,-0.018 0.35261,-0.018 0.75075,0 l 0.72386,0.0328 -3.88621,6.41802 c -3.48116,5.74906 -46.08292,75.86099 -51.13009,84.14745 l -2.0381,3.34615 -0.64756,0.0333 -0.64755,0.0334 0.16392,-0.25283 0,0 z"
         id="path3172"
         inkscape:connector-curvature="0"
         inkscape:export-filename="/home/webnull/Praca/python/xsm-py-html/xsm-py/Xorg.png"
         inkscape:export-xdpi="90"
         inkscape:export-ydpi="90" />
      <path
         style="fill:#666666"
         d="m 915.58018,-445.24154 -0.48416,-0.0307 9.86834,-16.31597 c 5.42759,-8.97378 9.85817,-16.32604 9.84572,-16.33835 -0.0124,-0.0123 -4.57219,-0.2516 -10.13278,-0.53176 l -10.11016,-0.50939 2.07947,-0.006 c 2.38005,-0.006 7.65372,0.0727 10.50831,0.15845 5.66192,0.17011 9.23289,0.43717 9.23289,0.69047 0,0.16334 -4.22065,7.2197 -13.93295,23.29404 l -5.82506,9.64074 -0.28272,-0.0109 c -0.15549,-0.006 -0.5006,-0.0243 -0.7669,-0.0411 z"
         id="path3174"
         inkscape:connector-curvature="0"
         inkscape:export-filename="/home/webnull/Praca/python/xsm-py-html/xsm-py/Xorg.png"
         inkscape:export-xdpi="90"
         inkscape:export-ydpi="90" />
      <path
         style="fill:#666666"
         d=""
         id="path5925"
         inkscape:connector-curvature="0"
         transform="translate(272.20645,-481.73878)"
         inkscape:export-filename="/home/webnull/Praca/python/xsm-py-html/xsm-py/Xorg.png"
         inkscape:export-xdpi="90"
         inkscape:export-ydpi="90" />
      <path
         style="fill:#666666"
         d="m 453.32118,642.27869 c -0.17835,-0.29212 -26.97027,-46.99629 -26.97027,-47.01508 0,-0.0112 0.15095,-0.0204 0.33544,-0.0204 l 0.33544,0 4.03087,7.03081 c 2.9768,5.19227 22.23883,38.70507 22.97033,39.96464 l 0.0987,0.17002 -0.36058,0 -0.36058,0 -0.0794,-0.13002 0,0 z"
         id="path5927"
         inkscape:connector-curvature="0"
         transform="translate(272.20645,-481.73878)"
         inkscape:export-filename="/home/webnull/Praca/python/xsm-py-html/xsm-py/Xorg.png"
         inkscape:export-xdpi="90"
         inkscape:export-ydpi="90" />
      <path
         style="fill:#666666"
         d="m 519.52784,681.25216 0,-0.67471 0.49006,-0.16995 c 4.53119,-1.57144 9.0553,-3.27684 12.46145,-4.69746 12.67041,-5.28449 32.43402,-15.29932 47.32361,-23.98032 10.50629,-6.12543 16.53953,-10.39365 16.53314,-11.69639 -3.5e-4,-0.0722 -0.0801,-0.30687 -0.1771,-0.52139 l -0.17646,-0.39005 0.66716,0.001 0.66716,0.001 0.61485,1.08264 c 0.51272,0.9028 0.60575,1.09104 0.56007,1.13323 -0.0557,0.0514 -9.83301,6.31431 -12.53624,8.03011 -15.17144,9.62968 -30.02481,17.59441 -45.02522,24.14361 -5.75879,2.5143 -11.56721,4.84668 -17.58204,7.06011 -1.82187,0.67044 -3.72956,1.3527 -3.78233,1.3527 -0.0226,0 -0.0381,-0.27392 -0.0381,-0.67469 z"
         id="path5929"
         inkscape:connector-curvature="0"
         transform="translate(272.20645,-481.73878)"
         inkscape:export-filename="/home/webnull/Praca/python/xsm-py-html/xsm-py/Xorg.png"
         inkscape:export-xdpi="90"
         inkscape:export-ydpi="90" />
      <path
         style="fill:#666666"
         d="m 594.91349,636.99634 c -5.00069,-9.46563 -16.94685,-30.64906 -45.1219,-80.01202 -6.3367,-11.10196 -11.52127,-20.20671 -11.52127,-20.23277 0,-0.0261 0.15529,-0.0314 0.34508,-0.0119 0.33373,0.0343 1.29579,1.70421 29.25702,50.78332 15.90157,27.91133 29.01135,50.93881 29.13285,51.17218 l 0.22091,0.42431 -0.59634,-0.002 -0.59634,-0.002 -1.12001,-2.12003 0,0 z"
         id="path5931"
         inkscape:connector-curvature="0"
         transform="translate(272.20645,-481.73878)"
         inkscape:export-filename="/home/webnull/Praca/python/xsm-py-html/xsm-py/Xorg.png"
         inkscape:export-xdpi="90"
         inkscape:export-ydpi="90" />
      <path
         style="fill:#666666"
         d="m 482.20912,692.57249 c -0.1741,-0.2953 -6.71011,-11.6802 -14.52447,-25.29978 l -14.20793,-24.76287 0.29275,-0.0255 c 0.1705,-0.0149 0.33329,0.0185 0.38983,0.08 0.0534,0.058 1.78205,3.03987 3.84145,6.62629 11.72846,20.42496 21.95142,37.74708 24.69547,41.84485 l 0.66972,1.00011 0.38536,-0.0201 c 1.33167,-0.0695 11.56103,-3.23636 24.97402,-7.73159 3.21237,-1.0766 6.93614,-2.33819 8.27505,-2.80353 1.33891,-0.46535 2.44603,-0.84609 2.46028,-0.84609 0.0766,0 0.014,1.27804 -0.065,1.32688 -0.19608,0.12118 -6.77594,2.33638 -10.07029,3.39029 -6.47035,2.06997 -11.42563,3.51904 -21.48249,6.28211 -2.81633,0.77377 -5.16484,1.42238 -5.21891,1.44135 -0.0556,0.0195 -0.23592,-0.19888 -0.41487,-0.5024 l 0,0 z"
         id="path5933"
         inkscape:connector-curvature="0"
         transform="translate(272.20645,-481.73878)"
         inkscape:export-filename="/home/webnull/Praca/python/xsm-py-html/xsm-py/Xorg.png"
         inkscape:export-xdpi="90"
         inkscape:export-ydpi="90" />
      <path
         style="fill:#666666"
         d="m 421.49327,586.76988 c -9.03487,-15.74204 -15.1396,-26.41006 -15.18554,-26.53675 -0.0365,-0.10062 -0.0111,-0.0959 0.12455,0.0232 0.11345,0.0995 0.23487,0.13331 0.36344,0.10104 0.18229,-0.0457 0.30855,0.15383 2.25907,3.57093 1.13629,1.99067 5.62338,9.82551 9.97132,17.41077 4.34793,7.58525 7.90533,13.80497 7.90533,13.8216 0,0.0166 -0.13614,0.0302 -0.30255,0.0302 l -0.30255,0 -4.83307,-8.42098 0,0 z"
         id="path5935"
         inkscape:connector-curvature="0"
         transform="translate(272.20645,-481.73878)"
         inkscape:export-filename="/home/webnull/Praca/python/xsm-py-html/xsm-py/Xorg.png"
         inkscape:export-xdpi="90"
         inkscape:export-ydpi="90" />
      <path
         style="fill:#666666"
         d="M 507.52643,482.83397 C 490.37578,452.65476 477.19055,429.3892 469.99926,416.61668 l -0.26157,-0.46459 0.4143,0.0245 0.41429,0.0245 3.08609,5.48063 c 8.9659,15.92268 45.65105,80.61601 50.32695,88.75029 0.019,0.033 -0.13865,0.06 -0.35027,0.0599 l -0.38477,-7e-5 -15.71785,-27.65799 z"
         id="path5937"
         inkscape:connector-curvature="0"
         transform="translate(272.20645,-481.73878)"
         inkscape:export-filename="/home/webnull/Praca/python/xsm-py-html/xsm-py/Xorg.png"
         inkscape:export-xdpi="90"
         inkscape:export-ydpi="90" />
      <path
         style="fill:#666666"
         d="m 535.48833,532.05116 c -0.38145,-0.65577 -12.24105,-21.47482 -12.25734,-21.51727 -0.007,-0.0194 0.0699,-0.0274 0.33655,-0.035 0.19042,-0.005 0.36268,-0.0168 0.38282,-0.0253 0.0357,-0.0151 0.036,-0.0323 0.003,-0.11998 -0.0101,-0.0265 -0.009,-0.0332 0.005,-0.02 0.0137,0.0139 12.34547,21.65818 12.44182,21.83753 0.004,0.008 -0.1811,0.015 -0.41229,0.015 l -0.42035,0 -0.0785,-0.13501 0,0 z"
         id="path5939"
         inkscape:connector-curvature="0"
         transform="translate(272.20645,-481.73878)"
         inkscape:export-filename="/home/webnull/Praca/python/xsm-py-html/xsm-py/Xorg.png"
         inkscape:export-xdpi="90"
         inkscape:export-ydpi="90" />
      <path
         style="fill:#666666"
         d="m 544.22281,546.03257 c -2.13419,-3.74145 -4.48382,-7.75838 -5.04907,-8.63186 -0.41668,-0.6439 -0.45503,-0.68008 -0.72081,-0.68008 -0.11873,0 -0.20987,0.0144 -0.20254,0.032 0.007,0.0176 0.12798,0.23451 0.2681,0.48198 0.14013,0.24747 0.24601,0.45871 0.23531,0.46942 -0.0157,0.0157 -3.09609,-5.34374 -3.14419,-5.47045 -0.008,-0.0208 0.16158,-0.0315 0.39658,-0.0249 l 0.4104,0.0114 4.35917,7.65235 c 2.39755,4.20879 4.35044,7.66108 4.33977,7.67175 -0.0107,0.0107 -0.4124,-0.66957 -0.89272,-1.51164 l 0,0 z"
         id="path5941"
         inkscape:connector-curvature="0"
         transform="translate(272.20645,-481.73878)"
         inkscape:export-filename="/home/webnull/Praca/python/xsm-py-html/xsm-py/Xorg.png"
         inkscape:export-xdpi="90"
         inkscape:export-ydpi="90" />
      <path
         style="fill:#666666"
         d="m 553.80885,563.9927 c -0.60325,-1.06102 -4.33418,-7.6134 -8.29097,-14.56085 -3.95678,-6.94744 -7.19415,-12.6406 -7.19415,-12.65146 0,-0.0109 0.0685,-0.0198 0.15217,-0.0198 0.11958,0 0.17874,0.0279 0.27619,0.13001 0.36898,0.38682 1.80008,2.82459 7.34488,12.51145 3.31533,5.79194 9.28883,16.25187 9.38399,16.43191 0.0474,0.0897 0.0467,0.09 -0.26386,0.0889 l -0.31144,-0.001 -1.09681,-1.92913 z"
         id="path5943"
         inkscape:connector-curvature="0"
         transform="translate(272.20645,-481.73878)"
         inkscape:export-filename="/home/webnull/Praca/python/xsm-py-html/xsm-py/Xorg.png"
         inkscape:export-xdpi="90"
         inkscape:export-ydpi="90" />
      <path
         style="fill:#666666"
         d="m 539.56388,539.18092 c -0.44625,-0.78223 -0.80236,-1.43124 -0.79136,-1.44224 0.011,-0.011 0.38511,0.62 0.83136,1.40223 0.44625,0.78223 0.80236,1.43124 0.79136,1.44224 -0.011,0.011 -0.38511,-0.62 -0.83136,-1.40223 z"
         id="path5945"
         inkscape:connector-curvature="0"
         transform="translate(272.20645,-481.73878)"
         inkscape:export-filename="/home/webnull/Praca/python/xsm-py-html/xsm-py/Xorg.png"
         inkscape:export-xdpi="90"
         inkscape:export-ydpi="90" />
      <path
         style="fill:#666666"
         d="m 484.83753,542.34128 0,-23.58273 21.51573,0 21.51573,0 6.51555,11.43132 c 3.58355,6.28723 9.6353,16.89315 13.44832,23.56871 3.81303,6.67556 6.93278,12.14369 6.93278,12.15141 0,0.008 -15.73382,0.014 -34.96405,0.014 l -34.96406,0 0,-23.58274 z"
         id="path5947"
         inkscape:connector-curvature="0"
         transform="translate(272.20645,-481.73878)"
         inkscape:export-filename="/home/webnull/Praca/python/xsm-py-html/xsm-py/Xorg.png"
         inkscape:export-xdpi="90"
         inkscape:export-ydpi="90" />
      <path
         style="fill:#666666"
         d=""
         id="path5949"
         inkscape:connector-curvature="0"
         transform="translate(272.20645,-481.73878)"
         inkscape:export-filename="/home/webnull/Praca/python/xsm-py-html/xsm-py/Xorg.png"
         inkscape:export-xdpi="90"
         inkscape:export-ydpi="90" />
      <path
         style="fill:#666666"
         d=""
         id="path5951"
         inkscape:connector-curvature="0"
         transform="translate(272.20645,-481.73878)"
         inkscape:export-filename="/home/webnull/Praca/python/xsm-py-html/xsm-py/Xorg.png"
         inkscape:export-xdpi="90"
         inkscape:export-ydpi="90" />
      <path
         style="fill:#666666"
         d=""
         id="path5953"
         inkscape:connector-curvature="0"
         transform="translate(272.20645,-481.73878)"
         inkscape:export-filename="/home/webnull/Praca/python/xsm-py-html/xsm-py/Xorg.png"
         inkscape:export-xdpi="90"
         inkscape:export-ydpi="90" />
    </g>
    <rect
       x="322.36493"
       y="180.85307"
       width="0.50507629"
       height="0"
       id="rect3065"
       style="opacity:0.40740739;fill:#000cff" />
  </g>
</svg>
